%TF.GenerationSoftware,Altium Limited,Altium Designer,19.1.5 (86)*%
G04 Layer_Color=16711935*
%FSLAX43Y43*%
%MOMM*%
%TF.FileFunction,Soldermask,Bot*%
%TF.Part,Single*%
G01*
G75*
%TA.AperFunction,ViaPad*%
%ADD11C,2.300*%
%TA.AperFunction,WasherPad*%
%ADD12C,3.000*%
%TA.AperFunction,ViaPad*%
%ADD13C,1.200*%
%TA.AperFunction,SMDPad,CuDef*%
%ADD14R,5.000X2.200*%
%ADD15R,1.400X1.200*%
%ADD16O,2.000X0.600*%
D11*
X16110Y47860D02*
D03*
X18650D02*
D03*
X21190D02*
D03*
X23730D02*
D03*
X26270D02*
D03*
X28810D02*
D03*
X31350D02*
D03*
X33890D02*
D03*
Y2140D02*
D03*
X31350D02*
D03*
X28810D02*
D03*
X26270D02*
D03*
X23730D02*
D03*
X21190D02*
D03*
X18650D02*
D03*
X16110D02*
D03*
D12*
X3000Y3000D02*
D03*
X47000D02*
D03*
Y47000D02*
D03*
X3000D02*
D03*
D13*
X13824Y26270D02*
D03*
X16364Y19920D02*
D03*
X18650Y30080D02*
D03*
Y21190D02*
D03*
X24892Y22460D02*
D03*
X38246Y23730D02*
D03*
X34290Y34036D02*
D03*
X23876D02*
D03*
X15094Y31350D02*
D03*
X33020Y18650D02*
D03*
Y16110D02*
D03*
X23114Y18796D02*
D03*
X27432Y22606D02*
D03*
X18650Y27540D02*
D03*
X24384Y9125D02*
D03*
X23222Y28810D02*
D03*
X31475Y22460D02*
D03*
X22585Y32620D02*
D03*
X27665Y26270D02*
D03*
X13824Y14840D02*
D03*
X31496Y34036D02*
D03*
X29972D02*
D03*
X27665Y30080D02*
D03*
X31475Y28810D02*
D03*
X25908Y10160D02*
D03*
X31475Y12340D02*
D03*
D14*
X47460Y21190D02*
D03*
Y13570D02*
D03*
Y16110D02*
D03*
Y18650D02*
D03*
Y23730D02*
D03*
X2540Y16110D02*
D03*
Y23730D02*
D03*
Y21190D02*
D03*
Y18650D02*
D03*
Y13570D02*
D03*
D15*
X15875Y14605D02*
D03*
Y12573D02*
D03*
X16110Y25000D02*
D03*
Y27032D02*
D03*
X35306Y14478D02*
D03*
Y12446D02*
D03*
D16*
X30080Y32620D02*
D03*
Y31350D02*
D03*
Y30080D02*
D03*
Y28810D02*
D03*
Y27540D02*
D03*
Y26270D02*
D03*
Y25000D02*
D03*
Y23730D02*
D03*
Y22460D02*
D03*
Y21190D02*
D03*
X20680Y27540D02*
D03*
Y26270D02*
D03*
Y25000D02*
D03*
Y23730D02*
D03*
Y22460D02*
D03*
Y21190D02*
D03*
Y19920D02*
D03*
Y18650D02*
D03*
X30080D02*
D03*
Y19920D02*
D03*
X20680Y28810D02*
D03*
Y30080D02*
D03*
Y31350D02*
D03*
Y32620D02*
D03*
%TF.MD5,b98ef444802c7b5e8d219a6387c433a8*%
M02*
