%TF.GenerationSoftware,Altium Limited,Altium Designer,19.1.5 (86)*%
G04 Layer_Color=8388736*
%FSLAX43Y43*%
%MOMM*%
%TF.FileFunction,Soldermask,Top*%
%TF.Part,Single*%
G01*
G75*
%TA.AperFunction,ViaPad*%
%ADD11C,2.300*%
%TA.AperFunction,WasherPad*%
%ADD12C,3.000*%
%TA.AperFunction,ViaPad*%
%ADD13C,1.200*%
D11*
X16110Y47860D02*
D03*
X18650D02*
D03*
X21190D02*
D03*
X23730D02*
D03*
X26270D02*
D03*
X28810D02*
D03*
X31350D02*
D03*
X33890D02*
D03*
Y2140D02*
D03*
X31350D02*
D03*
X28810D02*
D03*
X26270D02*
D03*
X23730D02*
D03*
X21190D02*
D03*
X18650D02*
D03*
X16110D02*
D03*
D12*
X3000Y3000D02*
D03*
X47000D02*
D03*
Y47000D02*
D03*
X3000D02*
D03*
D13*
X13824Y26270D02*
D03*
X16364Y19920D02*
D03*
X18650Y30080D02*
D03*
Y21190D02*
D03*
X24892Y22460D02*
D03*
X38246Y23730D02*
D03*
X34290Y34036D02*
D03*
X23876D02*
D03*
X15094Y31350D02*
D03*
X33020Y18650D02*
D03*
Y16110D02*
D03*
X23114Y18796D02*
D03*
X27432Y22606D02*
D03*
X18650Y27540D02*
D03*
X24384Y9125D02*
D03*
X23222Y28810D02*
D03*
X31475Y22460D02*
D03*
X22585Y32620D02*
D03*
X27665Y26270D02*
D03*
X13824Y14840D02*
D03*
X31496Y34036D02*
D03*
X29972D02*
D03*
X27665Y30080D02*
D03*
X31475Y28810D02*
D03*
X25908Y10160D02*
D03*
X31475Y12340D02*
D03*
%TF.MD5,b433d8ccf542a35b44c481e84cb70347*%
M02*
