%TF.GenerationSoftware,Altium Limited,Altium Designer,19.1.5 (86)*%
G04 Layer_Color=65535*
%FSLAX43Y43*%
%MOMM*%
%TF.FileFunction,Legend,Top*%
%TF.Part,Single*%
G01*
G75*
%TA.AperFunction,NonConductor*%
%ADD18C,2.000*%
%ADD21R,3.000X2.000*%
%ADD22R,1.000X2.000*%
%ADD23R,4.445X2.270*%
%ADD24R,3.000X2.000*%
%ADD25R,2.000X10.000*%
G36*
X28476Y40436D02*
X28493D01*
X28511Y40434D01*
X28532Y40432D01*
X28554Y40428D01*
X28602Y40419D01*
X28648Y40406D01*
X28695Y40388D01*
X28713Y40377D01*
X28732Y40364D01*
X28733D01*
X28735Y40360D01*
X28746Y40351D01*
X28759Y40334D01*
X28776Y40312D01*
X28793Y40286D01*
X28808Y40254D01*
X28817Y40217D01*
X28819Y40197D01*
X28820Y40177D01*
Y40173D01*
Y40165D01*
X28819Y40153D01*
X28817Y40138D01*
X28811Y40119D01*
X28806Y40099D01*
X28796Y40078D01*
X28783Y40058D01*
X28782Y40056D01*
X28776Y40049D01*
X28769Y40040D01*
X28758Y40027D01*
X28743Y40014D01*
X28724Y39997D01*
X28702Y39980D01*
X28676Y39965D01*
X28678D01*
X28685Y39964D01*
X28696Y39960D01*
X28709Y39956D01*
X28737Y39945D01*
X28752Y39940D01*
X28765Y39932D01*
X28767Y39930D01*
X28772Y39927D01*
X28782Y39919D01*
X28793Y39910D01*
X28806Y39899D01*
X28819Y39884D01*
X28832Y39867D01*
X28843Y39849D01*
X28845Y39847D01*
X28848Y39840D01*
X28852Y39828D01*
X28858Y39815D01*
X28863Y39797D01*
X28869Y39777D01*
X28870Y39754D01*
X28872Y39728D01*
Y39727D01*
Y39725D01*
Y39714D01*
X28870Y39697D01*
X28867Y39675D01*
X28861Y39647D01*
X28852Y39619D01*
X28841Y39590D01*
X28824Y39558D01*
X28822Y39554D01*
X28815Y39545D01*
X28806Y39530D01*
X28791Y39512D01*
X28770Y39491D01*
X28748Y39471D01*
X28722Y39451D01*
X28691Y39432D01*
X28689D01*
X28687Y39430D01*
X28682Y39429D01*
X28674Y39425D01*
X28667Y39423D01*
X28656Y39419D01*
X28630Y39412D01*
X28596Y39403D01*
X28558Y39397D01*
X28511Y39391D01*
X28461Y39390D01*
X28439D01*
X28428Y39391D01*
X28413D01*
X28383Y39393D01*
X28348Y39397D01*
X28311Y39403D01*
X28276Y39410D01*
X28243Y39421D01*
X28239Y39423D01*
X28230Y39427D01*
X28215Y39434D01*
X28196Y39445D01*
X28176Y39458D01*
X28154Y39475D01*
X28132Y39493D01*
X28111Y39516D01*
X28109Y39519D01*
X28102Y39527D01*
X28093Y39540D01*
X28082Y39558D01*
X28069Y39582D01*
X28058Y39608D01*
X28045Y39640D01*
X28034Y39673D01*
X28315Y39712D01*
Y39708D01*
X28319Y39699D01*
X28322Y39684D01*
X28328Y39666D01*
X28343Y39627D01*
X28354Y39608D01*
X28365Y39593D01*
X28367Y39591D01*
X28371Y39588D01*
X28380Y39584D01*
X28389Y39578D01*
X28402Y39571D01*
X28419Y39567D01*
X28435Y39564D01*
X28456Y39562D01*
X28465D01*
X28476Y39564D01*
X28489Y39567D01*
X28504Y39571D01*
X28521Y39578D01*
X28535Y39590D01*
X28550Y39603D01*
X28552Y39604D01*
X28556Y39610D01*
X28563Y39619D01*
X28571Y39632D01*
X28576Y39647D01*
X28583Y39667D01*
X28587Y39690D01*
X28589Y39714D01*
Y39717D01*
Y39725D01*
X28587Y39738D01*
X28585Y39754D01*
X28580Y39771D01*
X28574Y39790D01*
X28565Y39806D01*
X28552Y39823D01*
X28550Y39825D01*
X28545Y39828D01*
X28537Y39836D01*
X28526Y39843D01*
X28511Y39849D01*
X28495Y39856D01*
X28474Y39860D01*
X28452Y39862D01*
X28439D01*
X28428Y39860D01*
X28415Y39858D01*
X28400Y39854D01*
X28382Y39851D01*
X28361Y39845D01*
X28374Y40045D01*
X28387D01*
X28400Y40043D01*
X28421D01*
X28432Y40045D01*
X28445Y40047D01*
X28458Y40051D01*
X28474Y40058D01*
X28489Y40065D01*
X28504Y40077D01*
X28506Y40078D01*
X28509Y40082D01*
X28517Y40090D01*
X28524Y40101D01*
X28530Y40112D01*
X28537Y40127D01*
X28541Y40143D01*
X28543Y40160D01*
Y40162D01*
Y40167D01*
X28541Y40177D01*
X28539Y40186D01*
X28535Y40199D01*
X28532Y40210D01*
X28524Y40223D01*
X28515Y40234D01*
X28513Y40236D01*
X28509Y40238D01*
X28504Y40243D01*
X28495Y40249D01*
X28483Y40252D01*
X28471Y40258D01*
X28456Y40260D01*
X28437Y40262D01*
X28430D01*
X28421Y40260D01*
X28408Y40258D01*
X28395Y40254D01*
X28382Y40249D01*
X28369Y40241D01*
X28356Y40230D01*
X28354Y40228D01*
X28350Y40225D01*
X28346Y40217D01*
X28339Y40206D01*
X28333Y40191D01*
X28326Y40175D01*
X28321Y40153D01*
X28315Y40127D01*
X28048Y40173D01*
Y40175D01*
X28050Y40178D01*
X28052Y40186D01*
X28054Y40193D01*
X28059Y40204D01*
X28063Y40217D01*
X28076Y40245D01*
X28093Y40277D01*
X28115Y40310D01*
X28141Y40341D01*
X28174Y40369D01*
X28176D01*
X28178Y40373D01*
X28184Y40375D01*
X28193Y40380D01*
X28202Y40386D01*
X28213Y40391D01*
X28228Y40397D01*
X28245Y40404D01*
X28261Y40410D01*
X28282Y40415D01*
X28304Y40421D01*
X28328Y40427D01*
X28354Y40432D01*
X28382Y40434D01*
X28443Y40438D01*
X28461D01*
X28476Y40436D01*
D02*
G37*
G36*
X29317Y39406D02*
X29015D01*
Y39690D01*
X29317D01*
Y39406D01*
D02*
G37*
G36*
X27541Y40436D02*
X27556D01*
X27589Y40434D01*
X27626Y40428D01*
X27665Y40423D01*
X27702Y40414D01*
X27735Y40402D01*
X27737D01*
X27739Y40401D01*
X27748Y40397D01*
X27765Y40388D01*
X27784Y40377D01*
X27804Y40362D01*
X27826Y40345D01*
X27848Y40323D01*
X27867Y40299D01*
X27869Y40295D01*
X27874Y40286D01*
X27882Y40273D01*
X27891Y40252D01*
X27900Y40230D01*
X27908Y40202D01*
X27913Y40173D01*
X27915Y40141D01*
Y40140D01*
Y40138D01*
Y40132D01*
Y40127D01*
X27911Y40108D01*
X27908Y40084D01*
X27902Y40058D01*
X27891Y40027D01*
X27878Y39995D01*
X27859Y39964D01*
X27858Y39960D01*
X27848Y39949D01*
X27835Y39932D01*
X27815Y39910D01*
X27787Y39882D01*
X27771Y39867D01*
X27754Y39851D01*
X27734Y39834D01*
X27711Y39815D01*
X27687Y39797D01*
X27661Y39778D01*
X27658Y39777D01*
X27648Y39769D01*
X27634Y39758D01*
X27615Y39745D01*
X27597Y39732D01*
X27576Y39719D01*
X27559Y39706D01*
X27547Y39695D01*
X27545Y39693D01*
X27541Y39691D01*
X27535Y39686D01*
X27528Y39680D01*
X27508Y39660D01*
X27480Y39636D01*
X27922Y39636D01*
Y39406D01*
X27074Y39406D01*
Y39408D01*
Y39412D01*
X27076Y39419D01*
X27078Y39427D01*
X27080Y39438D01*
X27082Y39451D01*
X27091Y39482D01*
X27102Y39517D01*
X27117Y39556D01*
X27137Y39599D01*
X27161Y39640D01*
X27163Y39641D01*
X27165Y39645D01*
X27169Y39651D01*
X27176Y39660D01*
X27185Y39669D01*
X27195Y39682D01*
X27210Y39697D01*
X27224Y39714D01*
X27241Y39732D01*
X27261Y39753D01*
X27284Y39773D01*
X27310Y39797D01*
X27337Y39821D01*
X27369Y39847D01*
X27402Y39873D01*
X27439Y39901D01*
X27441Y39903D01*
X27445Y39904D01*
X27450Y39910D01*
X27460Y39915D01*
X27480Y39932D01*
X27506Y39953D01*
X27532Y39977D01*
X27559Y39999D01*
X27582Y40021D01*
X27591Y40032D01*
X27598Y40041D01*
X27600Y40043D01*
X27604Y40049D01*
X27610Y40058D01*
X27617Y40071D01*
X27622Y40084D01*
X27628Y40101D01*
X27632Y40115D01*
X27634Y40132D01*
Y40134D01*
Y40140D01*
X27632Y40149D01*
X27630Y40160D01*
X27624Y40173D01*
X27619Y40186D01*
X27610Y40199D01*
X27598Y40212D01*
X27597Y40214D01*
X27593Y40217D01*
X27585Y40223D01*
X27574Y40228D01*
X27561Y40234D01*
X27547Y40240D01*
X27530Y40243D01*
X27511Y40245D01*
X27502D01*
X27493Y40243D01*
X27480Y40241D01*
X27467Y40236D01*
X27452Y40230D01*
X27437Y40221D01*
X27422Y40210D01*
X27421Y40208D01*
X27417Y40204D01*
X27411Y40195D01*
X27404Y40182D01*
X27397Y40165D01*
X27389Y40145D01*
X27384Y40121D01*
X27378Y40091D01*
X27095Y40114D01*
Y40115D01*
Y40119D01*
X27097Y40125D01*
X27098Y40134D01*
X27102Y40154D01*
X27108Y40182D01*
X27117Y40212D01*
X27126Y40241D01*
X27139Y40271D01*
X27154Y40299D01*
X27156Y40302D01*
X27161Y40310D01*
X27173Y40321D01*
X27187Y40336D01*
X27204Y40352D01*
X27226Y40369D01*
X27250Y40386D01*
X27280Y40401D01*
X27282D01*
X27284Y40402D01*
X27295Y40406D01*
X27313Y40412D01*
X27339Y40419D01*
X27371Y40427D01*
X27410Y40432D01*
X27454Y40436D01*
X27504Y40438D01*
X27528D01*
X27541Y40436D01*
D02*
G37*
G36*
X26952Y39406D02*
X26650D01*
Y39690D01*
X26952D01*
Y39406D01*
D02*
G37*
G36*
X24588D02*
X24286D01*
Y39690D01*
X24588D01*
Y39406D01*
D02*
G37*
G36*
X22812Y40436D02*
X22827D01*
X22860Y40434D01*
X22897Y40428D01*
X22936Y40423D01*
X22973Y40414D01*
X23006Y40402D01*
X23008D01*
X23010Y40401D01*
X23019Y40397D01*
X23036Y40388D01*
X23054Y40377D01*
X23075Y40362D01*
X23097Y40345D01*
X23119Y40323D01*
X23138Y40299D01*
X23140Y40295D01*
X23145Y40286D01*
X23153Y40273D01*
X23162Y40252D01*
X23171Y40230D01*
X23178Y40202D01*
X23184Y40173D01*
X23186Y40141D01*
Y40140D01*
Y40138D01*
Y40132D01*
Y40127D01*
X23182Y40108D01*
X23178Y40084D01*
X23173Y40058D01*
X23162Y40027D01*
X23149Y39995D01*
X23130Y39964D01*
X23128Y39960D01*
X23119Y39949D01*
X23106Y39932D01*
X23086Y39910D01*
X23058Y39882D01*
X23041Y39867D01*
X23025Y39851D01*
X23004Y39834D01*
X22982Y39815D01*
X22958Y39797D01*
X22932Y39778D01*
X22928Y39777D01*
X22919Y39769D01*
X22904Y39758D01*
X22886Y39745D01*
X22867Y39732D01*
X22847Y39719D01*
X22830Y39706D01*
X22817Y39695D01*
X22816Y39693D01*
X22812Y39691D01*
X22806Y39686D01*
X22799Y39680D01*
X22779Y39660D01*
X22751Y39636D01*
X23193D01*
Y39406D01*
X22345D01*
Y39408D01*
Y39412D01*
X22347Y39419D01*
X22349Y39427D01*
X22351Y39438D01*
X22353Y39451D01*
X22362Y39482D01*
X22373Y39517D01*
X22388Y39556D01*
X22408Y39599D01*
X22432Y39640D01*
X22434Y39641D01*
X22436Y39645D01*
X22440Y39651D01*
X22447Y39660D01*
X22456Y39669D01*
X22466Y39682D01*
X22480Y39697D01*
X22495Y39714D01*
X22512Y39732D01*
X22532Y39753D01*
X22554Y39773D01*
X22580Y39797D01*
X22608Y39821D01*
X22640Y39847D01*
X22673Y39873D01*
X22710Y39901D01*
X22712Y39903D01*
X22716Y39904D01*
X22721Y39910D01*
X22730Y39915D01*
X22751Y39932D01*
X22777Y39953D01*
X22803Y39977D01*
X22830Y39999D01*
X22853Y40021D01*
X22862Y40032D01*
X22869Y40041D01*
X22871Y40043D01*
X22875Y40049D01*
X22880Y40058D01*
X22888Y40071D01*
X22893Y40084D01*
X22899Y40101D01*
X22903Y40115D01*
X22904Y40132D01*
Y40134D01*
Y40140D01*
X22903Y40149D01*
X22901Y40160D01*
X22895Y40173D01*
X22890Y40186D01*
X22880Y40199D01*
X22869Y40212D01*
X22867Y40214D01*
X22864Y40217D01*
X22856Y40223D01*
X22845Y40228D01*
X22832Y40234D01*
X22817Y40240D01*
X22801Y40243D01*
X22782Y40245D01*
X22773D01*
X22764Y40243D01*
X22751Y40241D01*
X22738Y40236D01*
X22723Y40230D01*
X22708Y40221D01*
X22693Y40210D01*
X22691Y40208D01*
X22688Y40204D01*
X22682Y40195D01*
X22675Y40182D01*
X22667Y40165D01*
X22660Y40145D01*
X22654Y40121D01*
X22649Y40091D01*
X22366Y40114D01*
Y40115D01*
Y40119D01*
X22367Y40125D01*
X22369Y40134D01*
X22373Y40154D01*
X22379Y40182D01*
X22388Y40212D01*
X22397Y40241D01*
X22410Y40271D01*
X22425Y40299D01*
X22427Y40302D01*
X22432Y40310D01*
X22443Y40321D01*
X22458Y40336D01*
X22475Y40352D01*
X22497Y40369D01*
X22521Y40386D01*
X22551Y40401D01*
X22553D01*
X22554Y40402D01*
X22566Y40406D01*
X22584Y40412D01*
X22610Y40419D01*
X22641Y40427D01*
X22680Y40432D01*
X22725Y40436D01*
X22775Y40438D01*
X22799D01*
X22812Y40436D01*
D02*
G37*
G36*
X20919D02*
X20934D01*
X20968Y40434D01*
X21005Y40428D01*
X21044Y40423D01*
X21081Y40414D01*
X21114Y40402D01*
X21116D01*
X21118Y40401D01*
X21127Y40397D01*
X21143Y40388D01*
X21162Y40377D01*
X21182Y40362D01*
X21205Y40345D01*
X21227Y40323D01*
X21245Y40299D01*
X21247Y40295D01*
X21253Y40286D01*
X21260Y40273D01*
X21269Y40252D01*
X21279Y40230D01*
X21286Y40202D01*
X21292Y40173D01*
X21293Y40141D01*
Y40140D01*
Y40138D01*
Y40132D01*
Y40127D01*
X21290Y40108D01*
X21286Y40084D01*
X21281Y40058D01*
X21269Y40027D01*
X21256Y39995D01*
X21238Y39964D01*
X21236Y39960D01*
X21227Y39949D01*
X21214Y39932D01*
X21193Y39910D01*
X21166Y39882D01*
X21149Y39867D01*
X21132Y39851D01*
X21112Y39834D01*
X21090Y39815D01*
X21066Y39797D01*
X21040Y39778D01*
X21036Y39777D01*
X21027Y39769D01*
X21012Y39758D01*
X20994Y39745D01*
X20975Y39732D01*
X20955Y39719D01*
X20938Y39706D01*
X20925Y39695D01*
X20923Y39693D01*
X20919Y39691D01*
X20914Y39686D01*
X20906Y39680D01*
X20886Y39660D01*
X20858Y39636D01*
X21301D01*
Y39406D01*
X20453D01*
Y39408D01*
Y39412D01*
X20455Y39419D01*
X20457Y39427D01*
X20458Y39438D01*
X20460Y39451D01*
X20469Y39482D01*
X20481Y39517D01*
X20495Y39556D01*
X20516Y39599D01*
X20540Y39640D01*
X20542Y39641D01*
X20544Y39645D01*
X20547Y39651D01*
X20555Y39660D01*
X20564Y39669D01*
X20573Y39682D01*
X20588Y39697D01*
X20603Y39714D01*
X20619Y39732D01*
X20640Y39753D01*
X20662Y39773D01*
X20688Y39797D01*
X20716Y39821D01*
X20747Y39847D01*
X20781Y39873D01*
X20818Y39901D01*
X20819Y39903D01*
X20823Y39904D01*
X20829Y39910D01*
X20838Y39915D01*
X20858Y39932D01*
X20884Y39953D01*
X20910Y39977D01*
X20938Y39999D01*
X20960Y40021D01*
X20969Y40032D01*
X20977Y40041D01*
X20979Y40043D01*
X20982Y40049D01*
X20988Y40058D01*
X20995Y40071D01*
X21001Y40084D01*
X21006Y40101D01*
X21010Y40115D01*
X21012Y40132D01*
Y40134D01*
Y40140D01*
X21010Y40149D01*
X21008Y40160D01*
X21003Y40173D01*
X20997Y40186D01*
X20988Y40199D01*
X20977Y40212D01*
X20975Y40214D01*
X20971Y40217D01*
X20964Y40223D01*
X20953Y40228D01*
X20940Y40234D01*
X20925Y40240D01*
X20908Y40243D01*
X20890Y40245D01*
X20881D01*
X20871Y40243D01*
X20858Y40241D01*
X20845Y40236D01*
X20831Y40230D01*
X20816Y40221D01*
X20801Y40210D01*
X20799Y40208D01*
X20795Y40204D01*
X20790Y40195D01*
X20782Y40182D01*
X20775Y40165D01*
X20768Y40145D01*
X20762Y40121D01*
X20757Y40091D01*
X20473Y40114D01*
Y40115D01*
Y40119D01*
X20475Y40125D01*
X20477Y40134D01*
X20481Y40154D01*
X20486Y40182D01*
X20495Y40212D01*
X20505Y40241D01*
X20518Y40271D01*
X20532Y40299D01*
X20534Y40302D01*
X20540Y40310D01*
X20551Y40321D01*
X20566Y40336D01*
X20582Y40352D01*
X20605Y40369D01*
X20629Y40386D01*
X20658Y40401D01*
X20660D01*
X20662Y40402D01*
X20673Y40406D01*
X20692Y40412D01*
X20718Y40419D01*
X20749Y40427D01*
X20788Y40432D01*
X20832Y40436D01*
X20882Y40438D01*
X20906D01*
X20919Y40436D01*
D02*
G37*
G36*
X26108D02*
X26124D01*
X26145Y40434D01*
X26165Y40432D01*
X26189Y40428D01*
X26237Y40419D01*
X26287Y40404D01*
X26336Y40386D01*
X26356Y40373D01*
X26376Y40360D01*
X26378D01*
X26380Y40356D01*
X26391Y40345D01*
X26408Y40328D01*
X26426Y40306D01*
X26443Y40278D01*
X26460Y40245D01*
X26471Y40208D01*
X26473Y40188D01*
X26474Y40165D01*
Y40162D01*
Y40154D01*
X26473Y40141D01*
X26469Y40125D01*
X26465Y40104D01*
X26458Y40082D01*
X26448Y40060D01*
X26436Y40038D01*
X26434Y40036D01*
X26430Y40030D01*
X26423Y40021D01*
X26413Y40010D01*
X26400Y39997D01*
X26384Y39984D01*
X26365Y39967D01*
X26343Y39953D01*
X26345D01*
X26347Y39951D01*
X26356Y39945D01*
X26371Y39936D01*
X26389Y39925D01*
X26410Y39910D01*
X26430Y39891D01*
X26450Y39871D01*
X26467Y39847D01*
X26469Y39843D01*
X26473Y39836D01*
X26480Y39823D01*
X26487Y39804D01*
X26495Y39784D01*
X26502Y39758D01*
X26506Y39732D01*
X26508Y39703D01*
Y39699D01*
Y39690D01*
X26506Y39675D01*
X26504Y39656D01*
X26499Y39634D01*
X26493Y39610D01*
X26484Y39586D01*
X26473Y39560D01*
X26471Y39556D01*
X26467Y39549D01*
X26460Y39538D01*
X26448Y39523D01*
X26436Y39506D01*
X26421Y39490D01*
X26404Y39473D01*
X26386Y39458D01*
X26384Y39456D01*
X26376Y39453D01*
X26365Y39447D01*
X26350Y39438D01*
X26332Y39430D01*
X26311Y39421D01*
X26286Y39414D01*
X26258Y39406D01*
X26254D01*
X26245Y39404D01*
X26230Y39401D01*
X26210Y39399D01*
X26186Y39395D01*
X26158Y39391D01*
X26128Y39390D01*
X26071D01*
X26056Y39391D01*
X26041D01*
X26006Y39395D01*
X25965Y39399D01*
X25924Y39404D01*
X25884Y39414D01*
X25849Y39427D01*
X25845Y39429D01*
X25834Y39434D01*
X25819Y39443D01*
X25800Y39456D01*
X25780Y39471D01*
X25758Y39491D01*
X25737Y39514D01*
X25719Y39540D01*
X25717Y39543D01*
X25712Y39553D01*
X25706Y39567D01*
X25699Y39588D01*
X25689Y39612D01*
X25684Y39640D01*
X25678Y39671D01*
X25676Y39704D01*
Y39706D01*
Y39708D01*
Y39719D01*
X25678Y39736D01*
X25682Y39758D01*
X25686Y39782D01*
X25693Y39806D01*
X25704Y39832D01*
X25717Y39856D01*
X25719Y39860D01*
X25725Y39867D01*
X25734Y39878D01*
X25749Y39891D01*
X25767Y39908D01*
X25787Y39923D01*
X25815Y39940D01*
X25845Y39953D01*
X25841Y39954D01*
X25834Y39958D01*
X25823Y39965D01*
X25808Y39975D01*
X25793Y39988D01*
X25776Y40001D01*
X25762Y40015D01*
X25749Y40030D01*
X25747Y40032D01*
X25743Y40041D01*
X25736Y40053D01*
X25728Y40069D01*
X25721Y40090D01*
X25713Y40114D01*
X25710Y40140D01*
X25708Y40167D01*
Y40169D01*
Y40173D01*
Y40180D01*
X25710Y40188D01*
X25712Y40199D01*
X25713Y40212D01*
X25723Y40241D01*
X25737Y40273D01*
X25747Y40291D01*
X25758Y40308D01*
X25771Y40325D01*
X25787Y40343D01*
X25806Y40360D01*
X25826Y40375D01*
X25828D01*
X25830Y40377D01*
X25836Y40380D01*
X25843Y40384D01*
X25852Y40390D01*
X25865Y40395D01*
X25878Y40401D01*
X25893Y40406D01*
X25928Y40417D01*
X25971Y40428D01*
X26019Y40436D01*
X26074Y40438D01*
X26095D01*
X26108Y40436D01*
D02*
G37*
G36*
X25188D02*
X25212Y40434D01*
X25238Y40432D01*
X25265Y40427D01*
X25293Y40421D01*
X25319Y40412D01*
X25323Y40410D01*
X25330Y40408D01*
X25343Y40401D01*
X25358Y40393D01*
X25375Y40384D01*
X25393Y40373D01*
X25410Y40360D01*
X25426Y40345D01*
X25428Y40343D01*
X25434Y40338D01*
X25441Y40330D01*
X25450Y40319D01*
X25462Y40308D01*
X25473Y40293D01*
X25493Y40260D01*
X25495Y40258D01*
X25497Y40252D01*
X25502Y40243D01*
X25508Y40230D01*
X25513Y40215D01*
X25519Y40197D01*
X25526Y40178D01*
X25532Y40156D01*
Y40154D01*
X25534Y40151D01*
X25536Y40145D01*
X25537Y40136D01*
X25539Y40127D01*
X25541Y40114D01*
X25547Y40084D01*
X25552Y40049D01*
X25558Y40010D01*
X25560Y39965D01*
X25562Y39921D01*
Y39917D01*
Y39908D01*
Y39895D01*
X25560Y39877D01*
X25558Y39853D01*
X25556Y39827D01*
X25554Y39799D01*
X25550Y39767D01*
X25539Y39701D01*
X25523Y39634D01*
X25512Y39603D01*
X25499Y39571D01*
X25484Y39543D01*
X25467Y39517D01*
X25465Y39516D01*
X25463Y39512D01*
X25458Y39506D01*
X25449Y39497D01*
X25438Y39488D01*
X25425Y39477D01*
X25410Y39466D01*
X25391Y39454D01*
X25371Y39441D01*
X25347Y39430D01*
X25321Y39419D01*
X25291Y39410D01*
X25260Y39401D01*
X25225Y39395D01*
X25186Y39391D01*
X25145Y39390D01*
X25123D01*
X25112Y39391D01*
X25101D01*
X25071Y39395D01*
X25038Y39399D01*
X25002Y39406D01*
X24967Y39417D01*
X24936Y39430D01*
X24932Y39432D01*
X24923Y39438D01*
X24908Y39447D01*
X24891Y39460D01*
X24869Y39477D01*
X24849Y39497D01*
X24826Y39521D01*
X24806Y39549D01*
X24804Y39551D01*
X24801Y39560D01*
X24793Y39571D01*
X24786Y39590D01*
X24776Y39610D01*
X24767Y39636D01*
X24758Y39667D01*
X24751Y39701D01*
Y39703D01*
Y39704D01*
X24749Y39710D01*
X24747Y39717D01*
X24745Y39738D01*
X24741Y39765D01*
X24738Y39797D01*
X24734Y39834D01*
X24732Y39875D01*
X24730Y39917D01*
Y39921D01*
Y39930D01*
Y39945D01*
X24732Y39964D01*
X24734Y39988D01*
X24736Y40015D01*
X24739Y40045D01*
X24743Y40077D01*
X24756Y40143D01*
X24775Y40210D01*
X24786Y40241D01*
X24801Y40271D01*
X24815Y40297D01*
X24834Y40321D01*
X24836Y40323D01*
X24839Y40327D01*
X24845Y40332D01*
X24854Y40340D01*
X24865Y40349D01*
X24878Y40358D01*
X24895Y40369D01*
X24913Y40380D01*
X24934Y40390D01*
X24958Y40401D01*
X24984Y40410D01*
X25012Y40419D01*
X25043Y40427D01*
X25076Y40432D01*
X25113Y40436D01*
X25152Y40438D01*
X25169D01*
X25188Y40436D01*
D02*
G37*
G36*
X23769D02*
X23793Y40434D01*
X23819Y40432D01*
X23847Y40427D01*
X23875Y40421D01*
X23901Y40412D01*
X23904Y40410D01*
X23912Y40408D01*
X23925Y40401D01*
X23940Y40393D01*
X23956Y40384D01*
X23975Y40373D01*
X23991Y40360D01*
X24008Y40345D01*
X24010Y40343D01*
X24015Y40338D01*
X24023Y40330D01*
X24032Y40319D01*
X24043Y40308D01*
X24054Y40293D01*
X24075Y40260D01*
X24077Y40258D01*
X24078Y40252D01*
X24084Y40243D01*
X24089Y40230D01*
X24095Y40215D01*
X24101Y40197D01*
X24108Y40178D01*
X24114Y40156D01*
Y40154D01*
X24115Y40151D01*
X24117Y40145D01*
X24119Y40136D01*
X24121Y40127D01*
X24123Y40114D01*
X24128Y40084D01*
X24134Y40049D01*
X24139Y40010D01*
X24141Y39965D01*
X24143Y39921D01*
Y39917D01*
Y39908D01*
Y39895D01*
X24141Y39877D01*
X24139Y39853D01*
X24138Y39827D01*
X24136Y39799D01*
X24132Y39767D01*
X24121Y39701D01*
X24104Y39634D01*
X24093Y39603D01*
X24080Y39571D01*
X24065Y39543D01*
X24049Y39517D01*
X24047Y39516D01*
X24045Y39512D01*
X24039Y39506D01*
X24030Y39497D01*
X24019Y39488D01*
X24006Y39477D01*
X23991Y39466D01*
X23973Y39454D01*
X23952Y39441D01*
X23928Y39430D01*
X23902Y39419D01*
X23873Y39410D01*
X23841Y39401D01*
X23806Y39395D01*
X23767Y39391D01*
X23727Y39390D01*
X23704D01*
X23693Y39391D01*
X23682D01*
X23653Y39395D01*
X23619Y39399D01*
X23584Y39406D01*
X23549Y39417D01*
X23517Y39430D01*
X23514Y39432D01*
X23504Y39438D01*
X23490Y39447D01*
X23473Y39460D01*
X23451Y39477D01*
X23430Y39497D01*
X23408Y39521D01*
X23388Y39549D01*
X23386Y39551D01*
X23382Y39560D01*
X23375Y39571D01*
X23367Y39590D01*
X23358Y39610D01*
X23349Y39636D01*
X23340Y39667D01*
X23332Y39701D01*
Y39703D01*
Y39704D01*
X23330Y39710D01*
X23328Y39717D01*
X23327Y39738D01*
X23323Y39765D01*
X23319Y39797D01*
X23316Y39834D01*
X23314Y39875D01*
X23312Y39917D01*
Y39921D01*
Y39930D01*
Y39945D01*
X23314Y39964D01*
X23316Y39988D01*
X23317Y40015D01*
X23321Y40045D01*
X23325Y40077D01*
X23338Y40143D01*
X23356Y40210D01*
X23367Y40241D01*
X23382Y40271D01*
X23397Y40297D01*
X23415Y40321D01*
X23417Y40323D01*
X23421Y40327D01*
X23427Y40332D01*
X23436Y40340D01*
X23447Y40349D01*
X23460Y40358D01*
X23477Y40369D01*
X23495Y40380D01*
X23515Y40390D01*
X23540Y40401D01*
X23565Y40410D01*
X23593Y40419D01*
X23625Y40427D01*
X23658Y40432D01*
X23695Y40436D01*
X23734Y40438D01*
X23751D01*
X23769Y40436D01*
D02*
G37*
G36*
X21877D02*
X21901Y40434D01*
X21927Y40432D01*
X21955Y40427D01*
X21982Y40421D01*
X22008Y40412D01*
X22012Y40410D01*
X22019Y40408D01*
X22032Y40401D01*
X22047Y40393D01*
X22064Y40384D01*
X22082Y40373D01*
X22099Y40360D01*
X22116Y40345D01*
X22117Y40343D01*
X22123Y40338D01*
X22130Y40330D01*
X22140Y40319D01*
X22151Y40308D01*
X22162Y40293D01*
X22182Y40260D01*
X22184Y40258D01*
X22186Y40252D01*
X22192Y40243D01*
X22197Y40230D01*
X22203Y40215D01*
X22208Y40197D01*
X22216Y40178D01*
X22221Y40156D01*
Y40154D01*
X22223Y40151D01*
X22225Y40145D01*
X22227Y40136D01*
X22229Y40127D01*
X22230Y40114D01*
X22236Y40084D01*
X22242Y40049D01*
X22247Y40010D01*
X22249Y39965D01*
X22251Y39921D01*
Y39917D01*
Y39908D01*
Y39895D01*
X22249Y39877D01*
X22247Y39853D01*
X22245Y39827D01*
X22243Y39799D01*
X22240Y39767D01*
X22229Y39701D01*
X22212Y39634D01*
X22201Y39603D01*
X22188Y39571D01*
X22173Y39543D01*
X22156Y39517D01*
X22154Y39516D01*
X22153Y39512D01*
X22147Y39506D01*
X22138Y39497D01*
X22127Y39488D01*
X22114Y39477D01*
X22099Y39466D01*
X22080Y39454D01*
X22060Y39441D01*
X22036Y39430D01*
X22010Y39419D01*
X21980Y39410D01*
X21949Y39401D01*
X21914Y39395D01*
X21875Y39391D01*
X21834Y39390D01*
X21812D01*
X21801Y39391D01*
X21790D01*
X21760Y39395D01*
X21727Y39399D01*
X21692Y39406D01*
X21656Y39417D01*
X21625Y39430D01*
X21621Y39432D01*
X21612Y39438D01*
X21597Y39447D01*
X21580Y39460D01*
X21558Y39477D01*
X21538Y39497D01*
X21516Y39521D01*
X21495Y39549D01*
X21493Y39551D01*
X21490Y39560D01*
X21482Y39571D01*
X21475Y39590D01*
X21466Y39610D01*
X21456Y39636D01*
X21447Y39667D01*
X21440Y39701D01*
Y39703D01*
Y39704D01*
X21438Y39710D01*
X21436Y39717D01*
X21434Y39738D01*
X21431Y39765D01*
X21427Y39797D01*
X21423Y39834D01*
X21421Y39875D01*
X21419Y39917D01*
Y39921D01*
Y39930D01*
Y39945D01*
X21421Y39964D01*
X21423Y39988D01*
X21425Y40015D01*
X21429Y40045D01*
X21432Y40077D01*
X21445Y40143D01*
X21464Y40210D01*
X21475Y40241D01*
X21490Y40271D01*
X21505Y40297D01*
X21523Y40321D01*
X21525Y40323D01*
X21529Y40327D01*
X21534Y40332D01*
X21543Y40340D01*
X21555Y40349D01*
X21568Y40358D01*
X21584Y40369D01*
X21603Y40380D01*
X21623Y40390D01*
X21647Y40401D01*
X21673Y40410D01*
X21701Y40419D01*
X21732Y40427D01*
X21766Y40432D01*
X21803Y40436D01*
X21842Y40438D01*
X21858D01*
X21877Y40436D01*
D02*
G37*
G36*
X29900Y39185D02*
X29930Y39183D01*
X29967Y39179D01*
X30011Y39174D01*
X30061Y39168D01*
X30030Y38998D01*
X30028D01*
X30022Y39000D01*
X30013Y39002D01*
X30000Y39003D01*
X29974Y39005D01*
X29948Y39007D01*
X29935D01*
X29926Y39005D01*
X29909Y39002D01*
X29900Y38998D01*
X29893Y38994D01*
X29891Y38992D01*
X29883Y38985D01*
X29876Y38972D01*
X29869Y38953D01*
Y38950D01*
Y38946D01*
Y38940D01*
X29867Y38931D01*
Y38920D01*
Y38907D01*
Y38890D01*
X30002D01*
Y38685D01*
X29867D01*
Y38155D01*
X29583D01*
Y38685D01*
X29478D01*
Y38890D01*
X29583D01*
Y38922D01*
Y38924D01*
Y38929D01*
Y38939D01*
X29585Y38952D01*
Y38966D01*
X29587Y38983D01*
X29593Y39022D01*
Y39024D01*
X29594Y39031D01*
X29596Y39040D01*
X29600Y39053D01*
X29611Y39081D01*
X29619Y39096D01*
X29628Y39109D01*
X29630Y39111D01*
X29633Y39114D01*
X29639Y39122D01*
X29648Y39129D01*
X29659Y39139D01*
X29672Y39148D01*
X29687Y39157D01*
X29704Y39164D01*
X29706Y39166D01*
X29713Y39168D01*
X29724Y39172D01*
X29739Y39176D01*
X29759Y39179D01*
X29783Y39183D01*
X29811Y39187D01*
X29876D01*
X29900Y39185D01*
D02*
G37*
G36*
X35203Y38977D02*
X34922D01*
Y39170D01*
X35203D01*
Y38977D01*
D02*
G37*
G36*
X21727Y38977D02*
X21445D01*
Y39170D01*
X21727D01*
Y38977D01*
D02*
G37*
G36*
X36157Y38155D02*
X35892D01*
Y38263D01*
X35890Y38259D01*
X35883Y38252D01*
X35872Y38240D01*
X35859Y38226D01*
X35842Y38211D01*
X35825Y38194D01*
X35809Y38181D01*
X35790Y38170D01*
X35788Y38168D01*
X35779Y38165D01*
X35766Y38161D01*
X35751Y38155D01*
X35731Y38148D01*
X35707Y38144D01*
X35683Y38140D01*
X35655Y38139D01*
X35640D01*
X35631Y38140D01*
X35618Y38142D01*
X35603Y38144D01*
X35570Y38153D01*
X35533Y38166D01*
X35514Y38176D01*
X35496Y38187D01*
X35475Y38200D01*
X35459Y38215D01*
X35442Y38231D01*
X35425Y38252D01*
Y38253D01*
X35422Y38257D01*
X35418Y38263D01*
X35412Y38272D01*
X35407Y38283D01*
X35401Y38296D01*
X35394Y38313D01*
X35386Y38329D01*
X35379Y38348D01*
X35372Y38370D01*
X35361Y38416D01*
X35351Y38470D01*
X35348Y38529D01*
Y38531D01*
Y38537D01*
Y38548D01*
X35349Y38559D01*
Y38576D01*
X35353Y38592D01*
X35355Y38613D01*
X35359Y38633D01*
X35370Y38677D01*
X35385Y38726D01*
X35407Y38770D01*
X35420Y38790D01*
X35435Y38809D01*
X35436Y38811D01*
X35438Y38813D01*
X35444Y38818D01*
X35451Y38824D01*
X35470Y38840D01*
X35496Y38859D01*
X35527Y38876D01*
X35564Y38892D01*
X35609Y38903D01*
X35633Y38905D01*
X35657Y38907D01*
X35668D01*
X35681Y38905D01*
X35696D01*
X35714Y38902D01*
X35735Y38898D01*
X35755Y38892D01*
X35775Y38885D01*
X35777Y38883D01*
X35785Y38881D01*
X35794Y38876D01*
X35807Y38868D01*
X35822Y38859D01*
X35838Y38848D01*
X35855Y38833D01*
X35872Y38818D01*
Y39170D01*
X36157D01*
Y38155D01*
D02*
G37*
G36*
X32296D02*
X32031D01*
Y38263D01*
X32029Y38259D01*
X32022Y38252D01*
X32011Y38240D01*
X31998Y38226D01*
X31981Y38211D01*
X31965Y38194D01*
X31948Y38181D01*
X31929Y38170D01*
X31928Y38168D01*
X31918Y38165D01*
X31905Y38161D01*
X31891Y38155D01*
X31870Y38148D01*
X31846Y38144D01*
X31822Y38140D01*
X31794Y38139D01*
X31779D01*
X31770Y38140D01*
X31757Y38142D01*
X31742Y38144D01*
X31709Y38153D01*
X31672Y38166D01*
X31654Y38176D01*
X31635Y38187D01*
X31615Y38200D01*
X31598Y38215D01*
X31581Y38231D01*
X31565Y38252D01*
Y38253D01*
X31561Y38257D01*
X31557Y38263D01*
X31552Y38272D01*
X31546Y38283D01*
X31541Y38296D01*
X31533Y38313D01*
X31526Y38329D01*
X31518Y38348D01*
X31511Y38370D01*
X31500Y38416D01*
X31491Y38470D01*
X31487Y38529D01*
Y38531D01*
Y38537D01*
Y38548D01*
X31489Y38559D01*
Y38576D01*
X31492Y38592D01*
X31494Y38613D01*
X31498Y38633D01*
X31509Y38677D01*
X31524Y38726D01*
X31546Y38770D01*
X31559Y38790D01*
X31574Y38809D01*
X31576Y38811D01*
X31578Y38813D01*
X31583Y38818D01*
X31591Y38824D01*
X31609Y38840D01*
X31635Y38859D01*
X31666Y38876D01*
X31704Y38892D01*
X31748Y38903D01*
X31772Y38905D01*
X31796Y38907D01*
X31807D01*
X31820Y38905D01*
X31835D01*
X31854Y38902D01*
X31874Y38898D01*
X31894Y38892D01*
X31915Y38885D01*
X31916Y38883D01*
X31924Y38881D01*
X31933Y38876D01*
X31946Y38868D01*
X31961Y38859D01*
X31978Y38848D01*
X31994Y38833D01*
X32011Y38818D01*
Y39170D01*
X32296D01*
Y38155D01*
D02*
G37*
G36*
X37683Y39185D02*
X37699D01*
X37718Y39183D01*
X37738Y39181D01*
X37760Y39177D01*
X37808Y39168D01*
X37855Y39155D01*
X37901Y39137D01*
X37920Y39126D01*
X37938Y39113D01*
X37940D01*
X37942Y39109D01*
X37953Y39100D01*
X37966Y39083D01*
X37982Y39061D01*
X37999Y39035D01*
X38014Y39003D01*
X38023Y38966D01*
X38025Y38946D01*
X38027Y38926D01*
Y38922D01*
Y38914D01*
X38025Y38902D01*
X38023Y38887D01*
X38018Y38868D01*
X38012Y38848D01*
X38003Y38827D01*
X37990Y38807D01*
X37988Y38805D01*
X37982Y38798D01*
X37975Y38789D01*
X37964Y38776D01*
X37949Y38763D01*
X37931Y38746D01*
X37908Y38729D01*
X37882Y38715D01*
X37884D01*
X37892Y38713D01*
X37903Y38709D01*
X37916Y38705D01*
X37944Y38694D01*
X37958Y38689D01*
X37971Y38681D01*
X37973Y38679D01*
X37979Y38676D01*
X37988Y38668D01*
X37999Y38659D01*
X38012Y38648D01*
X38025Y38633D01*
X38038Y38616D01*
X38049Y38598D01*
X38051Y38596D01*
X38055Y38589D01*
X38058Y38577D01*
X38064Y38565D01*
X38070Y38546D01*
X38075Y38526D01*
X38077Y38503D01*
X38079Y38477D01*
Y38476D01*
Y38474D01*
Y38463D01*
X38077Y38446D01*
X38073Y38424D01*
X38068Y38396D01*
X38058Y38368D01*
X38047Y38339D01*
X38031Y38307D01*
X38029Y38303D01*
X38021Y38294D01*
X38012Y38279D01*
X37997Y38261D01*
X37977Y38240D01*
X37955Y38220D01*
X37929Y38200D01*
X37897Y38181D01*
X37895D01*
X37894Y38179D01*
X37888Y38178D01*
X37881Y38174D01*
X37873Y38172D01*
X37862Y38168D01*
X37836Y38161D01*
X37803Y38152D01*
X37764Y38146D01*
X37718Y38140D01*
X37668Y38139D01*
X37645D01*
X37634Y38140D01*
X37620D01*
X37590Y38142D01*
X37555Y38146D01*
X37518Y38152D01*
X37483Y38159D01*
X37449Y38170D01*
X37446Y38172D01*
X37436Y38176D01*
X37421Y38183D01*
X37403Y38194D01*
X37383Y38207D01*
X37360Y38224D01*
X37338Y38242D01*
X37318Y38265D01*
X37316Y38268D01*
X37308Y38276D01*
X37299Y38289D01*
X37288Y38307D01*
X37275Y38331D01*
X37264Y38357D01*
X37251Y38389D01*
X37240Y38422D01*
X37521Y38461D01*
Y38457D01*
X37525Y38448D01*
X37529Y38433D01*
X37534Y38415D01*
X37549Y38376D01*
X37560Y38357D01*
X37571Y38342D01*
X37573Y38340D01*
X37577Y38337D01*
X37586Y38333D01*
X37596Y38328D01*
X37608Y38320D01*
X37625Y38316D01*
X37642Y38313D01*
X37662Y38311D01*
X37671D01*
X37683Y38313D01*
X37695Y38316D01*
X37710Y38320D01*
X37727Y38328D01*
X37742Y38339D01*
X37757Y38352D01*
X37758Y38353D01*
X37762Y38359D01*
X37770Y38368D01*
X37777Y38381D01*
X37783Y38396D01*
X37790Y38416D01*
X37794Y38439D01*
X37795Y38463D01*
Y38466D01*
Y38474D01*
X37794Y38487D01*
X37792Y38503D01*
X37786Y38520D01*
X37781Y38539D01*
X37771Y38555D01*
X37758Y38572D01*
X37757Y38574D01*
X37751Y38577D01*
X37744Y38585D01*
X37733Y38592D01*
X37718Y38598D01*
X37701Y38605D01*
X37681Y38609D01*
X37658Y38611D01*
X37645D01*
X37634Y38609D01*
X37621Y38607D01*
X37607Y38603D01*
X37588Y38600D01*
X37568Y38594D01*
X37581Y38794D01*
X37594D01*
X37607Y38792D01*
X37627D01*
X37638Y38794D01*
X37651Y38796D01*
X37664Y38800D01*
X37681Y38807D01*
X37695Y38814D01*
X37710Y38826D01*
X37712Y38827D01*
X37716Y38831D01*
X37723Y38839D01*
X37731Y38850D01*
X37736Y38861D01*
X37744Y38876D01*
X37747Y38892D01*
X37749Y38909D01*
Y38911D01*
Y38916D01*
X37747Y38926D01*
X37745Y38935D01*
X37742Y38948D01*
X37738Y38959D01*
X37731Y38972D01*
X37721Y38983D01*
X37720Y38985D01*
X37716Y38987D01*
X37710Y38992D01*
X37701Y38998D01*
X37690Y39002D01*
X37677Y39007D01*
X37662Y39009D01*
X37644Y39011D01*
X37636D01*
X37627Y39009D01*
X37614Y39007D01*
X37601Y39003D01*
X37588Y38998D01*
X37575Y38990D01*
X37562Y38979D01*
X37560Y38977D01*
X37557Y38974D01*
X37553Y38966D01*
X37546Y38955D01*
X37540Y38940D01*
X37533Y38924D01*
X37527Y38902D01*
X37521Y38876D01*
X37255Y38922D01*
Y38924D01*
X37257Y38927D01*
X37258Y38935D01*
X37260Y38942D01*
X37266Y38953D01*
X37270Y38966D01*
X37283Y38994D01*
X37299Y39026D01*
X37321Y39059D01*
X37347Y39090D01*
X37381Y39118D01*
X37383D01*
X37384Y39122D01*
X37390Y39124D01*
X37399Y39129D01*
X37408Y39135D01*
X37420Y39140D01*
X37434Y39146D01*
X37451Y39153D01*
X37468Y39159D01*
X37488Y39164D01*
X37510Y39170D01*
X37534Y39176D01*
X37560Y39181D01*
X37588Y39183D01*
X37649Y39187D01*
X37668D01*
X37683Y39185D01*
D02*
G37*
G36*
X28759Y38905D02*
X28780Y38903D01*
X28808Y38898D01*
X28837Y38890D01*
X28867Y38877D01*
X28896Y38861D01*
X28924Y38837D01*
X28928Y38833D01*
X28935Y38824D01*
X28945Y38807D01*
X28958Y38783D01*
X28970Y38752D01*
X28980Y38715D01*
X28987Y38668D01*
X28991Y38644D01*
Y38616D01*
Y38155D01*
X28708D01*
Y38574D01*
Y38576D01*
Y38581D01*
X28706Y38590D01*
Y38602D01*
X28698Y38626D01*
X28695Y38639D01*
X28687Y38648D01*
X28685Y38650D01*
X28682Y38653D01*
X28676Y38661D01*
X28669Y38668D01*
X28658Y38674D01*
X28646Y38681D01*
X28632Y38685D01*
X28617Y38687D01*
X28609D01*
X28600Y38685D01*
X28589Y38683D01*
X28576Y38677D01*
X28563Y38672D01*
X28548Y38663D01*
X28537Y38650D01*
X28535Y38648D01*
X28533Y38642D01*
X28528Y38635D01*
X28522Y38622D01*
X28517Y38607D01*
X28513Y38587D01*
X28509Y38563D01*
X28508Y38535D01*
Y38155D01*
X28224D01*
Y38559D01*
Y38561D01*
Y38566D01*
Y38576D01*
Y38585D01*
X28222Y38607D01*
X28221Y38616D01*
X28219Y38624D01*
Y38626D01*
X28217Y38629D01*
X28211Y38640D01*
X28202Y38653D01*
X28187Y38668D01*
X28185D01*
X28184Y38672D01*
X28172Y38677D01*
X28156Y38683D01*
X28135Y38687D01*
X28128D01*
X28119Y38685D01*
X28106Y38683D01*
X28093Y38677D01*
X28080Y38672D01*
X28067Y38663D01*
X28054Y38650D01*
X28052Y38648D01*
X28050Y38642D01*
X28045Y38633D01*
X28039Y38620D01*
X28034Y38603D01*
X28030Y38583D01*
X28026Y38559D01*
X28024Y38529D01*
Y38155D01*
X27741D01*
Y38890D01*
X28004D01*
Y38781D01*
X28006Y38785D01*
X28013Y38792D01*
X28024Y38805D01*
X28039Y38818D01*
X28058Y38835D01*
X28076Y38852D01*
X28096Y38864D01*
X28119Y38877D01*
X28121Y38879D01*
X28130Y38883D01*
X28141Y38887D01*
X28158Y38892D01*
X28178Y38898D01*
X28202Y38903D01*
X28230Y38905D01*
X28259Y38907D01*
X28274D01*
X28289Y38905D01*
X28309Y38903D01*
X28332Y38900D01*
X28356Y38894D01*
X28378Y38887D01*
X28398Y38876D01*
X28400Y38874D01*
X28408Y38870D01*
X28417Y38863D01*
X28428Y38852D01*
X28441Y38839D01*
X28456Y38822D01*
X28469Y38803D01*
X28482Y38781D01*
X28485Y38785D01*
X28493Y38792D01*
X28506Y38805D01*
X28522Y38820D01*
X28541Y38837D01*
X28561Y38853D01*
X28582Y38868D01*
X28602Y38879D01*
X28604Y38881D01*
X28611Y38883D01*
X28624Y38889D01*
X28641Y38894D01*
X28659Y38898D01*
X28683Y38903D01*
X28709Y38905D01*
X28739Y38907D01*
X28750D01*
X28759Y38905D01*
D02*
G37*
G36*
X34751D02*
X34768Y38902D01*
X34788Y38898D01*
X34811Y38890D01*
X34837Y38881D01*
X34864Y38868D01*
X34775Y38666D01*
X34774Y38668D01*
X34768Y38670D01*
X34759Y38674D01*
X34748Y38677D01*
X34722Y38685D01*
X34709Y38689D01*
X34688D01*
X34679Y38687D01*
X34666Y38683D01*
X34651Y38677D01*
X34638Y38668D01*
X34624Y38657D01*
X34611Y38642D01*
X34609Y38639D01*
X34603Y38629D01*
X34601Y38622D01*
X34598Y38613D01*
X34594Y38602D01*
X34590Y38589D01*
X34585Y38572D01*
X34581Y38555D01*
X34577Y38535D01*
X34575Y38513D01*
X34572Y38489D01*
X34570Y38463D01*
X34568Y38433D01*
Y38402D01*
Y38155D01*
X34285D01*
Y38890D01*
X34548D01*
Y38770D01*
X34550Y38774D01*
X34555Y38783D01*
X34562Y38796D01*
X34572Y38813D01*
X34598Y38848D01*
X34611Y38864D01*
X34625Y38877D01*
X34627Y38879D01*
X34633Y38883D01*
X34642Y38887D01*
X34653Y38892D01*
X34668Y38898D01*
X34687Y38903D01*
X34705Y38905D01*
X34727Y38907D01*
X34738D01*
X34751Y38905D01*
D02*
G37*
G36*
X26271Y38905D02*
X26286D01*
X26302Y38903D01*
X26323Y38902D01*
X26343Y38900D01*
X26387Y38890D01*
X26432Y38879D01*
X26476Y38864D01*
X26497Y38853D01*
X26515Y38842D01*
X26517D01*
X26519Y38839D01*
X26530Y38831D01*
X26547Y38814D01*
X26567Y38794D01*
X26589Y38768D01*
X26611Y38735D01*
X26632Y38698D01*
X26648Y38653D01*
X26384Y38618D01*
Y38620D01*
X26382Y38626D01*
X26378Y38635D01*
X26373Y38644D01*
X26360Y38668D01*
X26349Y38679D01*
X26337Y38689D01*
X26336Y38690D01*
X26332Y38692D01*
X26324Y38696D01*
X26313Y38702D01*
X26300Y38707D01*
X26286Y38711D01*
X26269Y38713D01*
X26249Y38715D01*
X26237D01*
X26224Y38713D01*
X26208Y38709D01*
X26189Y38702D01*
X26171Y38694D01*
X26152Y38681D01*
X26136Y38665D01*
X26134Y38663D01*
X26128Y38655D01*
X26123Y38644D01*
X26115Y38627D01*
X26106Y38605D01*
X26100Y38579D01*
X26095Y38548D01*
X26093Y38513D01*
Y38511D01*
Y38509D01*
Y38498D01*
X26095Y38481D01*
X26099Y38461D01*
X26104Y38439D01*
X26111Y38416D01*
X26121Y38394D01*
X26136Y38376D01*
X26137Y38374D01*
X26143Y38368D01*
X26152Y38361D01*
X26165Y38353D01*
X26182Y38344D01*
X26200Y38337D01*
X26221Y38331D01*
X26245Y38329D01*
X26254D01*
X26265Y38331D01*
X26278Y38333D01*
X26291Y38337D01*
X26308Y38340D01*
X26323Y38348D01*
X26337Y38357D01*
X26339Y38359D01*
X26343Y38363D01*
X26350Y38368D01*
X26358Y38379D01*
X26367Y38390D01*
X26378Y38405D01*
X26387Y38424D01*
X26395Y38444D01*
X26663Y38415D01*
X26661Y38411D01*
X26660Y38400D01*
X26654Y38385D01*
X26647Y38365D01*
X26636Y38340D01*
X26623Y38316D01*
X26608Y38290D01*
X26589Y38266D01*
X26587Y38265D01*
X26580Y38257D01*
X26569Y38246D01*
X26554Y38231D01*
X26536Y38216D01*
X26513Y38202D01*
X26487Y38185D01*
X26460Y38172D01*
X26456Y38170D01*
X26445Y38166D01*
X26428Y38161D01*
X26406Y38155D01*
X26376Y38150D01*
X26343Y38144D01*
X26304Y38140D01*
X26261Y38139D01*
X26243D01*
X26221Y38140D01*
X26193D01*
X26162Y38144D01*
X26130Y38148D01*
X26097Y38152D01*
X26065Y38159D01*
X26062Y38161D01*
X26052Y38163D01*
X26037Y38168D01*
X26019Y38176D01*
X25999Y38187D01*
X25976Y38198D01*
X25954Y38213D01*
X25932Y38229D01*
X25930Y38231D01*
X25923Y38239D01*
X25913Y38248D01*
X25900Y38263D01*
X25886Y38279D01*
X25873Y38300D01*
X25858Y38320D01*
X25845Y38344D01*
X25843Y38348D01*
X25839Y38357D01*
X25836Y38370D01*
X25830Y38390D01*
X25823Y38416D01*
X25819Y38446D01*
X25815Y38479D01*
X25813Y38518D01*
Y38520D01*
Y38524D01*
Y38529D01*
Y38537D01*
X25815Y38559D01*
X25819Y38585D01*
X25823Y38615D01*
X25828Y38646D01*
X25837Y38677D01*
X25850Y38707D01*
X25852Y38709D01*
X25856Y38716D01*
X25862Y38727D01*
X25871Y38740D01*
X25882Y38755D01*
X25897Y38772D01*
X25912Y38790D01*
X25928Y38807D01*
X25930Y38809D01*
X25937Y38814D01*
X25947Y38822D01*
X25960Y38831D01*
X25974Y38842D01*
X25993Y38853D01*
X26012Y38863D01*
X26030Y38872D01*
X26032D01*
X26034Y38874D01*
X26045Y38877D01*
X26063Y38883D01*
X26087Y38890D01*
X26117Y38896D01*
X26154Y38902D01*
X26195Y38905D01*
X26241Y38907D01*
X26258D01*
X26271Y38905D01*
D02*
G37*
G36*
X32940Y38155D02*
X32690D01*
X32385Y38890D01*
X32677D01*
X32820Y38424D01*
X32968Y38890D01*
X33253D01*
X32940Y38155D01*
D02*
G37*
G36*
X24258Y38155D02*
X23995D01*
Y38274D01*
X23993Y38270D01*
X23986Y38263D01*
X23973Y38248D01*
X23958Y38233D01*
X23940Y38216D01*
X23919Y38198D01*
X23897Y38181D01*
X23875Y38168D01*
X23873Y38166D01*
X23864Y38165D01*
X23851Y38159D01*
X23834Y38153D01*
X23814Y38148D01*
X23788Y38144D01*
X23760Y38140D01*
X23728Y38139D01*
X23717D01*
X23710Y38140D01*
X23688Y38142D01*
X23662Y38148D01*
X23632Y38155D01*
X23603Y38168D01*
X23573Y38185D01*
X23545Y38207D01*
X23543Y38211D01*
X23536Y38220D01*
X23525Y38237D01*
X23514Y38261D01*
X23501Y38290D01*
X23491Y38327D01*
X23484Y38372D01*
X23480Y38422D01*
Y38890D01*
X23764D01*
Y38485D01*
Y38481D01*
Y38474D01*
X23765Y38461D01*
X23767Y38448D01*
X23775Y38415D01*
X23780Y38400D01*
X23788Y38387D01*
X23790Y38385D01*
X23793Y38383D01*
X23799Y38377D01*
X23806Y38374D01*
X23817Y38368D01*
X23828Y38363D01*
X23843Y38361D01*
X23860Y38359D01*
X23869D01*
X23878Y38361D01*
X23890Y38365D01*
X23902Y38368D01*
X23917Y38374D01*
X23930Y38383D01*
X23943Y38396D01*
X23945Y38398D01*
X23949Y38403D01*
X23954Y38415D01*
X23960Y38427D01*
X23965Y38448D01*
X23971Y38472D01*
X23975Y38502D01*
X23977Y38537D01*
Y38890D01*
X24258D01*
Y38155D01*
D02*
G37*
G36*
X36722Y39185D02*
X36736D01*
X36770Y39179D01*
X36809Y39174D01*
X36849Y39164D01*
X36888Y39151D01*
X36925Y39133D01*
X36927D01*
X36929Y39131D01*
X36940Y39124D01*
X36957Y39111D01*
X36979Y39092D01*
X37003Y39070D01*
X37027Y39040D01*
X37051Y39007D01*
X37073Y38966D01*
Y38964D01*
X37075Y38961D01*
X37079Y38955D01*
X37083Y38946D01*
X37086Y38935D01*
X37092Y38920D01*
X37096Y38905D01*
X37101Y38887D01*
X37107Y38866D01*
X37112Y38844D01*
X37116Y38818D01*
X37120Y38792D01*
X37123Y38763D01*
X37127Y38733D01*
X37129Y38666D01*
Y38663D01*
Y38655D01*
Y38640D01*
X37127Y38622D01*
X37125Y38600D01*
X37123Y38574D01*
X37120Y38544D01*
X37114Y38513D01*
X37101Y38448D01*
X37092Y38415D01*
X37079Y38381D01*
X37066Y38350D01*
X37051Y38318D01*
X37033Y38290D01*
X37012Y38265D01*
X37010Y38263D01*
X37007Y38259D01*
X37001Y38253D01*
X36992Y38244D01*
X36979Y38235D01*
X36966Y38226D01*
X36949Y38213D01*
X36929Y38202D01*
X36909Y38190D01*
X36884Y38179D01*
X36859Y38168D01*
X36829Y38159D01*
X36799Y38150D01*
X36766Y38144D01*
X36731Y38140D01*
X36694Y38139D01*
X36673D01*
X36651Y38140D01*
X36623Y38142D01*
X36594Y38146D01*
X36560Y38150D01*
X36529Y38157D01*
X36501Y38166D01*
X36497Y38168D01*
X36490Y38172D01*
X36477Y38178D01*
X36460Y38187D01*
X36444Y38198D01*
X36423Y38213D01*
X36405Y38229D01*
X36386Y38248D01*
X36385Y38250D01*
X36379Y38257D01*
X36370Y38270D01*
X36360Y38285D01*
X36349Y38305D01*
X36336Y38328D01*
X36325Y38353D01*
X36316Y38383D01*
X36596Y38420D01*
Y38418D01*
X36597Y38411D01*
X36599Y38400D01*
X36603Y38387D01*
X36614Y38361D01*
X36622Y38348D01*
X36631Y38337D01*
X36633Y38335D01*
X36636Y38333D01*
X36642Y38329D01*
X36649Y38326D01*
X36670Y38316D01*
X36683Y38315D01*
X36696Y38313D01*
X36699D01*
X36707Y38315D01*
X36720Y38316D01*
X36734Y38322D01*
X36751Y38329D01*
X36770Y38340D01*
X36786Y38357D01*
X36801Y38379D01*
X36803Y38381D01*
X36807Y38390D01*
X36810Y38405D01*
X36814Y38415D01*
X36818Y38426D01*
X36820Y38439D01*
X36823Y38455D01*
X36827Y38472D01*
X36831Y38492D01*
X36834Y38515D01*
X36838Y38539D01*
X36840Y38565D01*
X36844Y38594D01*
X36842Y38592D01*
X36834Y38585D01*
X36825Y38576D01*
X36810Y38565D01*
X36796Y38553D01*
X36777Y38540D01*
X36759Y38529D01*
X36738Y38518D01*
X36736Y38516D01*
X36729Y38515D01*
X36718Y38511D01*
X36703Y38507D01*
X36686Y38502D01*
X36664Y38498D01*
X36642Y38496D01*
X36616Y38494D01*
X36603D01*
X36594Y38496D01*
X36583Y38498D01*
X36568Y38500D01*
X36536Y38507D01*
X36501Y38518D01*
X36462Y38535D01*
X36442Y38546D01*
X36423Y38559D01*
X36405Y38574D01*
X36386Y38590D01*
X36385Y38592D01*
X36383Y38594D01*
X36377Y38600D01*
X36372Y38607D01*
X36364Y38618D01*
X36357Y38629D01*
X36349Y38642D01*
X36340Y38657D01*
X36323Y38692D01*
X36309Y38735D01*
X36297Y38781D01*
X36296Y38807D01*
X36294Y38835D01*
Y38837D01*
Y38839D01*
Y38844D01*
Y38852D01*
X36296Y38870D01*
X36299Y38896D01*
X36305Y38924D01*
X36314Y38955D01*
X36325Y38987D01*
X36340Y39018D01*
Y39020D01*
X36342Y39022D01*
X36349Y39031D01*
X36360Y39046D01*
X36375Y39064D01*
X36394Y39085D01*
X36416Y39107D01*
X36442Y39127D01*
X36472Y39144D01*
X36473D01*
X36475Y39146D01*
X36486Y39151D01*
X36505Y39157D01*
X36529Y39166D01*
X36560Y39174D01*
X36596Y39179D01*
X36636Y39185D01*
X36683Y39187D01*
X36709D01*
X36722Y39185D01*
D02*
G37*
G36*
X35203Y38155D02*
X34922D01*
Y38890D01*
X35203D01*
Y38155D01*
D02*
G37*
G36*
X33776Y38905D02*
X33807Y38903D01*
X33842Y38902D01*
X33876Y38898D01*
X33905Y38892D01*
X33909D01*
X33918Y38889D01*
X33933Y38885D01*
X33951Y38879D01*
X33972Y38872D01*
X33992Y38861D01*
X34014Y38848D01*
X34035Y38833D01*
X34037Y38831D01*
X34040Y38827D01*
X34048Y38820D01*
X34055Y38811D01*
X34064Y38798D01*
X34074Y38783D01*
X34083Y38764D01*
X34090Y38744D01*
X34092Y38742D01*
X34094Y38735D01*
X34098Y38724D01*
X34101Y38709D01*
X34105Y38692D01*
X34109Y38674D01*
X34113Y38655D01*
Y38635D01*
Y38311D01*
Y38309D01*
Y38302D01*
Y38292D01*
Y38281D01*
X34114Y38255D01*
X34116Y38242D01*
X34118Y38229D01*
Y38228D01*
X34120Y38224D01*
X34122Y38218D01*
X34125Y38209D01*
X34129Y38198D01*
X34133Y38185D01*
X34148Y38155D01*
X33883D01*
Y38157D01*
X33881Y38161D01*
X33874Y38172D01*
X33866Y38185D01*
X33861Y38198D01*
Y38202D01*
X33859Y38209D01*
X33855Y38224D01*
X33851Y38244D01*
X33850Y38242D01*
X33842Y38235D01*
X33831Y38226D01*
X33816Y38215D01*
X33800Y38202D01*
X33781Y38190D01*
X33763Y38178D01*
X33742Y38168D01*
X33738Y38166D01*
X33729Y38165D01*
X33713Y38159D01*
X33692Y38153D01*
X33666Y38148D01*
X33637Y38144D01*
X33603Y38140D01*
X33568Y38139D01*
X33555D01*
X33546Y38140D01*
X33535D01*
X33522Y38142D01*
X33492Y38146D01*
X33461Y38153D01*
X33427Y38165D01*
X33394Y38178D01*
X33366Y38198D01*
X33363Y38202D01*
X33355Y38209D01*
X33346Y38222D01*
X33333Y38240D01*
X33320Y38263D01*
X33311Y38289D01*
X33303Y38316D01*
X33300Y38350D01*
Y38352D01*
Y38353D01*
Y38365D01*
X33301Y38379D01*
X33305Y38398D01*
X33311Y38420D01*
X33320Y38442D01*
X33331Y38466D01*
X33348Y38487D01*
X33350Y38489D01*
X33357Y38496D01*
X33370Y38505D01*
X33389Y38516D01*
X33414Y38529D01*
X33446Y38542D01*
X33483Y38555D01*
X33505Y38561D01*
X33529Y38566D01*
X33531D01*
X33537Y38568D01*
X33544Y38570D01*
X33555Y38572D01*
X33568Y38574D01*
X33583Y38577D01*
X33614Y38583D01*
X33650Y38590D01*
X33683Y38598D01*
X33713Y38605D01*
X33726Y38609D01*
X33735Y38611D01*
X33737D01*
X33744Y38613D01*
X33753Y38616D01*
X33766Y38620D01*
X33781Y38626D01*
X33798Y38631D01*
X33837Y38646D01*
Y38648D01*
Y38653D01*
X33835Y38663D01*
Y38674D01*
X33827Y38696D01*
X33822Y38707D01*
X33814Y38716D01*
X33813Y38718D01*
X33811Y38720D01*
X33805Y38724D01*
X33796Y38727D01*
X33787Y38731D01*
X33774Y38735D01*
X33757Y38739D01*
X33727D01*
X33714Y38737D01*
X33700D01*
X33666Y38729D01*
X33650Y38724D01*
X33635Y38716D01*
X33633D01*
X33631Y38713D01*
X33626Y38709D01*
X33620Y38702D01*
X33613Y38692D01*
X33605Y38681D01*
X33598Y38668D01*
X33592Y38652D01*
X33322Y38679D01*
Y38683D01*
X33326Y38690D01*
X33327Y38703D01*
X33333Y38720D01*
X33339Y38737D01*
X33346Y38755D01*
X33355Y38774D01*
X33364Y38790D01*
X33366Y38792D01*
X33370Y38798D01*
X33377Y38805D01*
X33387Y38814D01*
X33398Y38826D01*
X33413Y38837D01*
X33429Y38850D01*
X33448Y38861D01*
X33450Y38863D01*
X33455Y38864D01*
X33464Y38868D01*
X33476Y38874D01*
X33490Y38879D01*
X33509Y38885D01*
X33529Y38890D01*
X33553Y38894D01*
X33557D01*
X33564Y38896D01*
X33579Y38898D01*
X33598Y38902D01*
X33620Y38903D01*
X33644Y38905D01*
X33672Y38907D01*
X33746D01*
X33776Y38905D01*
D02*
G37*
G36*
X31342Y38155D02*
X31059D01*
Y39170D01*
X31342D01*
Y38155D01*
D02*
G37*
G36*
X25676Y38155D02*
X25375D01*
Y38439D01*
X25676D01*
Y38155D01*
D02*
G37*
G36*
X22817Y38796D02*
X22819Y38798D01*
X22827Y38805D01*
X22838Y38816D01*
X22853Y38829D01*
X22871Y38842D01*
X22890Y38857D01*
X22910Y38870D01*
X22930Y38881D01*
X22932Y38883D01*
X22941Y38885D01*
X22953Y38889D01*
X22969Y38894D01*
X22988Y38900D01*
X23012Y38903D01*
X23038Y38905D01*
X23066Y38907D01*
X23077D01*
X23084Y38905D01*
X23106Y38903D01*
X23132Y38898D01*
X23160Y38890D01*
X23191Y38877D01*
X23219Y38861D01*
X23247Y38837D01*
X23251Y38833D01*
X23258Y38824D01*
X23267Y38807D01*
X23280Y38783D01*
X23293Y38753D01*
X23303Y38716D01*
X23310Y38672D01*
X23314Y38622D01*
Y38155D01*
X23030D01*
Y38559D01*
Y38563D01*
Y38570D01*
X23028Y38583D01*
X23027Y38598D01*
X23019Y38629D01*
X23014Y38644D01*
X23004Y38657D01*
X23003Y38659D01*
X22999Y38663D01*
X22993Y38666D01*
X22986Y38672D01*
X22975Y38677D01*
X22964Y38683D01*
X22949Y38685D01*
X22932Y38687D01*
X22923D01*
X22914Y38685D01*
X22903Y38681D01*
X22890Y38677D01*
X22875Y38670D01*
X22862Y38661D01*
X22849Y38648D01*
X22847Y38646D01*
X22843Y38640D01*
X22840Y38629D01*
X22834Y38616D01*
X22827Y38596D01*
X22823Y38572D01*
X22819Y38542D01*
X22817Y38507D01*
Y38155D01*
X22536D01*
Y39170D01*
X22817D01*
Y38796D01*
D02*
G37*
G36*
X21727Y38155D02*
X21445D01*
Y38890D01*
X21727D01*
Y38155D01*
D02*
G37*
G36*
X30526Y38905D02*
X30543Y38903D01*
X30565Y38900D01*
X30589Y38896D01*
X30613Y38890D01*
X30639Y38885D01*
X30667Y38876D01*
X30694Y38864D01*
X30722Y38853D01*
X30750Y38837D01*
X30776Y38820D01*
X30800Y38800D01*
X30822Y38777D01*
X30824Y38776D01*
X30826Y38774D01*
X30831Y38766D01*
X30837Y38759D01*
X30844Y38750D01*
X30852Y38737D01*
X30859Y38724D01*
X30868Y38707D01*
X30885Y38670D01*
X30900Y38627D01*
X30911Y38577D01*
X30913Y38552D01*
X30915Y38524D01*
Y38522D01*
Y38516D01*
Y38507D01*
X30913Y38496D01*
X30911Y38481D01*
X30909Y38465D01*
X30905Y38446D01*
X30900Y38426D01*
X30887Y38381D01*
X30878Y38359D01*
X30867Y38335D01*
X30854Y38313D01*
X30839Y38289D01*
X30822Y38266D01*
X30802Y38246D01*
X30800Y38244D01*
X30796Y38242D01*
X30791Y38237D01*
X30781Y38229D01*
X30770Y38222D01*
X30755Y38213D01*
X30739Y38202D01*
X30720Y38192D01*
X30700Y38183D01*
X30676Y38172D01*
X30650Y38163D01*
X30622Y38155D01*
X30593Y38148D01*
X30559Y38144D01*
X30526Y38140D01*
X30489Y38139D01*
X30472D01*
X30459Y38140D01*
X30444D01*
X30428Y38144D01*
X30407Y38146D01*
X30387Y38150D01*
X30341Y38161D01*
X30293Y38176D01*
X30246Y38198D01*
X30222Y38213D01*
X30202Y38228D01*
X30200Y38229D01*
X30196Y38233D01*
X30189Y38239D01*
X30181Y38248D01*
X30170Y38259D01*
X30159Y38272D01*
X30148Y38289D01*
X30135Y38305D01*
X30122Y38326D01*
X30111Y38348D01*
X30100Y38372D01*
X30089Y38398D01*
X30081Y38426D01*
X30074Y38455D01*
X30070Y38487D01*
X30069Y38520D01*
Y38522D01*
Y38527D01*
Y38537D01*
X30070Y38548D01*
X30072Y38563D01*
X30074Y38579D01*
X30078Y38598D01*
X30083Y38618D01*
X30096Y38663D01*
X30106Y38685D01*
X30117Y38709D01*
X30130Y38731D01*
X30144Y38755D01*
X30161Y38777D01*
X30181Y38798D01*
X30183Y38800D01*
X30187Y38803D01*
X30193Y38807D01*
X30202Y38814D01*
X30213Y38824D01*
X30228Y38833D01*
X30244Y38842D01*
X30263Y38853D01*
X30283Y38863D01*
X30306Y38872D01*
X30331Y38881D01*
X30359Y38890D01*
X30389Y38898D01*
X30420Y38902D01*
X30454Y38905D01*
X30489Y38907D01*
X30509D01*
X30526Y38905D01*
D02*
G37*
G36*
X29213Y38139D02*
X29072D01*
X29328Y39187D01*
X29470D01*
X29213Y38139D01*
D02*
G37*
G36*
X27215Y38905D02*
X27232Y38903D01*
X27254Y38900D01*
X27278Y38896D01*
X27302Y38890D01*
X27328Y38885D01*
X27356Y38876D01*
X27384Y38864D01*
X27411Y38853D01*
X27439Y38837D01*
X27465Y38820D01*
X27489Y38800D01*
X27511Y38777D01*
X27513Y38776D01*
X27515Y38774D01*
X27521Y38766D01*
X27526Y38759D01*
X27534Y38750D01*
X27541Y38737D01*
X27548Y38724D01*
X27558Y38707D01*
X27574Y38670D01*
X27589Y38627D01*
X27600Y38577D01*
X27602Y38552D01*
X27604Y38524D01*
Y38522D01*
Y38516D01*
Y38507D01*
X27602Y38496D01*
X27600Y38481D01*
X27598Y38465D01*
X27595Y38446D01*
X27589Y38426D01*
X27576Y38381D01*
X27567Y38359D01*
X27556Y38335D01*
X27543Y38313D01*
X27528Y38289D01*
X27511Y38266D01*
X27491Y38246D01*
X27489Y38244D01*
X27485Y38242D01*
X27480Y38237D01*
X27471Y38229D01*
X27460Y38222D01*
X27445Y38213D01*
X27428Y38202D01*
X27410Y38192D01*
X27389Y38183D01*
X27365Y38172D01*
X27339Y38163D01*
X27311Y38155D01*
X27282Y38148D01*
X27248Y38144D01*
X27215Y38140D01*
X27178Y38139D01*
X27161D01*
X27148Y38140D01*
X27134D01*
X27117Y38144D01*
X27097Y38146D01*
X27076Y38150D01*
X27030Y38161D01*
X26982Y38176D01*
X26935Y38198D01*
X26911Y38213D01*
X26891Y38228D01*
X26889Y38229D01*
X26885Y38233D01*
X26878Y38239D01*
X26871Y38248D01*
X26860Y38259D01*
X26848Y38272D01*
X26837Y38289D01*
X26824Y38305D01*
X26811Y38326D01*
X26800Y38348D01*
X26789Y38372D01*
X26778Y38398D01*
X26771Y38426D01*
X26763Y38455D01*
X26760Y38487D01*
X26758Y38520D01*
Y38522D01*
Y38527D01*
Y38537D01*
X26760Y38548D01*
X26761Y38563D01*
X26763Y38579D01*
X26767Y38598D01*
X26773Y38618D01*
X26786Y38663D01*
X26795Y38685D01*
X26806Y38709D01*
X26819Y38731D01*
X26834Y38755D01*
X26850Y38777D01*
X26871Y38798D01*
X26873Y38800D01*
X26876Y38803D01*
X26882Y38807D01*
X26891Y38814D01*
X26902Y38824D01*
X26917Y38833D01*
X26934Y38842D01*
X26952Y38853D01*
X26973Y38863D01*
X26995Y38872D01*
X27021Y38881D01*
X27048Y38890D01*
X27078Y38898D01*
X27110Y38902D01*
X27143Y38905D01*
X27178Y38907D01*
X27198D01*
X27215Y38905D01*
D02*
G37*
G36*
X24715Y38818D02*
X24717Y38820D01*
X24723Y38826D01*
X24732Y38833D01*
X24743Y38844D01*
X24756Y38853D01*
X24773Y38864D01*
X24791Y38876D01*
X24810Y38885D01*
X24812Y38887D01*
X24819Y38889D01*
X24830Y38892D01*
X24845Y38896D01*
X24862Y38900D01*
X24882Y38903D01*
X24904Y38907D01*
X24941D01*
X24951Y38905D01*
X24962Y38903D01*
X24976Y38902D01*
X25006Y38894D01*
X25041Y38883D01*
X25078Y38866D01*
X25099Y38855D01*
X25115Y38842D01*
X25134Y38826D01*
X25150Y38809D01*
X25152Y38807D01*
X25154Y38805D01*
X25158Y38800D01*
X25165Y38790D01*
X25171Y38781D01*
X25178Y38768D01*
X25188Y38755D01*
X25195Y38739D01*
X25204Y38720D01*
X25212Y38700D01*
X25219Y38677D01*
X25226Y38652D01*
X25232Y38626D01*
X25236Y38596D01*
X25238Y38566D01*
X25239Y38533D01*
Y38531D01*
Y38527D01*
Y38522D01*
Y38513D01*
X25238Y38502D01*
Y38490D01*
X25234Y38461D01*
X25230Y38427D01*
X25223Y38392D01*
X25212Y38355D01*
X25199Y38320D01*
Y38318D01*
X25197Y38316D01*
X25191Y38305D01*
X25182Y38289D01*
X25169Y38268D01*
X25154Y38246D01*
X25134Y38224D01*
X25113Y38202D01*
X25088Y38183D01*
X25084Y38181D01*
X25075Y38176D01*
X25062Y38168D01*
X25041Y38161D01*
X25019Y38153D01*
X24991Y38146D01*
X24962Y38140D01*
X24930Y38139D01*
X24917D01*
X24904Y38140D01*
X24886Y38142D01*
X24865Y38146D01*
X24841Y38152D01*
X24819Y38159D01*
X24795Y38170D01*
X24793Y38172D01*
X24788Y38176D01*
X24778Y38181D01*
X24765Y38190D01*
X24751Y38203D01*
X24732Y38220D01*
X24713Y38239D01*
X24693Y38263D01*
Y38155D01*
X24430D01*
Y39170D01*
X24715D01*
Y38818D01*
D02*
G37*
G36*
X22247Y38890D02*
X22403D01*
Y38685D01*
X22247D01*
Y38424D01*
Y38422D01*
Y38416D01*
Y38407D01*
X22249Y38398D01*
X22251Y38377D01*
X22253Y38368D01*
X22254Y38361D01*
X22258Y38357D01*
X22266Y38350D01*
X22280Y38342D01*
X22292Y38340D01*
X22303Y38339D01*
X22308D01*
X22316Y38340D01*
X22325D01*
X22338Y38342D01*
X22353Y38346D01*
X22369Y38350D01*
X22390Y38355D01*
X22412Y38161D01*
X22406D01*
X22401Y38159D01*
X22393Y38157D01*
X22373Y38153D01*
X22347Y38150D01*
X22317Y38146D01*
X22284Y38142D01*
X22251Y38140D01*
X22216Y38139D01*
X22199D01*
X22180Y38140D01*
X22156Y38142D01*
X22130Y38144D01*
X22106Y38150D01*
X22080Y38155D01*
X22060Y38165D01*
X22058Y38166D01*
X22053Y38170D01*
X22043Y38176D01*
X22032Y38185D01*
X22019Y38196D01*
X22008Y38211D01*
X21995Y38228D01*
X21986Y38246D01*
Y38248D01*
X21982Y38257D01*
X21979Y38270D01*
X21975Y38289D01*
X21971Y38315D01*
X21967Y38346D01*
X21966Y38383D01*
X21964Y38426D01*
Y38685D01*
X21860D01*
Y38890D01*
X21964D01*
Y39024D01*
X22247Y39170D01*
Y38890D01*
D02*
G37*
G36*
X20782Y38905D02*
X20803Y38903D01*
X20825Y38900D01*
X20849Y38894D01*
X20873Y38887D01*
X20895Y38877D01*
X20897Y38876D01*
X20905Y38872D01*
X20916Y38864D01*
X20929Y38855D01*
X20945Y38840D01*
X20962Y38824D01*
X20981Y38805D01*
X20999Y38781D01*
Y38890D01*
X21264D01*
Y38196D01*
Y38163D01*
Y38159D01*
Y38152D01*
X21262Y38139D01*
X21260Y38122D01*
X21256Y38102D01*
X21251Y38079D01*
X21243Y38057D01*
X21234Y38033D01*
X21232Y38031D01*
X21229Y38022D01*
X21223Y38011D01*
X21214Y37996D01*
X21203Y37981D01*
X21188Y37963D01*
X21173Y37946D01*
X21155Y37931D01*
X21153Y37929D01*
X21145Y37926D01*
X21136Y37918D01*
X21121Y37909D01*
X21103Y37900D01*
X21082Y37892D01*
X21058Y37883D01*
X21031Y37876D01*
X21027D01*
X21018Y37872D01*
X21003Y37870D01*
X20982Y37866D01*
X20956Y37863D01*
X20927Y37861D01*
X20895Y37857D01*
X20840D01*
X20825Y37859D01*
X20806D01*
X20786Y37861D01*
X20762Y37863D01*
X20738Y37866D01*
X20688Y37874D01*
X20638Y37885D01*
X20614Y37892D01*
X20592Y37902D01*
X20571Y37913D01*
X20555Y37924D01*
X20551Y37928D01*
X20542Y37937D01*
X20529Y37952D01*
X20514Y37972D01*
X20499Y37996D01*
X20486Y38028D01*
X20477Y38063D01*
X20475Y38081D01*
X20473Y38102D01*
Y38103D01*
Y38113D01*
Y38124D01*
Y38139D01*
X20747Y38107D01*
Y38105D01*
X20749Y38102D01*
X20751Y38094D01*
X20755Y38087D01*
X20764Y38070D01*
X20771Y38063D01*
X20779Y38055D01*
X20781D01*
X20784Y38052D01*
X20792Y38048D01*
X20801Y38044D01*
X20812Y38041D01*
X20825Y38037D01*
X20840Y38035D01*
X20856Y38033D01*
X20868D01*
X20879Y38035D01*
X20892Y38037D01*
X20906Y38041D01*
X20921Y38048D01*
X20936Y38055D01*
X20949Y38066D01*
X20951Y38068D01*
X20955Y38074D01*
X20958Y38081D01*
X20966Y38092D01*
X20971Y38109D01*
X20975Y38128D01*
X20979Y38150D01*
X20981Y38178D01*
Y38289D01*
X20979Y38287D01*
X20973Y38281D01*
X20966Y38272D01*
X20955Y38263D01*
X20942Y38250D01*
X20927Y38239D01*
X20912Y38228D01*
X20897Y38218D01*
X20894Y38216D01*
X20886Y38213D01*
X20871Y38207D01*
X20855Y38202D01*
X20832Y38196D01*
X20808Y38190D01*
X20782Y38187D01*
X20755Y38185D01*
X20740D01*
X20731Y38187D01*
X20718Y38189D01*
X20703Y38192D01*
X20669Y38202D01*
X20651Y38207D01*
X20632Y38216D01*
X20612Y38226D01*
X20592Y38239D01*
X20573Y38253D01*
X20553Y38270D01*
X20534Y38290D01*
X20516Y38313D01*
Y38315D01*
X20514Y38316D01*
X20510Y38322D01*
X20507Y38329D01*
X20501Y38339D01*
X20495Y38350D01*
X20490Y38363D01*
X20484Y38377D01*
X20473Y38413D01*
X20462Y38453D01*
X20455Y38502D01*
X20453Y38555D01*
Y38557D01*
Y38563D01*
Y38572D01*
X20455Y38583D01*
Y38598D01*
X20457Y38615D01*
X20464Y38652D01*
X20473Y38694D01*
X20488Y38737D01*
X20508Y38779D01*
X20519Y38798D01*
X20534Y38816D01*
X20536Y38818D01*
X20538Y38820D01*
X20544Y38826D01*
X20549Y38831D01*
X20568Y38846D01*
X20594Y38863D01*
X20625Y38879D01*
X20662Y38892D01*
X20705Y38903D01*
X20729Y38905D01*
X20753Y38907D01*
X20768D01*
X20782Y38905D01*
D02*
G37*
%LPC*%
G36*
X26089Y40265D02*
X26080D01*
X26071Y40264D01*
X26060Y40262D01*
X26045Y40258D01*
X26032Y40251D01*
X26017Y40243D01*
X26004Y40232D01*
X26002Y40230D01*
X25999Y40227D01*
X25995Y40219D01*
X25989Y40210D01*
X25982Y40199D01*
X25978Y40184D01*
X25974Y40169D01*
X25973Y40151D01*
Y40149D01*
Y40141D01*
X25974Y40132D01*
X25976Y40121D01*
X25980Y40108D01*
X25986Y40093D01*
X25993Y40080D01*
X26004Y40067D01*
X26006Y40065D01*
X26010Y40062D01*
X26017Y40058D01*
X26028Y40053D01*
X26041Y40045D01*
X26056Y40041D01*
X26073Y40038D01*
X26093Y40036D01*
X26102D01*
X26110Y40038D01*
X26123Y40040D01*
X26136Y40043D01*
X26149Y40049D01*
X26162Y40056D01*
X26174Y40065D01*
X26176Y40067D01*
X26180Y40071D01*
X26184Y40078D01*
X26191Y40088D01*
X26197Y40099D01*
X26200Y40114D01*
X26204Y40128D01*
X26206Y40147D01*
Y40149D01*
Y40156D01*
X26204Y40165D01*
X26202Y40177D01*
X26199Y40191D01*
X26191Y40204D01*
X26184Y40219D01*
X26173Y40232D01*
X26171Y40234D01*
X26167Y40238D01*
X26160Y40243D01*
X26150Y40249D01*
X26137Y40254D01*
X26123Y40260D01*
X26108Y40264D01*
X26089Y40265D01*
D02*
G37*
G36*
Y39869D02*
X26080D01*
X26071Y39867D01*
X26058Y39864D01*
X26043Y39858D01*
X26028Y39851D01*
X26012Y39841D01*
X25997Y39827D01*
X25995Y39825D01*
X25991Y39819D01*
X25984Y39810D01*
X25978Y39797D01*
X25971Y39782D01*
X25963Y39762D01*
X25960Y39741D01*
X25958Y39716D01*
Y39712D01*
Y39704D01*
X25960Y39691D01*
X25963Y39677D01*
X25967Y39658D01*
X25974Y39640D01*
X25986Y39621D01*
X25999Y39604D01*
X26000Y39603D01*
X26006Y39599D01*
X26013Y39591D01*
X26026Y39584D01*
X26039Y39577D01*
X26054Y39569D01*
X26073Y39566D01*
X26091Y39564D01*
X26100D01*
X26110Y39566D01*
X26123Y39569D01*
X26137Y39575D01*
X26152Y39582D01*
X26169Y39591D01*
X26184Y39606D01*
X26186Y39608D01*
X26189Y39614D01*
X26197Y39623D01*
X26204Y39636D01*
X26211Y39653D01*
X26219Y39671D01*
X26223Y39691D01*
X26224Y39716D01*
Y39719D01*
Y39727D01*
X26223Y39740D01*
X26219Y39754D01*
X26215Y39771D01*
X26208Y39790D01*
X26197Y39808D01*
X26184Y39825D01*
X26182Y39827D01*
X26176Y39832D01*
X26169Y39840D01*
X26156Y39847D01*
X26143Y39854D01*
X26126Y39862D01*
X26110Y39867D01*
X26089Y39869D01*
D02*
G37*
G36*
X25143Y40251D02*
X25139D01*
X25132Y40249D01*
X25119Y40247D01*
X25104Y40241D01*
X25088Y40234D01*
X25071Y40221D01*
X25054Y40202D01*
X25041Y40178D01*
X25039Y40175D01*
X25038Y40171D01*
X25036Y40164D01*
X25034Y40156D01*
X25032Y40147D01*
X25028Y40134D01*
X25026Y40119D01*
X25023Y40103D01*
X25019Y40084D01*
X25017Y40062D01*
X25015Y40040D01*
X25013Y40012D01*
X25012Y39984D01*
X25010Y39953D01*
Y39917D01*
Y39915D01*
Y39908D01*
Y39899D01*
Y39886D01*
X25012Y39871D01*
Y39853D01*
X25013Y39812D01*
X25017Y39767D01*
X25025Y39723D01*
X25028Y39703D01*
X25032Y39684D01*
X25038Y39667D01*
X25043Y39653D01*
X25045Y39649D01*
X25051Y39641D01*
X25058Y39630D01*
X25069Y39617D01*
X25084Y39604D01*
X25101Y39593D01*
X25121Y39586D01*
X25143Y39582D01*
X25150D01*
X25160Y39584D01*
X25169Y39586D01*
X25182Y39590D01*
X25193Y39595D01*
X25206Y39603D01*
X25219Y39612D01*
X25221Y39614D01*
X25225Y39617D01*
X25230Y39625D01*
X25238Y39634D01*
X25245Y39649D01*
X25252Y39664D01*
X25260Y39684D01*
X25265Y39706D01*
Y39710D01*
X25267Y39719D01*
X25271Y39734D01*
X25275Y39756D01*
X25276Y39784D01*
X25280Y39819D01*
X25282Y39860D01*
Y39908D01*
Y39910D01*
Y39917D01*
Y39927D01*
Y39941D01*
X25280Y39956D01*
Y39977D01*
X25278Y40017D01*
X25273Y40064D01*
X25267Y40108D01*
X25263Y40128D01*
X25258Y40149D01*
X25252Y40165D01*
X25247Y40180D01*
X25245Y40184D01*
X25239Y40191D01*
X25232Y40202D01*
X25221Y40215D01*
X25206Y40228D01*
X25188Y40240D01*
X25167Y40247D01*
X25143Y40251D01*
D02*
G37*
G36*
X23725D02*
X23721D01*
X23714Y40249D01*
X23701Y40247D01*
X23686Y40241D01*
X23669Y40234D01*
X23653Y40221D01*
X23636Y40202D01*
X23623Y40178D01*
X23621Y40175D01*
X23619Y40171D01*
X23617Y40164D01*
X23615Y40156D01*
X23614Y40147D01*
X23610Y40134D01*
X23608Y40119D01*
X23604Y40103D01*
X23601Y40084D01*
X23599Y40062D01*
X23597Y40040D01*
X23595Y40012D01*
X23593Y39984D01*
X23591Y39953D01*
Y39917D01*
Y39915D01*
Y39908D01*
Y39899D01*
Y39886D01*
X23593Y39871D01*
Y39853D01*
X23595Y39812D01*
X23599Y39767D01*
X23606Y39723D01*
X23610Y39703D01*
X23614Y39684D01*
X23619Y39667D01*
X23625Y39653D01*
X23627Y39649D01*
X23632Y39641D01*
X23640Y39630D01*
X23651Y39617D01*
X23665Y39604D01*
X23682Y39593D01*
X23702Y39586D01*
X23725Y39582D01*
X23732D01*
X23741Y39584D01*
X23751Y39586D01*
X23764Y39590D01*
X23775Y39595D01*
X23788Y39603D01*
X23801Y39612D01*
X23802Y39614D01*
X23806Y39617D01*
X23812Y39625D01*
X23819Y39634D01*
X23827Y39649D01*
X23834Y39664D01*
X23841Y39684D01*
X23847Y39706D01*
Y39710D01*
X23849Y39719D01*
X23852Y39734D01*
X23856Y39756D01*
X23858Y39784D01*
X23862Y39819D01*
X23864Y39860D01*
Y39908D01*
Y39910D01*
Y39917D01*
Y39927D01*
Y39941D01*
X23862Y39956D01*
Y39977D01*
X23860Y40017D01*
X23854Y40064D01*
X23849Y40108D01*
X23845Y40128D01*
X23840Y40149D01*
X23834Y40165D01*
X23828Y40180D01*
X23827Y40184D01*
X23821Y40191D01*
X23814Y40202D01*
X23802Y40215D01*
X23788Y40228D01*
X23769Y40240D01*
X23749Y40247D01*
X23725Y40251D01*
D02*
G37*
G36*
X21832D02*
X21829D01*
X21821Y40249D01*
X21808Y40247D01*
X21793Y40241D01*
X21777Y40234D01*
X21760Y40221D01*
X21743Y40202D01*
X21730Y40178D01*
X21729Y40175D01*
X21727Y40171D01*
X21725Y40164D01*
X21723Y40156D01*
X21721Y40147D01*
X21718Y40134D01*
X21716Y40119D01*
X21712Y40103D01*
X21708Y40084D01*
X21706Y40062D01*
X21705Y40040D01*
X21703Y40012D01*
X21701Y39984D01*
X21699Y39953D01*
Y39917D01*
Y39915D01*
Y39908D01*
Y39899D01*
Y39886D01*
X21701Y39871D01*
Y39853D01*
X21703Y39812D01*
X21706Y39767D01*
X21714Y39723D01*
X21718Y39703D01*
X21721Y39684D01*
X21727Y39667D01*
X21732Y39653D01*
X21734Y39649D01*
X21740Y39641D01*
X21747Y39630D01*
X21758Y39617D01*
X21773Y39604D01*
X21790Y39593D01*
X21810Y39586D01*
X21832Y39582D01*
X21840D01*
X21849Y39584D01*
X21858Y39586D01*
X21871Y39590D01*
X21882Y39595D01*
X21895Y39603D01*
X21908Y39612D01*
X21910Y39614D01*
X21914Y39617D01*
X21919Y39625D01*
X21927Y39634D01*
X21934Y39649D01*
X21942Y39664D01*
X21949Y39684D01*
X21955Y39706D01*
Y39710D01*
X21956Y39719D01*
X21960Y39734D01*
X21964Y39756D01*
X21966Y39784D01*
X21969Y39819D01*
X21971Y39860D01*
Y39908D01*
Y39910D01*
Y39917D01*
Y39927D01*
Y39941D01*
X21969Y39956D01*
Y39977D01*
X21967Y40017D01*
X21962Y40064D01*
X21956Y40108D01*
X21953Y40128D01*
X21947Y40149D01*
X21942Y40165D01*
X21936Y40180D01*
X21934Y40184D01*
X21929Y40191D01*
X21921Y40202D01*
X21910Y40215D01*
X21895Y40228D01*
X21877Y40240D01*
X21856Y40247D01*
X21832Y40251D01*
D02*
G37*
G36*
X35744Y38696D02*
X35736D01*
X35727Y38694D01*
X35714Y38690D01*
X35701Y38685D01*
X35688Y38677D01*
X35673Y38668D01*
X35661Y38653D01*
X35659Y38652D01*
X35655Y38646D01*
X35651Y38635D01*
X35646Y38622D01*
X35638Y38602D01*
X35635Y38579D01*
X35631Y38550D01*
X35629Y38516D01*
Y38515D01*
Y38513D01*
Y38502D01*
X35631Y38487D01*
X35633Y38466D01*
X35636Y38446D01*
X35644Y38424D01*
X35651Y38403D01*
X35662Y38385D01*
X35664Y38383D01*
X35668Y38379D01*
X35675Y38372D01*
X35686Y38365D01*
X35698Y38357D01*
X35712Y38350D01*
X35729Y38346D01*
X35748Y38344D01*
X35757D01*
X35766Y38346D01*
X35779Y38350D01*
X35792Y38353D01*
X35809Y38361D01*
X35823Y38372D01*
X35836Y38385D01*
X35838Y38387D01*
X35842Y38392D01*
X35848Y38403D01*
X35855Y38418D01*
X35862Y38437D01*
X35868Y38461D01*
X35872Y38490D01*
X35873Y38524D01*
Y38526D01*
Y38527D01*
Y38539D01*
X35872Y38553D01*
X35870Y38572D01*
X35864Y38594D01*
X35859Y38615D01*
X35849Y38635D01*
X35836Y38653D01*
X35835Y38655D01*
X35829Y38661D01*
X35822Y38666D01*
X35811Y38676D01*
X35798Y38683D01*
X35783Y38689D01*
X35764Y38694D01*
X35744Y38696D01*
D02*
G37*
G36*
X31883D02*
X31876D01*
X31866Y38694D01*
X31854Y38690D01*
X31841Y38685D01*
X31828Y38677D01*
X31813Y38668D01*
X31800Y38653D01*
X31798Y38652D01*
X31794Y38646D01*
X31791Y38635D01*
X31785Y38622D01*
X31778Y38602D01*
X31774Y38579D01*
X31770Y38550D01*
X31768Y38516D01*
Y38515D01*
Y38513D01*
Y38502D01*
X31770Y38487D01*
X31772Y38466D01*
X31776Y38446D01*
X31783Y38424D01*
X31791Y38403D01*
X31802Y38385D01*
X31804Y38383D01*
X31807Y38379D01*
X31815Y38372D01*
X31826Y38365D01*
X31837Y38357D01*
X31852Y38350D01*
X31868Y38346D01*
X31887Y38344D01*
X31896D01*
X31905Y38346D01*
X31918Y38350D01*
X31931Y38353D01*
X31948Y38361D01*
X31963Y38372D01*
X31976Y38385D01*
X31978Y38387D01*
X31981Y38392D01*
X31987Y38403D01*
X31994Y38418D01*
X32002Y38437D01*
X32007Y38461D01*
X32011Y38490D01*
X32013Y38524D01*
Y38526D01*
Y38527D01*
Y38539D01*
X32011Y38553D01*
X32009Y38572D01*
X32003Y38594D01*
X31998Y38615D01*
X31989Y38635D01*
X31976Y38653D01*
X31974Y38655D01*
X31968Y38661D01*
X31961Y38666D01*
X31950Y38676D01*
X31937Y38683D01*
X31922Y38689D01*
X31903Y38694D01*
X31883Y38696D01*
D02*
G37*
G36*
X36690Y39011D02*
X36681D01*
X36670Y39009D01*
X36659Y39005D01*
X36644Y39000D01*
X36627Y38992D01*
X36612Y38983D01*
X36597Y38968D01*
X36596Y38966D01*
X36592Y38961D01*
X36586Y38950D01*
X36581Y38937D01*
X36573Y38918D01*
X36568Y38898D01*
X36564Y38872D01*
X36562Y38842D01*
Y38839D01*
Y38827D01*
X36564Y38813D01*
X36568Y38794D01*
X36572Y38774D01*
X36577Y38752D01*
X36586Y38731D01*
X36599Y38713D01*
X36601Y38711D01*
X36607Y38705D01*
X36614Y38698D01*
X36625Y38690D01*
X36640Y38683D01*
X36657Y38676D01*
X36675Y38670D01*
X36696Y38668D01*
X36705D01*
X36716Y38670D01*
X36731Y38674D01*
X36746Y38679D01*
X36762Y38687D01*
X36779Y38696D01*
X36794Y38711D01*
X36796Y38713D01*
X36799Y38718D01*
X36807Y38729D01*
X36814Y38742D01*
X36820Y38759D01*
X36827Y38781D01*
X36831Y38807D01*
X36833Y38835D01*
Y38837D01*
Y38839D01*
Y38848D01*
X36831Y38863D01*
X36827Y38881D01*
X36821Y38902D01*
X36814Y38924D01*
X36805Y38944D01*
X36790Y38963D01*
X36788Y38964D01*
X36783Y38970D01*
X36773Y38977D01*
X36762Y38987D01*
X36747Y38996D01*
X36731Y39003D01*
X36712Y39009D01*
X36690Y39011D01*
D02*
G37*
G36*
X33837Y38503D02*
X33835D01*
X33827Y38500D01*
X33814Y38496D01*
X33800Y38490D01*
X33781Y38485D01*
X33761Y38479D01*
X33714Y38466D01*
X33711Y38465D01*
X33701Y38463D01*
X33687Y38459D01*
X33668Y38453D01*
X33650Y38446D01*
X33633Y38439D01*
X33616Y38431D01*
X33605Y38422D01*
Y38420D01*
X33601Y38418D01*
X33594Y38407D01*
X33587Y38390D01*
X33585Y38381D01*
X33583Y38370D01*
Y38368D01*
Y38365D01*
X33585Y38359D01*
X33587Y38352D01*
X33592Y38333D01*
X33598Y38324D01*
X33605Y38316D01*
X33607D01*
X33609Y38313D01*
X33614Y38311D01*
X33624Y38307D01*
X33633Y38303D01*
X33644Y38300D01*
X33659Y38298D01*
X33674Y38296D01*
X33681D01*
X33690Y38298D01*
X33701Y38300D01*
X33714Y38302D01*
X33729Y38305D01*
X33746Y38311D01*
X33761Y38318D01*
X33763Y38320D01*
X33768Y38322D01*
X33774Y38328D01*
X33783Y38333D01*
X33801Y38350D01*
X33811Y38361D01*
X33818Y38372D01*
Y38374D01*
X33822Y38377D01*
X33824Y38385D01*
X33827Y38396D01*
X33831Y38407D01*
X33833Y38422D01*
X33837Y38439D01*
Y38457D01*
Y38503D01*
D02*
G37*
G36*
X30493Y38713D02*
X30483D01*
X30470Y38711D01*
X30457Y38707D01*
X30441Y38702D01*
X30424Y38692D01*
X30407Y38681D01*
X30391Y38665D01*
X30389Y38663D01*
X30385Y38655D01*
X30378Y38644D01*
X30372Y38629D01*
X30365Y38609D01*
X30357Y38583D01*
X30354Y38553D01*
X30352Y38520D01*
Y38518D01*
Y38516D01*
Y38511D01*
Y38503D01*
X30354Y38487D01*
X30357Y38465D01*
X30361Y38442D01*
X30368Y38418D01*
X30378Y38396D01*
X30391Y38376D01*
X30393Y38374D01*
X30398Y38368D01*
X30407Y38361D01*
X30418Y38353D01*
X30433Y38344D01*
X30450Y38337D01*
X30470Y38331D01*
X30491Y38329D01*
X30502D01*
X30513Y38331D01*
X30526Y38335D01*
X30543Y38340D01*
X30559Y38348D01*
X30576Y38359D01*
X30591Y38374D01*
X30593Y38376D01*
X30596Y38383D01*
X30604Y38394D01*
X30611Y38411D01*
X30618Y38431D01*
X30626Y38457D01*
X30630Y38487D01*
X30631Y38524D01*
Y38526D01*
Y38527D01*
Y38539D01*
X30630Y38555D01*
X30626Y38577D01*
X30622Y38600D01*
X30615Y38624D01*
X30604Y38646D01*
X30591Y38665D01*
X30589Y38666D01*
X30583Y38672D01*
X30576Y38679D01*
X30565Y38689D01*
X30550Y38698D01*
X30533Y38705D01*
X30513Y38711D01*
X30493Y38713D01*
D02*
G37*
G36*
X27182Y38713D02*
X27173D01*
X27160Y38711D01*
X27147Y38707D01*
X27130Y38702D01*
X27113Y38692D01*
X27097Y38681D01*
X27080Y38665D01*
X27078Y38663D01*
X27074Y38655D01*
X27067Y38644D01*
X27061Y38629D01*
X27054Y38609D01*
X27047Y38583D01*
X27043Y38553D01*
X27041Y38520D01*
Y38518D01*
Y38516D01*
Y38511D01*
Y38503D01*
X27043Y38487D01*
X27047Y38465D01*
X27050Y38442D01*
X27058Y38418D01*
X27067Y38396D01*
X27080Y38376D01*
X27082Y38374D01*
X27087Y38368D01*
X27097Y38361D01*
X27108Y38353D01*
X27123Y38344D01*
X27139Y38337D01*
X27160Y38331D01*
X27180Y38329D01*
X27191D01*
X27202Y38331D01*
X27215Y38335D01*
X27232Y38340D01*
X27248Y38348D01*
X27265Y38359D01*
X27280Y38374D01*
X27282Y38376D01*
X27285Y38383D01*
X27293Y38394D01*
X27300Y38411D01*
X27308Y38431D01*
X27315Y38457D01*
X27319Y38487D01*
X27321Y38524D01*
Y38526D01*
Y38527D01*
Y38539D01*
X27319Y38555D01*
X27315Y38577D01*
X27311Y38600D01*
X27304Y38624D01*
X27293Y38646D01*
X27280Y38665D01*
X27278Y38666D01*
X27272Y38672D01*
X27265Y38679D01*
X27254Y38689D01*
X27239Y38698D01*
X27222Y38705D01*
X27202Y38711D01*
X27182Y38713D01*
D02*
G37*
G36*
X24843Y38696D02*
X24834D01*
X24823Y38694D01*
X24810Y38690D01*
X24795Y38685D01*
X24778Y38677D01*
X24763Y38668D01*
X24749Y38653D01*
X24747Y38652D01*
X24743Y38646D01*
X24738Y38635D01*
X24730Y38622D01*
X24723Y38603D01*
X24717Y38581D01*
X24713Y38555D01*
X24712Y38524D01*
Y38522D01*
Y38520D01*
Y38509D01*
X24713Y38492D01*
X24715Y38472D01*
X24721Y38450D01*
X24726Y38426D01*
X24736Y38405D01*
X24747Y38387D01*
X24749Y38385D01*
X24754Y38379D01*
X24762Y38374D01*
X24773Y38366D01*
X24786Y38357D01*
X24801Y38352D01*
X24819Y38346D01*
X24838Y38344D01*
X24847D01*
X24856Y38346D01*
X24867Y38350D01*
X24882Y38353D01*
X24895Y38361D01*
X24910Y38372D01*
X24923Y38385D01*
X24925Y38387D01*
X24928Y38392D01*
X24934Y38403D01*
X24941Y38418D01*
X24947Y38439D01*
X24952Y38463D01*
X24956Y38492D01*
X24958Y38526D01*
Y38527D01*
Y38529D01*
Y38540D01*
X24956Y38555D01*
X24954Y38574D01*
X24949Y38596D01*
X24943Y38616D01*
X24934Y38637D01*
X24923Y38653D01*
X24921Y38655D01*
X24917Y38661D01*
X24910Y38666D01*
X24901Y38676D01*
X24889Y38683D01*
X24875Y38689D01*
X24860Y38694D01*
X24843Y38696D01*
D02*
G37*
G36*
X20853Y38703D02*
X20844D01*
X20834Y38702D01*
X20821Y38698D01*
X20806Y38694D01*
X20794Y38687D01*
X20779Y38676D01*
X20766Y38663D01*
X20764Y38661D01*
X20760Y38655D01*
X20757Y38646D01*
X20751Y38631D01*
X20744Y38615D01*
X20740Y38592D01*
X20736Y38565D01*
X20734Y38533D01*
Y38529D01*
Y38520D01*
X20736Y38505D01*
X20738Y38487D01*
X20742Y38468D01*
X20749Y38448D01*
X20757Y38429D01*
X20768Y38413D01*
X20769Y38411D01*
X20773Y38407D01*
X20781Y38402D01*
X20792Y38394D01*
X20805Y38387D01*
X20819Y38381D01*
X20836Y38377D01*
X20856Y38376D01*
X20866D01*
X20875Y38377D01*
X20888Y38381D01*
X20901Y38385D01*
X20918Y38392D01*
X20932Y38402D01*
X20945Y38415D01*
X20947Y38416D01*
X20951Y38422D01*
X20956Y38431D01*
X20964Y38446D01*
X20971Y38463D01*
X20977Y38483D01*
X20981Y38509D01*
X20982Y38537D01*
Y38539D01*
Y38540D01*
Y38550D01*
X20981Y38565D01*
X20977Y38581D01*
X20973Y38602D01*
X20966Y38622D01*
X20956Y38642D01*
X20944Y38659D01*
X20942Y38661D01*
X20936Y38666D01*
X20929Y38674D01*
X20918Y38681D01*
X20905Y38689D01*
X20890Y38696D01*
X20871Y38702D01*
X20853Y38703D01*
D02*
G37*
%LPD*%
D18*
X8000Y35000D02*
G03*
X8000Y43000I0J4000D01*
G01*
D21*
X6500Y35000D02*
D03*
D22*
X7500Y43000D02*
D03*
D23*
X4778Y38865D02*
D03*
D24*
X4500Y43000D02*
D03*
D25*
X3000Y39000D02*
D03*
%TF.MD5,847a01a082be4fc6d11560a8efc4b545*%
M02*
