%TF.GenerationSoftware,Altium Limited,Altium Designer,19.1.5 (86)*%
G04 Layer_Color=16711935*
%FSLAX43Y43*%
%MOMM*%
%TF.FileFunction,Soldermask,Bot*%
%TF.Part,Single*%
G01*
G75*
%TA.AperFunction,SMDPad,CuDef*%
%ADD52R,1.703X3.703*%
%ADD53O,2.403X0.803*%
%ADD54R,1.603X1.403*%
%ADD55R,1.403X1.603*%
%ADD56R,1.403X0.503*%
%ADD57R,0.503X1.403*%
%ADD58R,1.503X1.203*%
%ADD59R,1.203X1.503*%
%TA.AperFunction,ComponentPad*%
%ADD60C,1.203*%
%ADD61C,2.403*%
%ADD62C,2.203*%
%ADD63C,3.003*%
%ADD64C,1.903*%
%ADD65O,4.203X3.703*%
%ADD66C,1.103*%
%TA.AperFunction,WasherPad*%
%ADD67C,3.203*%
%TA.AperFunction,ViaPad*%
%ADD68C,1.303*%
D52*
X75786Y24892D02*
D03*
D53*
X16155Y28575D02*
D03*
Y31115D02*
D03*
Y29845D02*
D03*
X20955D02*
D03*
Y31115D02*
D03*
Y28575D02*
D03*
Y32385D02*
D03*
Y34925D02*
D03*
Y36195D02*
D03*
Y33655D02*
D03*
X16155Y32385D02*
D03*
Y34925D02*
D03*
Y33655D02*
D03*
Y36195D02*
D03*
D54*
X18415Y40640D02*
D03*
Y38608D02*
D03*
D55*
X8763Y41910D02*
D03*
X10795D02*
D03*
D56*
X67750Y38080D02*
D03*
Y33080D02*
D03*
Y36580D02*
D03*
Y36080D02*
D03*
Y35580D02*
D03*
Y35080D02*
D03*
Y34580D02*
D03*
Y34080D02*
D03*
Y33580D02*
D03*
Y37080D02*
D03*
Y37580D02*
D03*
Y32580D02*
D03*
Y32080D02*
D03*
Y31580D02*
D03*
Y31080D02*
D03*
Y30580D02*
D03*
X56250Y35080D02*
D03*
Y35580D02*
D03*
Y36080D02*
D03*
Y36580D02*
D03*
Y37080D02*
D03*
Y37580D02*
D03*
Y38080D02*
D03*
Y34580D02*
D03*
Y34080D02*
D03*
Y33580D02*
D03*
Y33080D02*
D03*
Y32580D02*
D03*
Y32080D02*
D03*
Y31580D02*
D03*
Y31080D02*
D03*
Y30580D02*
D03*
D57*
X65750Y40080D02*
D03*
X65250D02*
D03*
X64750D02*
D03*
X64250D02*
D03*
X63750D02*
D03*
X58750D02*
D03*
X59250D02*
D03*
X62750D02*
D03*
X62250D02*
D03*
X61750D02*
D03*
X61250D02*
D03*
X60750D02*
D03*
X60250D02*
D03*
X59750D02*
D03*
X63250D02*
D03*
X58250D02*
D03*
X65750Y28580D02*
D03*
X65250D02*
D03*
X64750D02*
D03*
X64250D02*
D03*
X63750D02*
D03*
X63250D02*
D03*
X62750D02*
D03*
X62250D02*
D03*
X61750D02*
D03*
X58250D02*
D03*
X58750D02*
D03*
X59250D02*
D03*
X59750D02*
D03*
X60250D02*
D03*
X60750D02*
D03*
X61250D02*
D03*
D58*
X53975Y26924D02*
D03*
Y28956D02*
D03*
X57150Y24130D02*
D03*
Y26162D02*
D03*
X74930Y30353D02*
D03*
Y32385D02*
D03*
X52070Y37973D02*
D03*
Y40005D02*
D03*
D59*
X22987Y40640D02*
D03*
X20955D02*
D03*
D60*
X65786Y25642D02*
D03*
Y24142D02*
D03*
D61*
X81280Y11430D02*
D03*
X78740D02*
D03*
X76200D02*
D03*
X73660D02*
D03*
X5080Y20320D02*
D03*
Y22860D02*
D03*
Y25400D02*
D03*
Y27940D02*
D03*
Y30480D02*
D03*
X85090Y11430D02*
D03*
Y13970D02*
D03*
X88265D02*
D03*
Y11430D02*
D03*
X5080Y41910D02*
D03*
Y39370D02*
D03*
X18415Y23180D02*
D03*
Y43180D02*
D03*
D62*
X41910Y46355D02*
D03*
X44450D02*
D03*
X46990D02*
D03*
X49530D02*
D03*
X52070D02*
D03*
X54610D02*
D03*
X57150D02*
D03*
X59690D02*
D03*
X62230D02*
D03*
X64770D02*
D03*
X67310D02*
D03*
X69850D02*
D03*
X72390D02*
D03*
X74930D02*
D03*
X77470D02*
D03*
Y18415D02*
D03*
X74930D02*
D03*
X72390D02*
D03*
X69850D02*
D03*
X67310D02*
D03*
X64770D02*
D03*
X62230D02*
D03*
X59690D02*
D03*
X57150D02*
D03*
X54610D02*
D03*
X52070D02*
D03*
X49530D02*
D03*
X46990D02*
D03*
X44450D02*
D03*
X41910D02*
D03*
X33440Y19635D02*
D03*
Y45135D02*
D03*
X85940D02*
D03*
Y19635D02*
D03*
D63*
X12700Y22860D02*
D03*
Y5080D02*
D03*
D64*
X95885Y21590D02*
D03*
Y19050D02*
D03*
Y16510D02*
D03*
Y13970D02*
D03*
Y11430D02*
D03*
X93345D02*
D03*
Y13970D02*
D03*
Y16510D02*
D03*
Y19050D02*
D03*
Y21590D02*
D03*
D65*
X5000Y14080D02*
D03*
Y9000D02*
D03*
D66*
X93650Y39665D02*
D03*
Y35265D02*
D03*
D67*
X97000Y47000D02*
D03*
X3000D02*
D03*
Y3000D02*
D03*
X97000Y3000D02*
D03*
D68*
X52705Y23495D02*
D03*
X60325D02*
D03*
X48768Y24765D02*
D03*
X70104Y27432D02*
D03*
X64135Y20320D02*
D03*
X66675Y22860D02*
D03*
X66040Y32385D02*
D03*
X69215Y29210D02*
D03*
X59055Y26670D02*
D03*
Y24765D02*
D03*
X24765Y40640D02*
D03*
X83185Y22860D02*
D03*
X59750Y31580D02*
D03*
X74930Y28575D02*
D03*
X24130D02*
D03*
X53340Y33020D02*
D03*
X57785Y37580D02*
D03*
X26035Y36195D02*
D03*
X54610Y40005D02*
D03*
X71120Y29210D02*
D03*
X72390Y30480D02*
D03*
X46990Y39370D02*
D03*
Y41910D02*
D03*
X81915Y35560D02*
D03*
Y37465D02*
D03*
Y39370D02*
D03*
X68104Y40640D02*
D03*
X72390Y37465D02*
D03*
X69850D02*
D03*
X52330Y31080D02*
D03*
X65750Y38580D02*
D03*
%TF.MD5,e482035cf8566353ce9c5da751e3770c*%
M02*
