%TF.GenerationSoftware,Altium Limited,Altium Designer,19.1.5 (86)*%
G04 Layer_Color=32896*
%FSLAX43Y43*%
%MOMM*%
%TF.FileFunction,Legend,Bot*%
%TF.Part,Single*%
G01*
G75*
%TA.AperFunction,NonConductor*%
%ADD42C,0.250*%
%ADD43C,0.254*%
%ADD44C,2.000*%
%ADD45C,0.150*%
%ADD46C,0.200*%
%ADD47R,2.000X10.000*%
%ADD48R,3.000X2.000*%
%ADD49R,4.445X2.270*%
%ADD50R,1.000X2.000*%
%ADD51R,3.000X2.000*%
G36*
X85614Y3784D02*
X85642Y3782D01*
X85668Y3777D01*
X85692Y3771D01*
X85714Y3765D01*
X85734Y3760D01*
X85751Y3754D01*
X85768Y3747D01*
X85783Y3741D01*
X85794Y3736D01*
X85803Y3730D01*
X85812Y3725D01*
X85818Y3723D01*
X85820Y3719D01*
X85821D01*
X85855Y3691D01*
X85881Y3660D01*
X85903Y3627D01*
X85920Y3595D01*
X85933Y3567D01*
X85936Y3554D01*
X85942Y3543D01*
X85944Y3536D01*
X85945Y3528D01*
X85947Y3525D01*
Y3523D01*
X85681Y3477D01*
X85675Y3502D01*
X85670Y3525D01*
X85662Y3541D01*
X85657Y3556D01*
X85649Y3567D01*
X85646Y3575D01*
X85642Y3578D01*
X85640Y3580D01*
X85627Y3591D01*
X85614Y3599D01*
X85601Y3604D01*
X85588Y3608D01*
X85575Y3610D01*
X85566Y3612D01*
X85558D01*
X85540Y3610D01*
X85525Y3608D01*
X85512Y3602D01*
X85501Y3599D01*
X85492Y3593D01*
X85486Y3588D01*
X85483Y3586D01*
X85481Y3584D01*
X85471Y3573D01*
X85464Y3560D01*
X85460Y3549D01*
X85457Y3536D01*
X85455Y3527D01*
X85453Y3517D01*
Y3512D01*
Y3510D01*
X85455Y3493D01*
X85458Y3477D01*
X85466Y3462D01*
X85471Y3451D01*
X85479Y3440D01*
X85486Y3432D01*
X85490Y3428D01*
X85492Y3427D01*
X85507Y3415D01*
X85521Y3408D01*
X85538Y3401D01*
X85551Y3397D01*
X85564Y3395D01*
X85575Y3393D01*
X85596D01*
X85608Y3395D01*
X85621D01*
X85634Y3195D01*
X85614Y3201D01*
X85596Y3204D01*
X85581Y3208D01*
X85568Y3210D01*
X85557Y3212D01*
X85544D01*
X85521Y3210D01*
X85501Y3206D01*
X85484Y3199D01*
X85470Y3193D01*
X85458Y3186D01*
X85451Y3178D01*
X85446Y3175D01*
X85444Y3173D01*
X85431Y3156D01*
X85421Y3140D01*
X85416Y3121D01*
X85410Y3104D01*
X85408Y3088D01*
X85407Y3075D01*
Y3067D01*
Y3064D01*
X85408Y3040D01*
X85412Y3017D01*
X85420Y2997D01*
X85425Y2982D01*
X85433Y2969D01*
X85440Y2960D01*
X85444Y2954D01*
X85446Y2953D01*
X85460Y2940D01*
X85475Y2928D01*
X85492Y2921D01*
X85507Y2917D01*
X85520Y2914D01*
X85531Y2912D01*
X85540D01*
X85560Y2914D01*
X85577Y2917D01*
X85594Y2921D01*
X85607Y2928D01*
X85616Y2934D01*
X85625Y2938D01*
X85629Y2941D01*
X85631Y2943D01*
X85642Y2958D01*
X85653Y2977D01*
X85668Y3016D01*
X85673Y3034D01*
X85677Y3049D01*
X85681Y3058D01*
Y3062D01*
X85962Y3023D01*
X85951Y2990D01*
X85938Y2958D01*
X85927Y2932D01*
X85914Y2908D01*
X85903Y2890D01*
X85894Y2877D01*
X85886Y2869D01*
X85884Y2866D01*
X85864Y2843D01*
X85842Y2825D01*
X85820Y2808D01*
X85799Y2795D01*
X85781Y2784D01*
X85766Y2777D01*
X85757Y2773D01*
X85753Y2771D01*
X85720Y2760D01*
X85684Y2753D01*
X85647Y2747D01*
X85612Y2743D01*
X85583Y2741D01*
X85568D01*
X85557Y2740D01*
X85534D01*
X85484Y2741D01*
X85438Y2747D01*
X85399Y2753D01*
X85366Y2762D01*
X85340Y2769D01*
X85329Y2773D01*
X85321Y2775D01*
X85314Y2779D01*
X85309Y2780D01*
X85307Y2782D01*
X85305D01*
X85273Y2801D01*
X85247Y2821D01*
X85225Y2841D01*
X85205Y2862D01*
X85190Y2880D01*
X85181Y2895D01*
X85173Y2904D01*
X85171Y2908D01*
X85155Y2940D01*
X85144Y2969D01*
X85134Y2997D01*
X85129Y3025D01*
X85125Y3047D01*
X85123Y3064D01*
Y3075D01*
Y3077D01*
Y3078D01*
X85125Y3104D01*
X85127Y3127D01*
X85133Y3147D01*
X85138Y3165D01*
X85144Y3178D01*
X85147Y3190D01*
X85151Y3197D01*
X85153Y3199D01*
X85164Y3217D01*
X85177Y3234D01*
X85190Y3249D01*
X85203Y3260D01*
X85214Y3269D01*
X85223Y3277D01*
X85229Y3280D01*
X85231Y3282D01*
X85244Y3290D01*
X85258Y3295D01*
X85286Y3306D01*
X85299Y3310D01*
X85310Y3314D01*
X85318Y3315D01*
X85320D01*
X85294Y3330D01*
X85271Y3347D01*
X85253Y3364D01*
X85238Y3377D01*
X85227Y3390D01*
X85220Y3399D01*
X85214Y3406D01*
X85212Y3408D01*
X85199Y3428D01*
X85190Y3449D01*
X85184Y3469D01*
X85179Y3488D01*
X85177Y3502D01*
X85175Y3515D01*
Y3523D01*
Y3527D01*
X85177Y3547D01*
X85179Y3567D01*
X85188Y3604D01*
X85203Y3636D01*
X85220Y3662D01*
X85236Y3684D01*
X85249Y3701D01*
X85260Y3710D01*
X85262Y3714D01*
X85264D01*
X85283Y3727D01*
X85301Y3738D01*
X85347Y3756D01*
X85394Y3769D01*
X85442Y3778D01*
X85464Y3782D01*
X85484Y3784D01*
X85503Y3786D01*
X85520D01*
X85534Y3788D01*
X85553D01*
X85614Y3784D01*
D02*
G37*
G36*
X93163Y3786D02*
X93208Y3782D01*
X93247Y3777D01*
X93278Y3769D01*
X93304Y3762D01*
X93322Y3756D01*
X93334Y3752D01*
X93335Y3751D01*
X93337D01*
X93367Y3736D01*
X93391Y3719D01*
X93413Y3702D01*
X93430Y3686D01*
X93445Y3671D01*
X93456Y3660D01*
X93461Y3652D01*
X93463Y3649D01*
X93478Y3621D01*
X93491Y3591D01*
X93500Y3562D01*
X93509Y3532D01*
X93515Y3504D01*
X93519Y3484D01*
X93521Y3475D01*
X93522Y3469D01*
Y3465D01*
Y3464D01*
X93239Y3441D01*
X93234Y3471D01*
X93228Y3495D01*
X93221Y3515D01*
X93213Y3532D01*
X93206Y3545D01*
X93200Y3554D01*
X93197Y3558D01*
X93195Y3560D01*
X93180Y3571D01*
X93165Y3580D01*
X93150Y3586D01*
X93137Y3591D01*
X93124Y3593D01*
X93115Y3595D01*
X93106D01*
X93087Y3593D01*
X93071Y3590D01*
X93056Y3584D01*
X93043Y3578D01*
X93032Y3573D01*
X93024Y3567D01*
X93021Y3564D01*
X93019Y3562D01*
X93008Y3549D01*
X92998Y3536D01*
X92993Y3523D01*
X92987Y3510D01*
X92985Y3499D01*
X92984Y3490D01*
Y3484D01*
Y3482D01*
X92985Y3465D01*
X92989Y3451D01*
X92995Y3434D01*
X93000Y3421D01*
X93008Y3408D01*
X93013Y3399D01*
X93017Y3393D01*
X93019Y3391D01*
X93026Y3382D01*
X93035Y3371D01*
X93058Y3349D01*
X93085Y3327D01*
X93111Y3303D01*
X93137Y3282D01*
X93158Y3265D01*
X93167Y3260D01*
X93173Y3254D01*
X93176Y3253D01*
X93178Y3251D01*
X93215Y3223D01*
X93248Y3197D01*
X93280Y3171D01*
X93308Y3147D01*
X93334Y3123D01*
X93356Y3103D01*
X93376Y3082D01*
X93393Y3064D01*
X93408Y3047D01*
X93422Y3032D01*
X93432Y3019D01*
X93441Y3010D01*
X93448Y3001D01*
X93452Y2995D01*
X93454Y2991D01*
X93456Y2990D01*
X93480Y2949D01*
X93500Y2906D01*
X93515Y2867D01*
X93526Y2832D01*
X93535Y2801D01*
X93537Y2788D01*
X93539Y2777D01*
X93541Y2769D01*
X93543Y2762D01*
Y2758D01*
Y2756D01*
X92695D01*
Y2986D01*
X93137D01*
X93110Y3010D01*
X93089Y3030D01*
X93082Y3036D01*
X93076Y3041D01*
X93073Y3043D01*
X93071Y3045D01*
X93058Y3056D01*
X93041Y3069D01*
X93021Y3082D01*
X93002Y3095D01*
X92984Y3108D01*
X92969Y3119D01*
X92960Y3127D01*
X92956Y3128D01*
X92930Y3147D01*
X92906Y3165D01*
X92884Y3184D01*
X92863Y3201D01*
X92847Y3217D01*
X92830Y3232D01*
X92802Y3260D01*
X92782Y3282D01*
X92769Y3299D01*
X92760Y3310D01*
X92758Y3314D01*
X92739Y3345D01*
X92726Y3377D01*
X92715Y3408D01*
X92710Y3434D01*
X92706Y3458D01*
X92702Y3477D01*
Y3482D01*
Y3488D01*
Y3490D01*
Y3491D01*
X92704Y3523D01*
X92710Y3552D01*
X92717Y3580D01*
X92726Y3602D01*
X92736Y3623D01*
X92743Y3636D01*
X92748Y3645D01*
X92750Y3649D01*
X92769Y3673D01*
X92791Y3695D01*
X92813Y3712D01*
X92834Y3727D01*
X92852Y3738D01*
X92869Y3747D01*
X92878Y3751D01*
X92880Y3752D01*
X92882D01*
X92915Y3764D01*
X92952Y3773D01*
X92991Y3778D01*
X93028Y3784D01*
X93061Y3786D01*
X93076D01*
X93089Y3788D01*
X93113D01*
X93163Y3786D01*
D02*
G37*
G36*
X91271D02*
X91315Y3782D01*
X91354Y3777D01*
X91386Y3769D01*
X91412Y3762D01*
X91430Y3756D01*
X91441Y3752D01*
X91443Y3751D01*
X91445D01*
X91475Y3736D01*
X91499Y3719D01*
X91521Y3702D01*
X91537Y3686D01*
X91552Y3671D01*
X91563Y3660D01*
X91569Y3652D01*
X91571Y3649D01*
X91586Y3621D01*
X91599Y3591D01*
X91608Y3562D01*
X91617Y3532D01*
X91623Y3504D01*
X91626Y3484D01*
X91628Y3475D01*
X91630Y3469D01*
Y3465D01*
Y3464D01*
X91347Y3441D01*
X91341Y3471D01*
X91336Y3495D01*
X91328Y3515D01*
X91321Y3532D01*
X91313Y3545D01*
X91308Y3554D01*
X91304Y3558D01*
X91302Y3560D01*
X91288Y3571D01*
X91273Y3580D01*
X91258Y3586D01*
X91245Y3591D01*
X91232Y3593D01*
X91223Y3595D01*
X91213D01*
X91195Y3593D01*
X91178Y3590D01*
X91163Y3584D01*
X91150Y3578D01*
X91139Y3573D01*
X91132Y3567D01*
X91128Y3564D01*
X91126Y3562D01*
X91115Y3549D01*
X91106Y3536D01*
X91100Y3523D01*
X91095Y3510D01*
X91093Y3499D01*
X91091Y3490D01*
Y3484D01*
Y3482D01*
X91093Y3465D01*
X91097Y3451D01*
X91102Y3434D01*
X91108Y3421D01*
X91115Y3408D01*
X91121Y3399D01*
X91125Y3393D01*
X91126Y3391D01*
X91134Y3382D01*
X91143Y3371D01*
X91165Y3349D01*
X91193Y3327D01*
X91219Y3303D01*
X91245Y3282D01*
X91265Y3265D01*
X91275Y3260D01*
X91280Y3254D01*
X91284Y3253D01*
X91286Y3251D01*
X91323Y3223D01*
X91356Y3197D01*
X91387Y3171D01*
X91415Y3147D01*
X91441Y3123D01*
X91463Y3103D01*
X91484Y3082D01*
X91500Y3064D01*
X91515Y3047D01*
X91530Y3032D01*
X91539Y3019D01*
X91549Y3010D01*
X91556Y3001D01*
X91560Y2995D01*
X91562Y2991D01*
X91563Y2990D01*
X91587Y2949D01*
X91608Y2906D01*
X91623Y2867D01*
X91634Y2832D01*
X91643Y2801D01*
X91645Y2788D01*
X91647Y2777D01*
X91649Y2769D01*
X91650Y2762D01*
Y2758D01*
Y2756D01*
X90802D01*
Y2986D01*
X91245D01*
X91217Y3010D01*
X91197Y3030D01*
X91189Y3036D01*
X91184Y3041D01*
X91180Y3043D01*
X91178Y3045D01*
X91165Y3056D01*
X91149Y3069D01*
X91128Y3082D01*
X91110Y3095D01*
X91091Y3108D01*
X91076Y3119D01*
X91067Y3127D01*
X91063Y3128D01*
X91038Y3147D01*
X91013Y3165D01*
X90991Y3184D01*
X90971Y3201D01*
X90954Y3217D01*
X90938Y3232D01*
X90910Y3260D01*
X90889Y3282D01*
X90876Y3299D01*
X90867Y3310D01*
X90865Y3314D01*
X90847Y3345D01*
X90834Y3377D01*
X90823Y3408D01*
X90817Y3434D01*
X90813Y3458D01*
X90810Y3477D01*
Y3482D01*
Y3488D01*
Y3490D01*
Y3491D01*
X90812Y3523D01*
X90817Y3552D01*
X90825Y3580D01*
X90834Y3602D01*
X90843Y3623D01*
X90851Y3636D01*
X90856Y3645D01*
X90858Y3649D01*
X90876Y3673D01*
X90899Y3695D01*
X90921Y3712D01*
X90941Y3727D01*
X90960Y3738D01*
X90976Y3747D01*
X90986Y3751D01*
X90988Y3752D01*
X90989D01*
X91023Y3764D01*
X91060Y3773D01*
X91099Y3778D01*
X91136Y3784D01*
X91169Y3786D01*
X91184D01*
X91197Y3788D01*
X91221D01*
X91271Y3786D01*
D02*
G37*
G36*
X86542D02*
X86586Y3782D01*
X86625Y3777D01*
X86657Y3769D01*
X86682Y3762D01*
X86701Y3756D01*
X86712Y3752D01*
X86714Y3751D01*
X86716D01*
X86745Y3736D01*
X86769Y3719D01*
X86792Y3702D01*
X86808Y3686D01*
X86823Y3671D01*
X86834Y3660D01*
X86840Y3652D01*
X86842Y3649D01*
X86856Y3621D01*
X86869Y3591D01*
X86879Y3562D01*
X86888Y3532D01*
X86894Y3504D01*
X86897Y3484D01*
X86899Y3475D01*
X86901Y3469D01*
Y3465D01*
Y3464D01*
X86618Y3441D01*
X86612Y3471D01*
X86607Y3495D01*
X86599Y3515D01*
X86592Y3532D01*
X86584Y3545D01*
X86579Y3554D01*
X86575Y3558D01*
X86573Y3560D01*
X86558Y3571D01*
X86544Y3580D01*
X86529Y3586D01*
X86516Y3591D01*
X86503Y3593D01*
X86494Y3595D01*
X86484D01*
X86466Y3593D01*
X86449Y3590D01*
X86434Y3584D01*
X86421Y3578D01*
X86410Y3573D01*
X86403Y3567D01*
X86399Y3564D01*
X86397Y3562D01*
X86386Y3549D01*
X86377Y3536D01*
X86371Y3523D01*
X86366Y3510D01*
X86364Y3499D01*
X86362Y3490D01*
Y3484D01*
Y3482D01*
X86364Y3465D01*
X86368Y3451D01*
X86373Y3434D01*
X86379Y3421D01*
X86386Y3408D01*
X86392Y3399D01*
X86395Y3393D01*
X86397Y3391D01*
X86405Y3382D01*
X86414Y3371D01*
X86436Y3349D01*
X86464Y3327D01*
X86490Y3303D01*
X86516Y3282D01*
X86536Y3265D01*
X86545Y3260D01*
X86551Y3254D01*
X86555Y3253D01*
X86557Y3251D01*
X86594Y3223D01*
X86627Y3197D01*
X86658Y3171D01*
X86686Y3147D01*
X86712Y3123D01*
X86734Y3103D01*
X86755Y3082D01*
X86771Y3064D01*
X86786Y3047D01*
X86801Y3032D01*
X86810Y3019D01*
X86819Y3010D01*
X86827Y3001D01*
X86831Y2995D01*
X86832Y2991D01*
X86834Y2990D01*
X86858Y2949D01*
X86879Y2906D01*
X86894Y2867D01*
X86905Y2832D01*
X86914Y2801D01*
X86916Y2788D01*
X86918Y2777D01*
X86919Y2769D01*
X86921Y2762D01*
Y2758D01*
Y2756D01*
X86073Y2756D01*
Y2986D01*
X86516Y2986D01*
X86488Y3010D01*
X86468Y3030D01*
X86460Y3036D01*
X86455Y3041D01*
X86451Y3043D01*
X86449Y3045D01*
X86436Y3056D01*
X86419Y3069D01*
X86399Y3082D01*
X86381Y3095D01*
X86362Y3108D01*
X86347Y3119D01*
X86338Y3127D01*
X86334Y3128D01*
X86308Y3147D01*
X86284Y3165D01*
X86262Y3184D01*
X86242Y3201D01*
X86225Y3217D01*
X86208Y3232D01*
X86181Y3260D01*
X86160Y3282D01*
X86147Y3299D01*
X86138Y3310D01*
X86136Y3314D01*
X86118Y3345D01*
X86105Y3377D01*
X86094Y3408D01*
X86088Y3434D01*
X86084Y3458D01*
X86081Y3477D01*
Y3482D01*
Y3488D01*
Y3490D01*
Y3491D01*
X86082Y3523D01*
X86088Y3552D01*
X86095Y3580D01*
X86105Y3602D01*
X86114Y3623D01*
X86121Y3636D01*
X86127Y3645D01*
X86129Y3649D01*
X86147Y3673D01*
X86170Y3695D01*
X86192Y3712D01*
X86212Y3727D01*
X86231Y3738D01*
X86247Y3747D01*
X86257Y3751D01*
X86258Y3752D01*
X86260D01*
X86294Y3764D01*
X86331Y3773D01*
X86369Y3778D01*
X86407Y3784D01*
X86440Y3786D01*
X86455D01*
X86468Y3788D01*
X86492D01*
X86542Y3786D01*
D02*
G37*
G36*
X89710Y2756D02*
X89408D01*
Y3040D01*
X89710D01*
Y2756D01*
D02*
G37*
G36*
X87345D02*
X87044D01*
Y3040D01*
X87345D01*
Y2756D01*
D02*
G37*
G36*
X84981Y2756D02*
X84679D01*
Y3040D01*
X84981D01*
Y2756D01*
D02*
G37*
G36*
X92193Y3786D02*
X92230Y3782D01*
X92263Y3777D01*
X92295Y3769D01*
X92323Y3760D01*
X92349Y3751D01*
X92373Y3740D01*
X92393Y3730D01*
X92411Y3719D01*
X92428Y3708D01*
X92441Y3699D01*
X92452Y3690D01*
X92461Y3682D01*
X92467Y3677D01*
X92471Y3673D01*
X92473Y3671D01*
X92491Y3647D01*
X92506Y3621D01*
X92521Y3591D01*
X92532Y3560D01*
X92550Y3493D01*
X92563Y3427D01*
X92567Y3395D01*
X92571Y3365D01*
X92573Y3338D01*
X92574Y3314D01*
X92576Y3295D01*
Y3280D01*
Y3271D01*
Y3267D01*
X92574Y3225D01*
X92573Y3184D01*
X92569Y3147D01*
X92565Y3115D01*
X92561Y3088D01*
X92560Y3067D01*
X92558Y3060D01*
X92556Y3054D01*
Y3053D01*
Y3051D01*
X92548Y3017D01*
X92539Y2986D01*
X92530Y2960D01*
X92521Y2940D01*
X92513Y2921D01*
X92506Y2910D01*
X92502Y2901D01*
X92500Y2899D01*
X92480Y2871D01*
X92458Y2847D01*
X92437Y2827D01*
X92415Y2810D01*
X92398Y2797D01*
X92384Y2788D01*
X92374Y2782D01*
X92371Y2780D01*
X92339Y2767D01*
X92304Y2756D01*
X92269Y2749D01*
X92236Y2745D01*
X92206Y2741D01*
X92195D01*
X92184Y2740D01*
X92161D01*
X92121Y2741D01*
X92082Y2745D01*
X92047Y2751D01*
X92015Y2760D01*
X91986Y2769D01*
X91960Y2780D01*
X91936Y2791D01*
X91915Y2804D01*
X91897Y2816D01*
X91882Y2827D01*
X91869Y2838D01*
X91858Y2847D01*
X91849Y2856D01*
X91843Y2862D01*
X91841Y2866D01*
X91839Y2867D01*
X91823Y2893D01*
X91808Y2921D01*
X91795Y2953D01*
X91784Y2984D01*
X91767Y3051D01*
X91756Y3117D01*
X91752Y3149D01*
X91750Y3177D01*
X91749Y3203D01*
X91747Y3227D01*
X91745Y3245D01*
Y3258D01*
Y3267D01*
Y3271D01*
X91747Y3315D01*
X91749Y3360D01*
X91754Y3399D01*
X91760Y3434D01*
X91765Y3464D01*
X91767Y3477D01*
X91769Y3486D01*
X91771Y3495D01*
X91773Y3501D01*
X91774Y3504D01*
Y3506D01*
X91780Y3528D01*
X91787Y3547D01*
X91793Y3565D01*
X91799Y3580D01*
X91804Y3593D01*
X91810Y3602D01*
X91812Y3608D01*
X91813Y3610D01*
X91834Y3643D01*
X91845Y3658D01*
X91856Y3669D01*
X91865Y3680D01*
X91873Y3688D01*
X91878Y3693D01*
X91880Y3695D01*
X91897Y3710D01*
X91913Y3723D01*
X91932Y3734D01*
X91949Y3743D01*
X91963Y3751D01*
X91976Y3758D01*
X91984Y3760D01*
X91987Y3762D01*
X92013Y3771D01*
X92041Y3777D01*
X92069Y3782D01*
X92095Y3784D01*
X92119Y3786D01*
X92137Y3788D01*
X92154D01*
X92193Y3786D01*
D02*
G37*
G36*
X90301D02*
X90338Y3782D01*
X90371Y3777D01*
X90402Y3769D01*
X90430Y3760D01*
X90456Y3751D01*
X90480Y3740D01*
X90501Y3730D01*
X90519Y3719D01*
X90536Y3708D01*
X90549Y3699D01*
X90560Y3690D01*
X90569Y3682D01*
X90575Y3677D01*
X90578Y3673D01*
X90580Y3671D01*
X90599Y3647D01*
X90614Y3621D01*
X90628Y3591D01*
X90639Y3560D01*
X90658Y3493D01*
X90671Y3427D01*
X90675Y3395D01*
X90678Y3365D01*
X90680Y3338D01*
X90682Y3314D01*
X90684Y3295D01*
Y3280D01*
Y3271D01*
Y3267D01*
X90682Y3225D01*
X90680Y3184D01*
X90676Y3147D01*
X90673Y3115D01*
X90669Y3088D01*
X90667Y3067D01*
X90665Y3060D01*
X90663Y3054D01*
Y3053D01*
Y3051D01*
X90656Y3017D01*
X90647Y2986D01*
X90638Y2960D01*
X90628Y2940D01*
X90621Y2921D01*
X90614Y2910D01*
X90610Y2901D01*
X90608Y2899D01*
X90588Y2871D01*
X90565Y2847D01*
X90545Y2827D01*
X90523Y2810D01*
X90506Y2797D01*
X90491Y2788D01*
X90482Y2782D01*
X90478Y2780D01*
X90447Y2767D01*
X90412Y2756D01*
X90376Y2749D01*
X90343Y2745D01*
X90314Y2741D01*
X90302D01*
X90291Y2740D01*
X90269D01*
X90228Y2741D01*
X90189Y2745D01*
X90154Y2751D01*
X90123Y2760D01*
X90093Y2769D01*
X90067Y2780D01*
X90043Y2791D01*
X90023Y2804D01*
X90004Y2816D01*
X89989Y2827D01*
X89977Y2838D01*
X89965Y2847D01*
X89956Y2856D01*
X89951Y2862D01*
X89949Y2866D01*
X89947Y2867D01*
X89930Y2893D01*
X89915Y2921D01*
X89902Y2953D01*
X89891Y2984D01*
X89875Y3051D01*
X89864Y3117D01*
X89860Y3149D01*
X89858Y3177D01*
X89856Y3203D01*
X89854Y3227D01*
X89852Y3245D01*
Y3258D01*
Y3267D01*
Y3271D01*
X89854Y3315D01*
X89856Y3360D01*
X89862Y3399D01*
X89867Y3434D01*
X89873Y3464D01*
X89875Y3477D01*
X89877Y3486D01*
X89878Y3495D01*
X89880Y3501D01*
X89882Y3504D01*
Y3506D01*
X89888Y3528D01*
X89895Y3547D01*
X89901Y3565D01*
X89906Y3580D01*
X89912Y3593D01*
X89917Y3602D01*
X89919Y3608D01*
X89921Y3610D01*
X89941Y3643D01*
X89952Y3658D01*
X89964Y3669D01*
X89973Y3680D01*
X89980Y3688D01*
X89986Y3693D01*
X89988Y3695D01*
X90004Y3710D01*
X90021Y3723D01*
X90039Y3734D01*
X90056Y3743D01*
X90071Y3751D01*
X90084Y3758D01*
X90091Y3760D01*
X90095Y3762D01*
X90121Y3771D01*
X90149Y3777D01*
X90177Y3782D01*
X90202Y3784D01*
X90227Y3786D01*
X90245Y3788D01*
X90262D01*
X90301Y3786D01*
D02*
G37*
G36*
X88882D02*
X88919Y3782D01*
X88953Y3777D01*
X88984Y3769D01*
X89012Y3760D01*
X89038Y3751D01*
X89062Y3740D01*
X89082Y3730D01*
X89101Y3719D01*
X89117Y3708D01*
X89130Y3699D01*
X89141Y3690D01*
X89151Y3682D01*
X89156Y3677D01*
X89160Y3673D01*
X89162Y3671D01*
X89180Y3647D01*
X89195Y3621D01*
X89210Y3591D01*
X89221Y3560D01*
X89240Y3493D01*
X89253Y3427D01*
X89256Y3395D01*
X89260Y3365D01*
X89262Y3338D01*
X89264Y3314D01*
X89266Y3295D01*
Y3280D01*
Y3271D01*
Y3267D01*
X89264Y3225D01*
X89262Y3184D01*
X89258Y3147D01*
X89254Y3115D01*
X89251Y3088D01*
X89249Y3067D01*
X89247Y3060D01*
X89245Y3054D01*
Y3053D01*
Y3051D01*
X89238Y3017D01*
X89228Y2986D01*
X89219Y2960D01*
X89210Y2940D01*
X89203Y2921D01*
X89195Y2910D01*
X89191Y2901D01*
X89190Y2899D01*
X89169Y2871D01*
X89147Y2847D01*
X89127Y2827D01*
X89104Y2810D01*
X89088Y2797D01*
X89073Y2788D01*
X89064Y2782D01*
X89060Y2780D01*
X89028Y2767D01*
X88993Y2756D01*
X88958Y2749D01*
X88925Y2745D01*
X88895Y2741D01*
X88884D01*
X88873Y2740D01*
X88851D01*
X88810Y2741D01*
X88771Y2745D01*
X88736Y2751D01*
X88704Y2760D01*
X88675Y2769D01*
X88649Y2780D01*
X88625Y2791D01*
X88604Y2804D01*
X88586Y2816D01*
X88571Y2827D01*
X88558Y2838D01*
X88547Y2847D01*
X88538Y2856D01*
X88532Y2862D01*
X88530Y2866D01*
X88529Y2867D01*
X88512Y2893D01*
X88497Y2921D01*
X88484Y2953D01*
X88473Y2984D01*
X88456Y3051D01*
X88445Y3117D01*
X88442Y3149D01*
X88440Y3177D01*
X88438Y3203D01*
X88436Y3227D01*
X88434Y3245D01*
Y3258D01*
Y3267D01*
Y3271D01*
X88436Y3315D01*
X88438Y3360D01*
X88443Y3399D01*
X88449Y3434D01*
X88454Y3464D01*
X88456Y3477D01*
X88458Y3486D01*
X88460Y3495D01*
X88462Y3501D01*
X88464Y3504D01*
Y3506D01*
X88469Y3528D01*
X88477Y3547D01*
X88482Y3565D01*
X88488Y3580D01*
X88493Y3593D01*
X88499Y3602D01*
X88501Y3608D01*
X88503Y3610D01*
X88523Y3643D01*
X88534Y3658D01*
X88545Y3669D01*
X88554Y3680D01*
X88562Y3688D01*
X88567Y3693D01*
X88569Y3695D01*
X88586Y3710D01*
X88603Y3723D01*
X88621Y3734D01*
X88638Y3743D01*
X88653Y3751D01*
X88666Y3758D01*
X88673Y3760D01*
X88677Y3762D01*
X88703Y3771D01*
X88730Y3777D01*
X88758Y3782D01*
X88784Y3784D01*
X88808Y3786D01*
X88827Y3788D01*
X88843D01*
X88882Y3786D01*
D02*
G37*
G36*
X87977D02*
X88025Y3778D01*
X88067Y3767D01*
X88103Y3756D01*
X88117Y3751D01*
X88130Y3745D01*
X88143Y3740D01*
X88153Y3734D01*
X88160Y3730D01*
X88166Y3727D01*
X88167Y3725D01*
X88169D01*
X88190Y3710D01*
X88208Y3693D01*
X88225Y3675D01*
X88238Y3658D01*
X88249Y3641D01*
X88258Y3623D01*
X88273Y3591D01*
X88282Y3562D01*
X88284Y3549D01*
X88286Y3538D01*
X88288Y3530D01*
Y3523D01*
Y3519D01*
Y3517D01*
X88286Y3490D01*
X88282Y3464D01*
X88275Y3440D01*
X88267Y3419D01*
X88260Y3403D01*
X88253Y3391D01*
X88249Y3382D01*
X88247Y3380D01*
X88234Y3365D01*
X88219Y3351D01*
X88203Y3338D01*
X88188Y3325D01*
X88173Y3315D01*
X88162Y3308D01*
X88155Y3304D01*
X88151Y3303D01*
X88180Y3290D01*
X88208Y3273D01*
X88229Y3258D01*
X88247Y3241D01*
X88262Y3228D01*
X88271Y3217D01*
X88277Y3210D01*
X88279Y3206D01*
X88292Y3182D01*
X88303Y3156D01*
X88310Y3132D01*
X88314Y3108D01*
X88317Y3086D01*
X88319Y3069D01*
Y3058D01*
Y3056D01*
Y3054D01*
X88317Y3021D01*
X88312Y2990D01*
X88306Y2962D01*
X88297Y2938D01*
X88290Y2917D01*
X88284Y2903D01*
X88279Y2893D01*
X88277Y2890D01*
X88258Y2864D01*
X88238Y2841D01*
X88216Y2821D01*
X88195Y2806D01*
X88177Y2793D01*
X88162Y2784D01*
X88151Y2779D01*
X88147Y2777D01*
X88112Y2764D01*
X88071Y2754D01*
X88030Y2749D01*
X87990Y2745D01*
X87955Y2741D01*
X87940D01*
X87925Y2740D01*
X87867D01*
X87838Y2741D01*
X87810Y2745D01*
X87786Y2749D01*
X87766Y2751D01*
X87751Y2754D01*
X87742Y2756D01*
X87738D01*
X87710Y2764D01*
X87684Y2771D01*
X87664Y2780D01*
X87645Y2788D01*
X87630Y2797D01*
X87619Y2803D01*
X87612Y2806D01*
X87610Y2808D01*
X87592Y2823D01*
X87575Y2840D01*
X87560Y2856D01*
X87547Y2873D01*
X87536Y2888D01*
X87529Y2899D01*
X87525Y2906D01*
X87523Y2910D01*
X87512Y2936D01*
X87503Y2960D01*
X87497Y2984D01*
X87492Y3006D01*
X87490Y3025D01*
X87488Y3040D01*
Y3049D01*
Y3053D01*
X87490Y3082D01*
X87493Y3108D01*
X87501Y3134D01*
X87508Y3154D01*
X87516Y3173D01*
X87523Y3186D01*
X87527Y3193D01*
X87529Y3197D01*
X87545Y3221D01*
X87566Y3241D01*
X87586Y3260D01*
X87606Y3275D01*
X87625Y3286D01*
X87640Y3295D01*
X87649Y3301D01*
X87651Y3303D01*
X87653D01*
X87630Y3317D01*
X87612Y3334D01*
X87595Y3347D01*
X87582Y3360D01*
X87573Y3371D01*
X87566Y3380D01*
X87562Y3386D01*
X87560Y3388D01*
X87547Y3410D01*
X87538Y3432D01*
X87530Y3454D01*
X87527Y3475D01*
X87523Y3491D01*
X87521Y3504D01*
Y3512D01*
Y3515D01*
X87523Y3538D01*
X87525Y3558D01*
X87536Y3595D01*
X87553Y3628D01*
X87569Y3656D01*
X87588Y3678D01*
X87605Y3695D01*
X87616Y3706D01*
X87618Y3710D01*
X87619D01*
X87640Y3723D01*
X87660Y3736D01*
X87708Y3754D01*
X87758Y3769D01*
X87806Y3778D01*
X87830Y3782D01*
X87851Y3784D01*
X87871Y3786D01*
X87888D01*
X87901Y3788D01*
X87921D01*
X87977Y3786D01*
D02*
G37*
G36*
X92550Y2327D02*
X92269D01*
Y2520D01*
X92550D01*
Y2327D01*
D02*
G37*
G36*
X79074Y2327D02*
X78793D01*
Y2520D01*
X79074D01*
Y2327D01*
D02*
G37*
G36*
X76408Y2533D02*
X76435Y2531D01*
X76461Y2526D01*
X76485Y2520D01*
X76508Y2514D01*
X76528Y2509D01*
X76545Y2503D01*
X76561Y2496D01*
X76576Y2490D01*
X76587Y2485D01*
X76596Y2479D01*
X76606Y2474D01*
X76611Y2472D01*
X76613Y2468D01*
X76615D01*
X76648Y2440D01*
X76674Y2409D01*
X76696Y2376D01*
X76713Y2344D01*
X76726Y2316D01*
X76730Y2303D01*
X76735Y2292D01*
X76737Y2285D01*
X76739Y2277D01*
X76741Y2274D01*
Y2272D01*
X76474Y2226D01*
X76469Y2252D01*
X76463Y2274D01*
X76456Y2290D01*
X76450Y2305D01*
X76443Y2316D01*
X76439Y2324D01*
X76435Y2327D01*
X76433Y2329D01*
X76421Y2340D01*
X76408Y2348D01*
X76395Y2353D01*
X76382Y2357D01*
X76369Y2359D01*
X76359Y2361D01*
X76352D01*
X76334Y2359D01*
X76319Y2357D01*
X76306Y2352D01*
X76295Y2348D01*
X76285Y2342D01*
X76280Y2337D01*
X76276Y2335D01*
X76274Y2333D01*
X76265Y2322D01*
X76258Y2309D01*
X76254Y2298D01*
X76250Y2285D01*
X76248Y2276D01*
X76246Y2266D01*
Y2261D01*
Y2259D01*
X76248Y2242D01*
X76252Y2226D01*
X76259Y2211D01*
X76265Y2200D01*
X76272Y2189D01*
X76280Y2181D01*
X76284Y2177D01*
X76285Y2176D01*
X76300Y2164D01*
X76315Y2157D01*
X76332Y2150D01*
X76345Y2146D01*
X76358Y2144D01*
X76369Y2142D01*
X76389D01*
X76402Y2144D01*
X76415D01*
X76428Y1944D01*
X76408Y1950D01*
X76389Y1953D01*
X76374Y1957D01*
X76361Y1959D01*
X76350Y1961D01*
X76337D01*
X76315Y1959D01*
X76295Y1955D01*
X76278Y1948D01*
X76263Y1942D01*
X76252Y1935D01*
X76245Y1927D01*
X76239Y1924D01*
X76237Y1922D01*
X76224Y1905D01*
X76215Y1889D01*
X76209Y1870D01*
X76204Y1853D01*
X76202Y1837D01*
X76200Y1824D01*
Y1816D01*
Y1813D01*
X76202Y1789D01*
X76206Y1766D01*
X76213Y1746D01*
X76219Y1731D01*
X76226Y1718D01*
X76234Y1709D01*
X76237Y1703D01*
X76239Y1702D01*
X76254Y1689D01*
X76269Y1678D01*
X76285Y1670D01*
X76300Y1666D01*
X76313Y1663D01*
X76324Y1661D01*
X76334D01*
X76354Y1663D01*
X76371Y1666D01*
X76387Y1670D01*
X76400Y1678D01*
X76409Y1683D01*
X76419Y1687D01*
X76422Y1690D01*
X76424Y1692D01*
X76435Y1707D01*
X76446Y1726D01*
X76461Y1765D01*
X76467Y1783D01*
X76471Y1798D01*
X76474Y1807D01*
Y1811D01*
X76756Y1772D01*
X76745Y1739D01*
X76732Y1707D01*
X76720Y1681D01*
X76708Y1657D01*
X76696Y1639D01*
X76687Y1626D01*
X76680Y1618D01*
X76678Y1615D01*
X76658Y1592D01*
X76635Y1574D01*
X76613Y1557D01*
X76593Y1544D01*
X76574Y1533D01*
X76559Y1526D01*
X76550Y1522D01*
X76546Y1520D01*
X76513Y1509D01*
X76478Y1502D01*
X76441Y1496D01*
X76406Y1492D01*
X76376Y1490D01*
X76361D01*
X76350Y1489D01*
X76328D01*
X76278Y1490D01*
X76232Y1496D01*
X76193Y1502D01*
X76159Y1511D01*
X76134Y1518D01*
X76122Y1522D01*
X76115Y1524D01*
X76108Y1528D01*
X76102Y1529D01*
X76100Y1531D01*
X76098D01*
X76067Y1550D01*
X76041Y1570D01*
X76019Y1590D01*
X75998Y1611D01*
X75984Y1629D01*
X75974Y1644D01*
X75967Y1653D01*
X75965Y1657D01*
X75948Y1689D01*
X75937Y1718D01*
X75928Y1746D01*
X75922Y1774D01*
X75919Y1796D01*
X75917Y1813D01*
Y1824D01*
Y1826D01*
Y1827D01*
X75919Y1853D01*
X75921Y1876D01*
X75926Y1896D01*
X75932Y1915D01*
X75937Y1927D01*
X75941Y1939D01*
X75945Y1946D01*
X75947Y1948D01*
X75958Y1966D01*
X75971Y1983D01*
X75984Y1998D01*
X75996Y2009D01*
X76008Y2018D01*
X76017Y2026D01*
X76022Y2029D01*
X76024Y2031D01*
X76037Y2039D01*
X76052Y2044D01*
X76080Y2055D01*
X76093Y2059D01*
X76104Y2063D01*
X76111Y2065D01*
X76113D01*
X76087Y2079D01*
X76065Y2096D01*
X76047Y2113D01*
X76032Y2126D01*
X76021Y2139D01*
X76013Y2148D01*
X76008Y2155D01*
X76006Y2157D01*
X75993Y2177D01*
X75984Y2198D01*
X75978Y2218D01*
X75972Y2237D01*
X75971Y2252D01*
X75969Y2264D01*
Y2272D01*
Y2276D01*
X75971Y2296D01*
X75972Y2316D01*
X75982Y2353D01*
X75996Y2385D01*
X76013Y2411D01*
X76030Y2433D01*
X76043Y2450D01*
X76054Y2459D01*
X76056Y2463D01*
X76058D01*
X76076Y2476D01*
X76095Y2487D01*
X76141Y2505D01*
X76187Y2518D01*
X76235Y2527D01*
X76258Y2531D01*
X76278Y2533D01*
X76296Y2535D01*
X76313D01*
X76328Y2537D01*
X76346D01*
X76408Y2533D01*
D02*
G37*
G36*
X89565Y1505D02*
X89303D01*
Y1613D01*
X89282Y1589D01*
X89264Y1570D01*
X89245Y1553D01*
X89230Y1540D01*
X89217Y1531D01*
X89208Y1526D01*
X89203Y1522D01*
X89201Y1520D01*
X89177Y1509D01*
X89154Y1502D01*
X89130Y1496D01*
X89110Y1492D01*
X89091Y1490D01*
X89078Y1489D01*
X89066D01*
X89034Y1490D01*
X89004Y1496D01*
X88977Y1503D01*
X88954Y1511D01*
X88934Y1518D01*
X88921Y1526D01*
X88912Y1531D01*
X88908Y1533D01*
X88882Y1552D01*
X88862Y1574D01*
X88841Y1596D01*
X88827Y1618D01*
X88814Y1639D01*
X88804Y1655D01*
X88799Y1666D01*
X88797Y1668D01*
Y1670D01*
X88784Y1705D01*
X88773Y1742D01*
X88766Y1777D01*
X88762Y1811D01*
X88758Y1840D01*
Y1852D01*
X88756Y1863D01*
Y1872D01*
Y1877D01*
Y1881D01*
Y1883D01*
X88758Y1916D01*
X88760Y1946D01*
X88764Y1976D01*
X88769Y2002D01*
X88777Y2027D01*
X88784Y2050D01*
X88791Y2070D01*
X88801Y2089D01*
X88808Y2105D01*
X88817Y2118D01*
X88825Y2131D01*
X88830Y2140D01*
X88838Y2150D01*
X88841Y2155D01*
X88843Y2157D01*
X88845Y2159D01*
X88862Y2176D01*
X88880Y2192D01*
X88897Y2205D01*
X88917Y2216D01*
X88954Y2233D01*
X88990Y2244D01*
X89019Y2252D01*
X89034Y2253D01*
X89045Y2255D01*
X89054Y2257D01*
X89091D01*
X89114Y2253D01*
X89134Y2250D01*
X89151Y2246D01*
X89166Y2242D01*
X89177Y2239D01*
X89184Y2237D01*
X89186Y2235D01*
X89204Y2226D01*
X89223Y2214D01*
X89240Y2203D01*
X89253Y2194D01*
X89264Y2183D01*
X89273Y2176D01*
X89278Y2170D01*
X89280Y2168D01*
Y2520D01*
X89565D01*
Y1505D01*
D02*
G37*
G36*
X91460D02*
X91178D01*
Y1857D01*
X91176Y1892D01*
X91173Y1922D01*
X91169Y1946D01*
X91162Y1966D01*
X91156Y1979D01*
X91152Y1990D01*
X91149Y1996D01*
X91147Y1998D01*
X91134Y2011D01*
X91121Y2020D01*
X91106Y2027D01*
X91093Y2031D01*
X91082Y2035D01*
X91073Y2037D01*
X91063D01*
X91047Y2035D01*
X91032Y2033D01*
X91021Y2027D01*
X91010Y2022D01*
X91002Y2016D01*
X90997Y2013D01*
X90993Y2009D01*
X90991Y2007D01*
X90982Y1994D01*
X90976Y1979D01*
X90969Y1948D01*
X90967Y1933D01*
X90965Y1920D01*
Y1913D01*
Y1909D01*
Y1505D01*
X90682D01*
Y1972D01*
X90686Y2022D01*
X90693Y2066D01*
X90702Y2103D01*
X90715Y2133D01*
X90728Y2157D01*
X90738Y2174D01*
X90745Y2183D01*
X90749Y2187D01*
X90776Y2211D01*
X90804Y2227D01*
X90836Y2240D01*
X90863Y2248D01*
X90889Y2253D01*
X90912Y2255D01*
X90919Y2257D01*
X90930D01*
X90958Y2255D01*
X90984Y2253D01*
X91008Y2250D01*
X91026Y2244D01*
X91043Y2239D01*
X91054Y2235D01*
X91063Y2233D01*
X91065Y2231D01*
X91086Y2220D01*
X91106Y2207D01*
X91125Y2192D01*
X91143Y2179D01*
X91158Y2166D01*
X91169Y2155D01*
X91176Y2148D01*
X91178Y2146D01*
Y2520D01*
X91460D01*
Y1505D01*
D02*
G37*
G36*
X93267Y2255D02*
X93291Y2253D01*
X93334Y2242D01*
X93371Y2229D01*
X93402Y2213D01*
X93428Y2196D01*
X93447Y2181D01*
X93452Y2176D01*
X93458Y2170D01*
X93460Y2168D01*
X93461Y2166D01*
X93476Y2148D01*
X93487Y2129D01*
X93508Y2087D01*
X93522Y2044D01*
X93532Y2002D01*
X93539Y1965D01*
X93541Y1948D01*
Y1933D01*
X93543Y1922D01*
Y1913D01*
Y1907D01*
Y1905D01*
X93541Y1852D01*
X93534Y1803D01*
X93522Y1763D01*
X93511Y1727D01*
X93506Y1713D01*
X93500Y1700D01*
X93495Y1689D01*
X93489Y1679D01*
X93485Y1672D01*
X93482Y1666D01*
X93480Y1665D01*
Y1663D01*
X93461Y1640D01*
X93443Y1620D01*
X93422Y1603D01*
X93404Y1589D01*
X93384Y1576D01*
X93363Y1566D01*
X93345Y1557D01*
X93326Y1552D01*
X93293Y1542D01*
X93278Y1539D01*
X93265Y1537D01*
X93256Y1535D01*
X93241D01*
X93213Y1537D01*
X93187Y1540D01*
X93163Y1546D01*
X93141Y1552D01*
X93124Y1557D01*
X93110Y1563D01*
X93102Y1566D01*
X93098Y1568D01*
X93084Y1578D01*
X93069Y1589D01*
X93054Y1600D01*
X93041Y1613D01*
X93030Y1622D01*
X93023Y1631D01*
X93017Y1637D01*
X93015Y1639D01*
Y1528D01*
X93017Y1500D01*
X93021Y1478D01*
X93024Y1459D01*
X93030Y1442D01*
X93037Y1431D01*
X93041Y1424D01*
X93045Y1418D01*
X93047Y1416D01*
X93060Y1405D01*
X93074Y1398D01*
X93089Y1390D01*
X93104Y1387D01*
X93117Y1385D01*
X93128Y1383D01*
X93139D01*
X93156Y1385D01*
X93171Y1387D01*
X93184Y1390D01*
X93195Y1394D01*
X93204Y1398D01*
X93211Y1402D01*
X93215Y1405D01*
X93217D01*
X93224Y1413D01*
X93232Y1420D01*
X93241Y1437D01*
X93245Y1444D01*
X93247Y1452D01*
X93248Y1455D01*
Y1457D01*
X93522Y1489D01*
Y1474D01*
Y1463D01*
Y1453D01*
Y1452D01*
X93521Y1431D01*
X93519Y1413D01*
X93509Y1378D01*
X93497Y1346D01*
X93482Y1322D01*
X93467Y1302D01*
X93454Y1287D01*
X93445Y1278D01*
X93441Y1274D01*
X93424Y1263D01*
X93404Y1252D01*
X93382Y1242D01*
X93358Y1235D01*
X93308Y1224D01*
X93258Y1216D01*
X93234Y1213D01*
X93210Y1211D01*
X93189Y1209D01*
X93171D01*
X93156Y1207D01*
X93100D01*
X93069Y1211D01*
X93039Y1213D01*
X93013Y1216D01*
X92993Y1220D01*
X92978Y1222D01*
X92969Y1226D01*
X92965D01*
X92937Y1233D01*
X92913Y1242D01*
X92893Y1250D01*
X92874Y1259D01*
X92860Y1268D01*
X92850Y1276D01*
X92843Y1279D01*
X92841Y1281D01*
X92823Y1296D01*
X92808Y1313D01*
X92793Y1331D01*
X92782Y1346D01*
X92773Y1361D01*
X92767Y1372D01*
X92763Y1381D01*
X92761Y1383D01*
X92752Y1407D01*
X92745Y1429D01*
X92739Y1452D01*
X92736Y1472D01*
X92734Y1489D01*
X92732Y1502D01*
Y1509D01*
Y1513D01*
Y1546D01*
Y2240D01*
X92997D01*
Y2131D01*
X93015Y2155D01*
X93034Y2174D01*
X93050Y2190D01*
X93067Y2205D01*
X93080Y2214D01*
X93091Y2222D01*
X93098Y2226D01*
X93100Y2227D01*
X93122Y2237D01*
X93147Y2244D01*
X93171Y2250D01*
X93193Y2253D01*
X93213Y2255D01*
X93228Y2257D01*
X93243D01*
X93267Y2255D01*
D02*
G37*
G36*
X85766Y2255D02*
X85794Y2253D01*
X85818Y2248D01*
X85838Y2242D01*
X85855Y2237D01*
X85866Y2233D01*
X85875Y2229D01*
X85877Y2227D01*
X85899Y2214D01*
X85920Y2202D01*
X85938Y2185D01*
X85957Y2168D01*
X85971Y2155D01*
X85982Y2142D01*
X85990Y2135D01*
X85992Y2131D01*
Y2240D01*
X86255D01*
Y1505D01*
X85971D01*
Y1879D01*
X85970Y1909D01*
X85966Y1933D01*
X85962Y1953D01*
X85957Y1970D01*
X85951Y1983D01*
X85945Y1992D01*
X85944Y1998D01*
X85942Y2000D01*
X85929Y2013D01*
X85916Y2022D01*
X85903Y2027D01*
X85890Y2033D01*
X85877Y2035D01*
X85868Y2037D01*
X85860D01*
X85840Y2033D01*
X85823Y2027D01*
X85812Y2022D01*
X85810Y2018D01*
X85808D01*
X85794Y2003D01*
X85784Y1990D01*
X85779Y1979D01*
X85777Y1976D01*
Y1974D01*
X85775Y1966D01*
X85773Y1957D01*
X85771Y1935D01*
Y1926D01*
Y1916D01*
Y1911D01*
Y1909D01*
Y1505D01*
X85488D01*
Y1885D01*
X85486Y1913D01*
X85483Y1937D01*
X85479Y1957D01*
X85473Y1972D01*
X85468Y1985D01*
X85462Y1992D01*
X85460Y1998D01*
X85458Y2000D01*
X85447Y2013D01*
X85433Y2022D01*
X85420Y2027D01*
X85407Y2033D01*
X85396Y2035D01*
X85386Y2037D01*
X85379D01*
X85364Y2035D01*
X85349Y2031D01*
X85338Y2024D01*
X85327Y2018D01*
X85320Y2011D01*
X85314Y2003D01*
X85310Y2000D01*
X85309Y1998D01*
X85301Y1989D01*
X85297Y1976D01*
X85290Y1952D01*
Y1940D01*
X85288Y1931D01*
Y1926D01*
Y1924D01*
Y1505D01*
X85005D01*
Y1966D01*
Y1994D01*
X85009Y2018D01*
X85016Y2065D01*
X85025Y2102D01*
X85038Y2133D01*
X85051Y2157D01*
X85060Y2174D01*
X85068Y2183D01*
X85071Y2187D01*
X85099Y2211D01*
X85129Y2227D01*
X85159Y2240D01*
X85188Y2248D01*
X85216Y2253D01*
X85236Y2255D01*
X85246Y2257D01*
X85257D01*
X85286Y2255D01*
X85312Y2253D01*
X85336Y2248D01*
X85355Y2244D01*
X85371Y2239D01*
X85384Y2233D01*
X85392Y2231D01*
X85394Y2229D01*
X85414Y2218D01*
X85434Y2203D01*
X85455Y2187D01*
X85473Y2170D01*
X85490Y2155D01*
X85503Y2142D01*
X85510Y2135D01*
X85514Y2131D01*
X85527Y2153D01*
X85540Y2172D01*
X85555Y2189D01*
X85568Y2202D01*
X85579Y2213D01*
X85588Y2220D01*
X85596Y2224D01*
X85597Y2226D01*
X85618Y2237D01*
X85640Y2244D01*
X85664Y2250D01*
X85686Y2253D01*
X85707Y2255D01*
X85721Y2257D01*
X85736D01*
X85766Y2255D01*
D02*
G37*
G36*
X80352D02*
X80376Y2253D01*
X80398Y2252D01*
X80416Y2248D01*
X80431Y2246D01*
X80439Y2244D01*
X80442D01*
X80466Y2240D01*
X80487Y2235D01*
X80505Y2229D01*
X80520Y2224D01*
X80531Y2218D01*
X80540Y2214D01*
X80546Y2213D01*
X80548Y2211D01*
X80566Y2200D01*
X80583Y2187D01*
X80598Y2176D01*
X80609Y2164D01*
X80618Y2155D01*
X80626Y2148D01*
X80629Y2142D01*
X80631Y2140D01*
X80640Y2124D01*
X80650Y2105D01*
X80657Y2087D01*
X80663Y2070D01*
X80668Y2053D01*
X80670Y2040D01*
X80674Y2033D01*
Y2029D01*
X80403Y2002D01*
X80398Y2018D01*
X80390Y2031D01*
X80383Y2042D01*
X80376Y2052D01*
X80370Y2059D01*
X80365Y2063D01*
X80363Y2066D01*
X80361D01*
X80346Y2074D01*
X80329Y2079D01*
X80296Y2087D01*
X80281D01*
X80268Y2089D01*
X80239D01*
X80222Y2085D01*
X80209Y2081D01*
X80200Y2077D01*
X80191Y2074D01*
X80185Y2070D01*
X80183Y2068D01*
X80181Y2066D01*
X80174Y2057D01*
X80168Y2046D01*
X80161Y2024D01*
Y2013D01*
X80159Y2003D01*
Y1998D01*
Y1996D01*
X80198Y1981D01*
X80215Y1976D01*
X80229Y1970D01*
X80242Y1966D01*
X80252Y1963D01*
X80259Y1961D01*
X80261D01*
X80270Y1959D01*
X80283Y1955D01*
X80313Y1948D01*
X80346Y1940D01*
X80381Y1933D01*
X80413Y1927D01*
X80428Y1924D01*
X80440Y1922D01*
X80452Y1920D01*
X80459Y1918D01*
X80465Y1916D01*
X80466D01*
X80490Y1911D01*
X80513Y1905D01*
X80550Y1892D01*
X80581Y1879D01*
X80607Y1866D01*
X80626Y1855D01*
X80639Y1846D01*
X80646Y1839D01*
X80648Y1837D01*
X80665Y1816D01*
X80676Y1792D01*
X80685Y1770D01*
X80690Y1748D01*
X80694Y1729D01*
X80696Y1715D01*
Y1703D01*
Y1702D01*
Y1700D01*
X80692Y1666D01*
X80685Y1639D01*
X80676Y1613D01*
X80663Y1590D01*
X80650Y1572D01*
X80640Y1559D01*
X80633Y1552D01*
X80629Y1548D01*
X80602Y1528D01*
X80568Y1515D01*
X80535Y1503D01*
X80503Y1496D01*
X80474Y1492D01*
X80461Y1490D01*
X80450D01*
X80440Y1489D01*
X80428D01*
X80392Y1490D01*
X80359Y1494D01*
X80329Y1498D01*
X80303Y1503D01*
X80283Y1509D01*
X80266Y1515D01*
X80257Y1516D01*
X80253Y1518D01*
X80233Y1528D01*
X80215Y1540D01*
X80196Y1552D01*
X80179Y1565D01*
X80165Y1576D01*
X80153Y1585D01*
X80146Y1592D01*
X80144Y1594D01*
X80141Y1574D01*
X80137Y1559D01*
X80135Y1552D01*
Y1548D01*
X80129Y1535D01*
X80122Y1522D01*
X80115Y1511D01*
X80113Y1507D01*
Y1505D01*
X79848D01*
X79863Y1535D01*
X79866Y1548D01*
X79870Y1559D01*
X79874Y1568D01*
X79876Y1574D01*
X79878Y1578D01*
Y1579D01*
X79879Y1592D01*
X79881Y1605D01*
X79883Y1631D01*
Y1642D01*
Y1652D01*
Y1659D01*
Y1661D01*
Y1985D01*
Y2005D01*
X79887Y2024D01*
X79891Y2042D01*
X79894Y2059D01*
X79898Y2074D01*
X79902Y2085D01*
X79904Y2092D01*
X79905Y2094D01*
X79913Y2114D01*
X79922Y2133D01*
X79931Y2148D01*
X79941Y2161D01*
X79948Y2170D01*
X79955Y2177D01*
X79959Y2181D01*
X79961Y2183D01*
X79981Y2198D01*
X80003Y2211D01*
X80024Y2222D01*
X80044Y2229D01*
X80063Y2235D01*
X80078Y2239D01*
X80087Y2242D01*
X80091D01*
X80120Y2248D01*
X80153Y2252D01*
X80189Y2253D01*
X80220Y2255D01*
X80250Y2257D01*
X80324D01*
X80352Y2255D01*
D02*
G37*
G36*
X77359Y2535D02*
X77400Y2529D01*
X77435Y2524D01*
X77467Y2516D01*
X77491Y2507D01*
X77509Y2501D01*
X77520Y2496D01*
X77522Y2494D01*
X77524D01*
X77554Y2477D01*
X77580Y2457D01*
X77602Y2435D01*
X77620Y2414D01*
X77635Y2396D01*
X77646Y2381D01*
X77654Y2372D01*
X77656Y2370D01*
Y2368D01*
X77670Y2337D01*
X77682Y2305D01*
X77691Y2274D01*
X77696Y2246D01*
X77700Y2220D01*
X77702Y2202D01*
Y2194D01*
Y2189D01*
Y2187D01*
Y2185D01*
X77700Y2157D01*
X77698Y2131D01*
X77687Y2085D01*
X77672Y2042D01*
X77656Y2007D01*
X77646Y1992D01*
X77639Y1979D01*
X77632Y1968D01*
X77624Y1957D01*
X77619Y1950D01*
X77613Y1944D01*
X77611Y1942D01*
X77609Y1940D01*
X77591Y1924D01*
X77572Y1909D01*
X77554Y1896D01*
X77533Y1885D01*
X77494Y1868D01*
X77459Y1857D01*
X77428Y1850D01*
X77413Y1848D01*
X77402Y1846D01*
X77393Y1844D01*
X77380D01*
X77354Y1846D01*
X77332Y1848D01*
X77309Y1852D01*
X77293Y1857D01*
X77278Y1861D01*
X77267Y1865D01*
X77259Y1866D01*
X77257Y1868D01*
X77237Y1879D01*
X77219Y1890D01*
X77200Y1903D01*
X77185Y1915D01*
X77170Y1926D01*
X77161Y1935D01*
X77154Y1942D01*
X77152Y1944D01*
X77156Y1915D01*
X77157Y1889D01*
X77161Y1865D01*
X77165Y1842D01*
X77169Y1822D01*
X77172Y1805D01*
X77176Y1789D01*
X77178Y1776D01*
X77182Y1765D01*
X77185Y1755D01*
X77189Y1740D01*
X77193Y1731D01*
X77195Y1729D01*
X77209Y1707D01*
X77226Y1690D01*
X77245Y1679D01*
X77261Y1672D01*
X77276Y1666D01*
X77289Y1665D01*
X77296Y1663D01*
X77300D01*
X77313Y1665D01*
X77326Y1666D01*
X77346Y1676D01*
X77354Y1679D01*
X77359Y1683D01*
X77363Y1685D01*
X77365Y1687D01*
X77374Y1698D01*
X77382Y1711D01*
X77393Y1737D01*
X77396Y1750D01*
X77398Y1761D01*
X77400Y1768D01*
Y1770D01*
X77680Y1733D01*
X77670Y1703D01*
X77659Y1678D01*
X77646Y1655D01*
X77635Y1635D01*
X77626Y1620D01*
X77617Y1607D01*
X77611Y1600D01*
X77609Y1598D01*
X77591Y1579D01*
X77572Y1563D01*
X77552Y1548D01*
X77535Y1537D01*
X77519Y1528D01*
X77506Y1522D01*
X77498Y1518D01*
X77494Y1516D01*
X77467Y1507D01*
X77435Y1500D01*
X77402Y1496D01*
X77372Y1492D01*
X77345Y1490D01*
X77322Y1489D01*
X77302D01*
X77265Y1490D01*
X77230Y1494D01*
X77196Y1500D01*
X77167Y1509D01*
X77137Y1518D01*
X77111Y1529D01*
X77087Y1540D01*
X77067Y1552D01*
X77046Y1563D01*
X77030Y1576D01*
X77017Y1585D01*
X77004Y1594D01*
X76995Y1603D01*
X76989Y1609D01*
X76985Y1613D01*
X76983Y1615D01*
X76963Y1640D01*
X76945Y1668D01*
X76930Y1700D01*
X76917Y1731D01*
X76904Y1765D01*
X76895Y1798D01*
X76882Y1863D01*
X76876Y1894D01*
X76872Y1924D01*
X76870Y1950D01*
X76869Y1972D01*
X76867Y1990D01*
Y2005D01*
Y2013D01*
Y2016D01*
X76869Y2083D01*
X76872Y2113D01*
X76876Y2142D01*
X76880Y2168D01*
X76883Y2194D01*
X76889Y2216D01*
X76895Y2237D01*
X76900Y2255D01*
X76904Y2270D01*
X76909Y2285D01*
X76913Y2296D01*
X76917Y2305D01*
X76920Y2311D01*
X76922Y2314D01*
Y2316D01*
X76945Y2357D01*
X76969Y2390D01*
X76993Y2420D01*
X77017Y2442D01*
X77039Y2461D01*
X77056Y2474D01*
X77067Y2481D01*
X77069Y2483D01*
X77070D01*
X77107Y2501D01*
X77146Y2514D01*
X77187Y2524D01*
X77226Y2529D01*
X77259Y2535D01*
X77274D01*
X77287Y2537D01*
X77313D01*
X77359Y2535D01*
D02*
G37*
G36*
X81305Y1505D02*
X81055D01*
X80742Y2240D01*
X81027D01*
X81176Y1774D01*
X81318Y2240D01*
X81611D01*
X81305Y1505D01*
D02*
G37*
G36*
X90515Y1772D02*
X90512Y1722D01*
X90504Y1678D01*
X90495Y1640D01*
X90482Y1611D01*
X90471Y1587D01*
X90460Y1570D01*
X90452Y1561D01*
X90451Y1557D01*
X90423Y1535D01*
X90393Y1518D01*
X90364Y1505D01*
X90334Y1498D01*
X90308Y1492D01*
X90286Y1490D01*
X90278Y1489D01*
X90267D01*
X90236Y1490D01*
X90208Y1494D01*
X90182Y1498D01*
X90162Y1503D01*
X90145Y1509D01*
X90132Y1515D01*
X90123Y1516D01*
X90121Y1518D01*
X90099Y1531D01*
X90077Y1548D01*
X90056Y1566D01*
X90038Y1583D01*
X90023Y1598D01*
X90010Y1613D01*
X90002Y1620D01*
X90001Y1624D01*
Y1505D01*
X89738D01*
Y2240D01*
X90019D01*
Y1887D01*
X90021Y1852D01*
X90025Y1822D01*
X90030Y1798D01*
X90036Y1777D01*
X90041Y1765D01*
X90047Y1753D01*
X90051Y1748D01*
X90052Y1746D01*
X90065Y1733D01*
X90078Y1724D01*
X90093Y1718D01*
X90106Y1715D01*
X90117Y1711D01*
X90127Y1709D01*
X90136D01*
X90152Y1711D01*
X90167Y1713D01*
X90178Y1718D01*
X90189Y1724D01*
X90197Y1727D01*
X90202Y1733D01*
X90206Y1735D01*
X90208Y1737D01*
X90215Y1750D01*
X90221Y1765D01*
X90228Y1798D01*
X90230Y1811D01*
X90232Y1824D01*
Y1831D01*
Y1835D01*
Y2240D01*
X90515D01*
Y1772D01*
D02*
G37*
G36*
X92032Y2374D02*
Y2240D01*
X92136D01*
Y2035D01*
X92032D01*
Y1776D01*
X92030Y1733D01*
X92028Y1696D01*
X92024Y1665D01*
X92021Y1639D01*
X92017Y1620D01*
X92013Y1607D01*
X92010Y1598D01*
Y1596D01*
X92000Y1578D01*
X91987Y1561D01*
X91976Y1546D01*
X91963Y1535D01*
X91952Y1526D01*
X91943Y1520D01*
X91937Y1516D01*
X91936Y1515D01*
X91915Y1505D01*
X91889Y1500D01*
X91865Y1494D01*
X91839Y1492D01*
X91815Y1490D01*
X91797Y1489D01*
X91780D01*
X91745Y1490D01*
X91712Y1492D01*
X91678Y1496D01*
X91649Y1500D01*
X91623Y1503D01*
X91602Y1507D01*
X91595Y1509D01*
X91589Y1511D01*
X91584D01*
X91606Y1705D01*
X91626Y1700D01*
X91643Y1696D01*
X91658Y1692D01*
X91671Y1690D01*
X91680D01*
X91687Y1689D01*
X91693D01*
X91704Y1690D01*
X91715Y1692D01*
X91730Y1700D01*
X91737Y1707D01*
X91741Y1711D01*
X91743Y1718D01*
X91745Y1727D01*
X91747Y1748D01*
X91749Y1757D01*
Y1766D01*
Y1772D01*
Y1774D01*
Y2035D01*
X91593D01*
Y2240D01*
X91749D01*
Y2520D01*
X92032Y2374D01*
D02*
G37*
G36*
X87801Y2255D02*
X87842Y2252D01*
X87879Y2246D01*
X87908Y2240D01*
X87932Y2233D01*
X87951Y2227D01*
X87962Y2224D01*
X87964Y2222D01*
X87966D01*
X87984Y2213D01*
X88003Y2203D01*
X88021Y2192D01*
X88036Y2181D01*
X88049Y2172D01*
X88058Y2164D01*
X88066Y2159D01*
X88067Y2157D01*
X88084Y2140D01*
X88099Y2122D01*
X88114Y2105D01*
X88125Y2090D01*
X88134Y2077D01*
X88140Y2066D01*
X88143Y2059D01*
X88145Y2057D01*
X88158Y2027D01*
X88167Y1996D01*
X88173Y1965D01*
X88177Y1935D01*
X88180Y1909D01*
X88182Y1887D01*
Y1879D01*
Y1874D01*
Y1870D01*
Y1868D01*
X88180Y1829D01*
X88177Y1796D01*
X88173Y1766D01*
X88166Y1740D01*
X88160Y1720D01*
X88156Y1707D01*
X88153Y1698D01*
X88151Y1694D01*
X88138Y1670D01*
X88123Y1650D01*
X88110Y1629D01*
X88095Y1613D01*
X88082Y1598D01*
X88073Y1589D01*
X88066Y1581D01*
X88064Y1579D01*
X88042Y1563D01*
X88019Y1548D01*
X87997Y1537D01*
X87977Y1526D01*
X87958Y1518D01*
X87943Y1513D01*
X87934Y1511D01*
X87930Y1509D01*
X87899Y1502D01*
X87866Y1498D01*
X87834Y1494D01*
X87803Y1490D01*
X87775D01*
X87753Y1489D01*
X87734D01*
X87692Y1490D01*
X87653Y1494D01*
X87619Y1500D01*
X87590Y1505D01*
X87568Y1511D01*
X87551Y1516D01*
X87540Y1520D01*
X87536Y1522D01*
X87508Y1535D01*
X87482Y1552D01*
X87460Y1566D01*
X87442Y1581D01*
X87427Y1596D01*
X87416Y1607D01*
X87408Y1615D01*
X87406Y1616D01*
X87388Y1640D01*
X87373Y1666D01*
X87360Y1690D01*
X87349Y1715D01*
X87342Y1735D01*
X87336Y1750D01*
X87334Y1761D01*
X87332Y1765D01*
X87601Y1794D01*
X87608Y1774D01*
X87618Y1755D01*
X87629Y1740D01*
X87638Y1729D01*
X87645Y1718D01*
X87653Y1713D01*
X87656Y1709D01*
X87658Y1707D01*
X87673Y1698D01*
X87688Y1690D01*
X87705Y1687D01*
X87718Y1683D01*
X87730Y1681D01*
X87742Y1679D01*
X87751D01*
X87775Y1681D01*
X87795Y1687D01*
X87814Y1694D01*
X87830Y1703D01*
X87843Y1711D01*
X87853Y1718D01*
X87858Y1724D01*
X87860Y1726D01*
X87875Y1744D01*
X87884Y1766D01*
X87892Y1789D01*
X87897Y1811D01*
X87901Y1831D01*
X87903Y1848D01*
Y1859D01*
Y1861D01*
Y1863D01*
X87901Y1898D01*
X87895Y1929D01*
X87890Y1955D01*
X87880Y1977D01*
X87873Y1994D01*
X87867Y2005D01*
X87862Y2013D01*
X87860Y2014D01*
X87843Y2031D01*
X87825Y2044D01*
X87806Y2052D01*
X87788Y2059D01*
X87771Y2063D01*
X87758Y2065D01*
X87747D01*
X87727Y2063D01*
X87710Y2061D01*
X87695Y2057D01*
X87682Y2052D01*
X87671Y2046D01*
X87664Y2042D01*
X87660Y2040D01*
X87658Y2039D01*
X87647Y2029D01*
X87636Y2018D01*
X87623Y1994D01*
X87618Y1985D01*
X87614Y1976D01*
X87612Y1970D01*
Y1968D01*
X87347Y2003D01*
X87364Y2048D01*
X87384Y2085D01*
X87406Y2118D01*
X87429Y2144D01*
X87449Y2164D01*
X87466Y2181D01*
X87477Y2189D01*
X87479Y2192D01*
X87480D01*
X87499Y2203D01*
X87519Y2214D01*
X87564Y2229D01*
X87608Y2240D01*
X87653Y2250D01*
X87673Y2252D01*
X87693Y2253D01*
X87710Y2255D01*
X87725D01*
X87738Y2257D01*
X87755D01*
X87801Y2255D01*
D02*
G37*
G36*
X92550Y1505D02*
X92269D01*
Y2240D01*
X92550D01*
Y1505D01*
D02*
G37*
G36*
X88621D02*
X88319D01*
Y1789D01*
X88621D01*
Y1505D01*
D02*
G37*
G36*
X84212Y2533D02*
X84236Y2529D01*
X84257Y2526D01*
X84272Y2522D01*
X84283Y2518D01*
X84290Y2516D01*
X84292Y2514D01*
X84309Y2507D01*
X84323Y2498D01*
X84336Y2489D01*
X84347Y2479D01*
X84357Y2472D01*
X84362Y2464D01*
X84366Y2461D01*
X84368Y2459D01*
X84377Y2446D01*
X84385Y2431D01*
X84396Y2403D01*
X84399Y2390D01*
X84401Y2381D01*
X84403Y2374D01*
Y2372D01*
X84409Y2333D01*
X84410Y2316D01*
Y2302D01*
X84412Y2289D01*
Y2279D01*
Y2274D01*
Y2272D01*
Y2240D01*
X84518D01*
Y2035D01*
X84412D01*
Y1505D01*
X84129D01*
Y2035D01*
X83994D01*
Y2240D01*
X84129D01*
Y2257D01*
Y2270D01*
Y2281D01*
X84127Y2290D01*
Y2296D01*
Y2300D01*
Y2303D01*
X84120Y2322D01*
X84112Y2335D01*
X84105Y2342D01*
X84103Y2344D01*
X84096Y2348D01*
X84086Y2352D01*
X84070Y2355D01*
X84060Y2357D01*
X84048D01*
X84022Y2355D01*
X83996Y2353D01*
X83983Y2352D01*
X83973Y2350D01*
X83968Y2348D01*
X83966D01*
X83935Y2518D01*
X83985Y2524D01*
X84029Y2529D01*
X84066Y2533D01*
X84096Y2535D01*
X84120Y2537D01*
X84185D01*
X84212Y2533D01*
D02*
G37*
G36*
X82937Y1505D02*
X82653D01*
Y2520D01*
X82937D01*
Y1505D01*
D02*
G37*
G36*
X79291Y2255D02*
X79309Y2253D01*
X79328Y2248D01*
X79342Y2242D01*
X79354Y2237D01*
X79363Y2233D01*
X79368Y2229D01*
X79370Y2227D01*
X79385Y2214D01*
X79398Y2198D01*
X79424Y2163D01*
X79433Y2146D01*
X79441Y2133D01*
X79446Y2124D01*
X79448Y2120D01*
Y2240D01*
X79711D01*
Y1505D01*
X79428D01*
Y1752D01*
Y1783D01*
X79426Y1813D01*
X79424Y1839D01*
X79420Y1863D01*
X79418Y1885D01*
X79415Y1905D01*
X79411Y1922D01*
X79405Y1939D01*
X79402Y1952D01*
X79398Y1963D01*
X79394Y1972D01*
X79392Y1979D01*
X79387Y1989D01*
X79385Y1992D01*
X79372Y2007D01*
X79357Y2018D01*
X79344Y2027D01*
X79329Y2033D01*
X79317Y2037D01*
X79307Y2039D01*
X79287D01*
X79274Y2035D01*
X79248Y2027D01*
X79237Y2024D01*
X79228Y2020D01*
X79222Y2018D01*
X79220Y2016D01*
X79131Y2218D01*
X79159Y2231D01*
X79185Y2240D01*
X79207Y2248D01*
X79228Y2252D01*
X79244Y2255D01*
X79257Y2257D01*
X79268D01*
X79291Y2255D01*
D02*
G37*
G36*
X79074Y1505D02*
X78793D01*
Y2240D01*
X79074D01*
Y1505D01*
D02*
G37*
G36*
X86853Y2255D02*
X86886Y2252D01*
X86918Y2248D01*
X86947Y2240D01*
X86975Y2231D01*
X87001Y2222D01*
X87023Y2213D01*
X87044Y2203D01*
X87062Y2192D01*
X87079Y2183D01*
X87093Y2174D01*
X87105Y2164D01*
X87114Y2157D01*
X87119Y2153D01*
X87123Y2150D01*
X87125Y2148D01*
X87145Y2127D01*
X87162Y2105D01*
X87177Y2081D01*
X87190Y2059D01*
X87201Y2035D01*
X87210Y2013D01*
X87223Y1968D01*
X87229Y1948D01*
X87232Y1929D01*
X87234Y1913D01*
X87236Y1898D01*
X87238Y1887D01*
Y1877D01*
Y1872D01*
Y1870D01*
X87236Y1837D01*
X87232Y1805D01*
X87225Y1776D01*
X87218Y1748D01*
X87206Y1722D01*
X87195Y1698D01*
X87184Y1676D01*
X87171Y1655D01*
X87158Y1639D01*
X87147Y1622D01*
X87136Y1609D01*
X87125Y1598D01*
X87118Y1589D01*
X87110Y1583D01*
X87106Y1579D01*
X87105Y1578D01*
X87084Y1563D01*
X87060Y1548D01*
X87014Y1526D01*
X86966Y1511D01*
X86919Y1500D01*
X86899Y1496D01*
X86879Y1494D01*
X86862Y1490D01*
X86847D01*
X86834Y1489D01*
X86818D01*
X86781Y1490D01*
X86747Y1494D01*
X86714Y1498D01*
X86684Y1505D01*
X86657Y1513D01*
X86631Y1522D01*
X86607Y1533D01*
X86586Y1542D01*
X86568Y1552D01*
X86551Y1563D01*
X86536Y1572D01*
X86525Y1579D01*
X86516Y1587D01*
X86510Y1592D01*
X86507Y1594D01*
X86505Y1596D01*
X86484Y1616D01*
X86468Y1639D01*
X86453Y1663D01*
X86440Y1685D01*
X86429Y1709D01*
X86419Y1731D01*
X86407Y1776D01*
X86401Y1796D01*
X86397Y1815D01*
X86395Y1831D01*
X86394Y1846D01*
X86392Y1857D01*
Y1866D01*
Y1872D01*
Y1874D01*
X86394Y1902D01*
X86395Y1927D01*
X86407Y1977D01*
X86421Y2020D01*
X86438Y2057D01*
X86447Y2074D01*
X86455Y2087D01*
X86462Y2100D01*
X86469Y2109D01*
X86475Y2116D01*
X86481Y2124D01*
X86482Y2126D01*
X86484Y2127D01*
X86507Y2150D01*
X86531Y2170D01*
X86557Y2187D01*
X86584Y2203D01*
X86612Y2214D01*
X86640Y2226D01*
X86668Y2235D01*
X86694Y2240D01*
X86718Y2246D01*
X86742Y2250D01*
X86764Y2253D01*
X86781Y2255D01*
X86797Y2257D01*
X86818D01*
X86853Y2255D01*
D02*
G37*
G36*
X84923Y1489D02*
X84783D01*
X84525Y2537D01*
X84668D01*
X84923Y1489D01*
D02*
G37*
G36*
X83542Y2255D02*
X83575Y2252D01*
X83607Y2248D01*
X83636Y2240D01*
X83664Y2231D01*
X83690Y2222D01*
X83712Y2213D01*
X83733Y2203D01*
X83751Y2192D01*
X83768Y2183D01*
X83783Y2174D01*
X83794Y2164D01*
X83803Y2157D01*
X83809Y2153D01*
X83812Y2150D01*
X83814Y2148D01*
X83835Y2127D01*
X83851Y2105D01*
X83866Y2081D01*
X83879Y2059D01*
X83890Y2035D01*
X83899Y2013D01*
X83912Y1968D01*
X83918Y1948D01*
X83922Y1929D01*
X83923Y1913D01*
X83925Y1898D01*
X83927Y1887D01*
Y1877D01*
Y1872D01*
Y1870D01*
X83925Y1837D01*
X83922Y1805D01*
X83914Y1776D01*
X83907Y1748D01*
X83896Y1722D01*
X83885Y1698D01*
X83873Y1676D01*
X83860Y1655D01*
X83848Y1639D01*
X83836Y1622D01*
X83825Y1609D01*
X83814Y1598D01*
X83807Y1589D01*
X83799Y1583D01*
X83796Y1579D01*
X83794Y1578D01*
X83773Y1563D01*
X83749Y1548D01*
X83703Y1526D01*
X83655Y1511D01*
X83609Y1500D01*
X83588Y1496D01*
X83568Y1494D01*
X83551Y1490D01*
X83536D01*
X83523Y1489D01*
X83507D01*
X83470Y1490D01*
X83436Y1494D01*
X83403Y1498D01*
X83374Y1505D01*
X83346Y1513D01*
X83320Y1522D01*
X83296Y1533D01*
X83275Y1542D01*
X83257Y1552D01*
X83240Y1563D01*
X83225Y1572D01*
X83214Y1579D01*
X83205Y1587D01*
X83199Y1592D01*
X83196Y1594D01*
X83194Y1596D01*
X83174Y1616D01*
X83157Y1639D01*
X83142Y1663D01*
X83129Y1685D01*
X83118Y1709D01*
X83109Y1731D01*
X83096Y1776D01*
X83090Y1796D01*
X83087Y1815D01*
X83085Y1831D01*
X83083Y1846D01*
X83081Y1857D01*
Y1866D01*
Y1872D01*
Y1874D01*
X83083Y1902D01*
X83085Y1927D01*
X83096Y1977D01*
X83111Y2020D01*
X83127Y2057D01*
X83136Y2074D01*
X83144Y2087D01*
X83151Y2100D01*
X83159Y2109D01*
X83164Y2116D01*
X83170Y2124D01*
X83172Y2126D01*
X83174Y2127D01*
X83196Y2150D01*
X83220Y2170D01*
X83246Y2187D01*
X83274Y2203D01*
X83301Y2214D01*
X83329Y2226D01*
X83357Y2235D01*
X83383Y2240D01*
X83407Y2246D01*
X83431Y2250D01*
X83453Y2253D01*
X83470Y2255D01*
X83486Y2257D01*
X83507D01*
X83542Y2255D01*
D02*
G37*
G36*
X81985Y2168D02*
X82001Y2183D01*
X82018Y2198D01*
X82035Y2209D01*
X82050Y2218D01*
X82063Y2226D01*
X82072Y2231D01*
X82079Y2233D01*
X82081Y2235D01*
X82101Y2242D01*
X82122Y2248D01*
X82142Y2252D01*
X82161Y2255D01*
X82175D01*
X82188Y2257D01*
X82200D01*
X82224Y2255D01*
X82248Y2253D01*
X82292Y2242D01*
X82329Y2226D01*
X82361Y2209D01*
X82387Y2190D01*
X82405Y2174D01*
X82412Y2168D01*
X82418Y2163D01*
X82420Y2161D01*
X82422Y2159D01*
X82437Y2140D01*
X82450Y2120D01*
X82472Y2076D01*
X82487Y2027D01*
X82498Y1983D01*
X82501Y1963D01*
X82503Y1942D01*
X82507Y1926D01*
Y1909D01*
X82509Y1898D01*
Y1887D01*
Y1881D01*
Y1879D01*
X82505Y1820D01*
X82496Y1766D01*
X82485Y1720D01*
X82477Y1698D01*
X82470Y1679D01*
X82463Y1663D01*
X82455Y1646D01*
X82450Y1633D01*
X82444Y1622D01*
X82438Y1613D01*
X82435Y1607D01*
X82431Y1603D01*
Y1602D01*
X82414Y1581D01*
X82398Y1565D01*
X82381Y1550D01*
X82361Y1537D01*
X82342Y1526D01*
X82324Y1516D01*
X82287Y1503D01*
X82253Y1494D01*
X82238Y1492D01*
X82225Y1490D01*
X82216Y1489D01*
X82201D01*
X82174Y1490D01*
X82150Y1494D01*
X82125Y1498D01*
X82105Y1505D01*
X82090Y1511D01*
X82077Y1515D01*
X82068Y1518D01*
X82066Y1520D01*
X82048Y1531D01*
X82031Y1544D01*
X82014Y1561D01*
X81998Y1576D01*
X81985Y1590D01*
X81974Y1602D01*
X81966Y1609D01*
X81964Y1613D01*
Y1505D01*
X81700D01*
Y2520D01*
X81985D01*
Y2168D01*
D02*
G37*
G36*
X78124D02*
X78141Y2183D01*
X78157Y2198D01*
X78174Y2209D01*
X78189Y2218D01*
X78202Y2226D01*
X78211Y2231D01*
X78218Y2233D01*
X78220Y2235D01*
X78241Y2242D01*
X78261Y2248D01*
X78281Y2252D01*
X78300Y2255D01*
X78315D01*
X78328Y2257D01*
X78339D01*
X78363Y2255D01*
X78387Y2253D01*
X78431Y2242D01*
X78468Y2226D01*
X78500Y2209D01*
X78526Y2190D01*
X78544Y2174D01*
X78552Y2168D01*
X78557Y2163D01*
X78559Y2161D01*
X78561Y2159D01*
X78576Y2140D01*
X78589Y2120D01*
X78611Y2076D01*
X78626Y2027D01*
X78637Y1983D01*
X78641Y1963D01*
X78643Y1942D01*
X78646Y1926D01*
Y1909D01*
X78648Y1898D01*
Y1887D01*
Y1881D01*
Y1879D01*
X78644Y1820D01*
X78635Y1766D01*
X78624Y1720D01*
X78617Y1698D01*
X78609Y1679D01*
X78602Y1663D01*
X78594Y1646D01*
X78589Y1633D01*
X78583Y1622D01*
X78578Y1613D01*
X78574Y1607D01*
X78570Y1603D01*
Y1602D01*
X78554Y1581D01*
X78537Y1565D01*
X78520Y1550D01*
X78500Y1537D01*
X78481Y1526D01*
X78463Y1516D01*
X78426Y1503D01*
X78393Y1494D01*
X78378Y1492D01*
X78365Y1490D01*
X78356Y1489D01*
X78341D01*
X78313Y1490D01*
X78289Y1494D01*
X78265Y1498D01*
X78244Y1505D01*
X78230Y1511D01*
X78217Y1515D01*
X78207Y1518D01*
X78206Y1520D01*
X78187Y1531D01*
X78170Y1544D01*
X78154Y1561D01*
X78137Y1576D01*
X78124Y1590D01*
X78113Y1602D01*
X78106Y1609D01*
X78104Y1613D01*
Y1505D01*
X77839D01*
Y2520D01*
X78124D01*
Y2168D01*
D02*
G37*
%LPC*%
G36*
X92167Y3601D02*
X92163D01*
X92139Y3597D01*
X92119Y3590D01*
X92100Y3578D01*
X92086Y3565D01*
X92074Y3552D01*
X92067Y3541D01*
X92062Y3534D01*
X92060Y3530D01*
X92054Y3515D01*
X92049Y3499D01*
X92043Y3478D01*
X92039Y3458D01*
X92034Y3414D01*
X92028Y3367D01*
X92026Y3327D01*
Y3306D01*
X92024Y3291D01*
Y3277D01*
Y3267D01*
Y3260D01*
Y3258D01*
Y3210D01*
X92026Y3169D01*
X92030Y3134D01*
X92032Y3106D01*
X92036Y3084D01*
X92039Y3069D01*
X92041Y3060D01*
Y3056D01*
X92047Y3034D01*
X92054Y3014D01*
X92062Y2999D01*
X92069Y2984D01*
X92076Y2975D01*
X92082Y2967D01*
X92086Y2964D01*
X92087Y2962D01*
X92100Y2953D01*
X92113Y2945D01*
X92124Y2940D01*
X92137Y2936D01*
X92147Y2934D01*
X92156Y2932D01*
X92163D01*
X92186Y2936D01*
X92206Y2943D01*
X92223Y2954D01*
X92237Y2967D01*
X92249Y2980D01*
X92256Y2991D01*
X92261Y2999D01*
X92263Y3003D01*
X92269Y3017D01*
X92274Y3034D01*
X92278Y3053D01*
X92282Y3073D01*
X92289Y3117D01*
X92293Y3162D01*
X92295Y3203D01*
Y3221D01*
X92297Y3236D01*
Y3249D01*
Y3258D01*
Y3265D01*
Y3267D01*
Y3303D01*
X92295Y3334D01*
X92293Y3362D01*
X92291Y3390D01*
X92289Y3412D01*
X92287Y3434D01*
X92284Y3453D01*
X92280Y3469D01*
X92278Y3484D01*
X92274Y3497D01*
X92273Y3506D01*
X92271Y3514D01*
X92269Y3521D01*
X92267Y3525D01*
X92265Y3528D01*
X92252Y3552D01*
X92236Y3571D01*
X92219Y3584D01*
X92202Y3591D01*
X92187Y3597D01*
X92174Y3599D01*
X92167Y3601D01*
D02*
G37*
G36*
X90275D02*
X90271D01*
X90247Y3597D01*
X90227Y3590D01*
X90208Y3578D01*
X90193Y3565D01*
X90182Y3552D01*
X90175Y3541D01*
X90169Y3534D01*
X90167Y3530D01*
X90162Y3515D01*
X90156Y3499D01*
X90151Y3478D01*
X90147Y3458D01*
X90141Y3414D01*
X90136Y3367D01*
X90134Y3327D01*
Y3306D01*
X90132Y3291D01*
Y3277D01*
Y3267D01*
Y3260D01*
Y3258D01*
Y3210D01*
X90134Y3169D01*
X90138Y3134D01*
X90139Y3106D01*
X90143Y3084D01*
X90147Y3069D01*
X90149Y3060D01*
Y3056D01*
X90154Y3034D01*
X90162Y3014D01*
X90169Y2999D01*
X90177Y2984D01*
X90184Y2975D01*
X90189Y2967D01*
X90193Y2964D01*
X90195Y2962D01*
X90208Y2953D01*
X90221Y2945D01*
X90232Y2940D01*
X90245Y2936D01*
X90254Y2934D01*
X90264Y2932D01*
X90271D01*
X90293Y2936D01*
X90314Y2943D01*
X90330Y2954D01*
X90345Y2967D01*
X90356Y2980D01*
X90364Y2991D01*
X90369Y2999D01*
X90371Y3003D01*
X90376Y3017D01*
X90382Y3034D01*
X90386Y3053D01*
X90389Y3073D01*
X90397Y3117D01*
X90401Y3162D01*
X90402Y3203D01*
Y3221D01*
X90404Y3236D01*
Y3249D01*
Y3258D01*
Y3265D01*
Y3267D01*
Y3303D01*
X90402Y3334D01*
X90401Y3362D01*
X90399Y3390D01*
X90397Y3412D01*
X90395Y3434D01*
X90391Y3453D01*
X90388Y3469D01*
X90386Y3484D01*
X90382Y3497D01*
X90380Y3506D01*
X90378Y3514D01*
X90376Y3521D01*
X90375Y3525D01*
X90373Y3528D01*
X90360Y3552D01*
X90343Y3571D01*
X90326Y3584D01*
X90310Y3591D01*
X90295Y3597D01*
X90282Y3599D01*
X90275Y3601D01*
D02*
G37*
G36*
X88856D02*
X88853D01*
X88828Y3597D01*
X88808Y3590D01*
X88790Y3578D01*
X88775Y3565D01*
X88764Y3552D01*
X88756Y3541D01*
X88751Y3534D01*
X88749Y3530D01*
X88743Y3515D01*
X88738Y3499D01*
X88732Y3478D01*
X88729Y3458D01*
X88723Y3414D01*
X88717Y3367D01*
X88716Y3327D01*
Y3306D01*
X88714Y3291D01*
Y3277D01*
Y3267D01*
Y3260D01*
Y3258D01*
Y3210D01*
X88716Y3169D01*
X88719Y3134D01*
X88721Y3106D01*
X88725Y3084D01*
X88729Y3069D01*
X88730Y3060D01*
Y3056D01*
X88736Y3034D01*
X88743Y3014D01*
X88751Y2999D01*
X88758Y2984D01*
X88766Y2975D01*
X88771Y2967D01*
X88775Y2964D01*
X88777Y2962D01*
X88790Y2953D01*
X88803Y2945D01*
X88814Y2940D01*
X88827Y2936D01*
X88836Y2934D01*
X88845Y2932D01*
X88853D01*
X88875Y2936D01*
X88895Y2943D01*
X88912Y2954D01*
X88927Y2967D01*
X88938Y2980D01*
X88945Y2991D01*
X88951Y2999D01*
X88953Y3003D01*
X88958Y3017D01*
X88964Y3034D01*
X88967Y3053D01*
X88971Y3073D01*
X88978Y3117D01*
X88982Y3162D01*
X88984Y3203D01*
Y3221D01*
X88986Y3236D01*
Y3249D01*
Y3258D01*
Y3265D01*
Y3267D01*
Y3303D01*
X88984Y3334D01*
X88982Y3362D01*
X88980Y3390D01*
X88978Y3412D01*
X88977Y3434D01*
X88973Y3453D01*
X88969Y3469D01*
X88967Y3484D01*
X88964Y3497D01*
X88962Y3506D01*
X88960Y3514D01*
X88958Y3521D01*
X88956Y3525D01*
X88954Y3528D01*
X88941Y3552D01*
X88925Y3571D01*
X88908Y3584D01*
X88891Y3591D01*
X88877Y3597D01*
X88864Y3599D01*
X88856Y3601D01*
D02*
G37*
G36*
X87916Y3615D02*
X87906D01*
X87888Y3614D01*
X87873Y3610D01*
X87858Y3604D01*
X87845Y3599D01*
X87836Y3593D01*
X87829Y3588D01*
X87825Y3584D01*
X87823Y3582D01*
X87812Y3569D01*
X87805Y3554D01*
X87797Y3541D01*
X87793Y3527D01*
X87792Y3515D01*
X87790Y3506D01*
Y3499D01*
Y3497D01*
X87792Y3478D01*
X87795Y3464D01*
X87799Y3449D01*
X87805Y3438D01*
X87812Y3428D01*
X87816Y3421D01*
X87819Y3417D01*
X87821Y3415D01*
X87834Y3406D01*
X87847Y3399D01*
X87860Y3393D01*
X87873Y3390D01*
X87886Y3388D01*
X87893Y3386D01*
X87903D01*
X87923Y3388D01*
X87940Y3391D01*
X87955Y3395D01*
X87967Y3403D01*
X87979Y3408D01*
X87986Y3412D01*
X87990Y3415D01*
X87992Y3417D01*
X88003Y3430D01*
X88010Y3443D01*
X88016Y3458D01*
X88019Y3471D01*
X88021Y3482D01*
X88023Y3491D01*
Y3499D01*
Y3501D01*
X88021Y3519D01*
X88017Y3534D01*
X88014Y3549D01*
X88006Y3560D01*
X88001Y3569D01*
X87997Y3577D01*
X87993Y3580D01*
X87992Y3582D01*
X87979Y3593D01*
X87964Y3601D01*
X87951Y3608D01*
X87936Y3612D01*
X87925Y3614D01*
X87916Y3615D01*
D02*
G37*
G36*
Y3219D02*
X87906D01*
X87886Y3217D01*
X87869Y3212D01*
X87853Y3204D01*
X87840Y3197D01*
X87827Y3190D01*
X87819Y3182D01*
X87814Y3177D01*
X87812Y3175D01*
X87799Y3158D01*
X87788Y3140D01*
X87780Y3121D01*
X87777Y3104D01*
X87773Y3090D01*
X87771Y3077D01*
Y3069D01*
Y3066D01*
X87773Y3041D01*
X87777Y3021D01*
X87784Y3003D01*
X87792Y2986D01*
X87799Y2973D01*
X87806Y2964D01*
X87810Y2958D01*
X87812Y2956D01*
X87827Y2941D01*
X87843Y2932D01*
X87858Y2925D01*
X87873Y2919D01*
X87886Y2916D01*
X87895Y2914D01*
X87905D01*
X87923Y2916D01*
X87942Y2919D01*
X87956Y2927D01*
X87969Y2934D01*
X87982Y2941D01*
X87990Y2949D01*
X87995Y2953D01*
X87997Y2954D01*
X88010Y2971D01*
X88021Y2990D01*
X88029Y3008D01*
X88032Y3027D01*
X88036Y3041D01*
X88038Y3054D01*
Y3062D01*
Y3066D01*
X88036Y3091D01*
X88032Y3112D01*
X88025Y3132D01*
X88017Y3147D01*
X88012Y3160D01*
X88005Y3169D01*
X88001Y3175D01*
X87999Y3177D01*
X87984Y3191D01*
X87967Y3201D01*
X87953Y3208D01*
X87938Y3214D01*
X87925Y3217D01*
X87916Y3219D01*
D02*
G37*
G36*
X89162Y2046D02*
X89153D01*
X89136Y2044D01*
X89121Y2039D01*
X89106Y2033D01*
X89095Y2026D01*
X89086Y2016D01*
X89078Y2011D01*
X89075Y2005D01*
X89073Y2003D01*
X89062Y1987D01*
X89053Y1966D01*
X89047Y1946D01*
X89041Y1924D01*
X89040Y1905D01*
X89038Y1890D01*
Y1879D01*
Y1877D01*
Y1876D01*
X89040Y1842D01*
X89043Y1813D01*
X89049Y1789D01*
X89054Y1768D01*
X89062Y1753D01*
X89067Y1742D01*
X89071Y1737D01*
X89073Y1735D01*
X89086Y1722D01*
X89101Y1711D01*
X89114Y1703D01*
X89128Y1700D01*
X89140Y1696D01*
X89149Y1694D01*
X89158D01*
X89177Y1696D01*
X89195Y1702D01*
X89210Y1707D01*
X89223Y1716D01*
X89234Y1724D01*
X89241Y1729D01*
X89247Y1735D01*
X89249Y1737D01*
X89260Y1755D01*
X89269Y1776D01*
X89275Y1800D01*
X89280Y1822D01*
X89282Y1842D01*
X89284Y1859D01*
Y1870D01*
Y1872D01*
Y1874D01*
X89282Y1905D01*
X89278Y1931D01*
X89273Y1953D01*
X89266Y1972D01*
X89258Y1985D01*
X89253Y1996D01*
X89249Y2002D01*
X89247Y2003D01*
X89232Y2018D01*
X89217Y2027D01*
X89201Y2035D01*
X89186Y2040D01*
X89173Y2044D01*
X89162Y2046D01*
D02*
G37*
G36*
X93152Y2053D02*
X93143D01*
X93124Y2052D01*
X93106Y2046D01*
X93091Y2039D01*
X93078Y2031D01*
X93067Y2024D01*
X93060Y2016D01*
X93054Y2011D01*
X93052Y2009D01*
X93039Y1992D01*
X93030Y1972D01*
X93023Y1952D01*
X93019Y1931D01*
X93015Y1915D01*
X93013Y1900D01*
Y1890D01*
Y1889D01*
Y1887D01*
X93015Y1859D01*
X93019Y1833D01*
X93024Y1813D01*
X93032Y1796D01*
X93039Y1781D01*
X93045Y1772D01*
X93048Y1766D01*
X93050Y1765D01*
X93063Y1752D01*
X93078Y1742D01*
X93095Y1735D01*
X93108Y1731D01*
X93121Y1727D01*
X93130Y1726D01*
X93139D01*
X93160Y1727D01*
X93176Y1731D01*
X93191Y1737D01*
X93204Y1744D01*
X93215Y1752D01*
X93222Y1757D01*
X93226Y1761D01*
X93228Y1763D01*
X93239Y1779D01*
X93247Y1798D01*
X93254Y1818D01*
X93258Y1837D01*
X93260Y1855D01*
X93261Y1870D01*
Y1879D01*
Y1883D01*
X93260Y1915D01*
X93256Y1942D01*
X93252Y1965D01*
X93245Y1981D01*
X93239Y1996D01*
X93235Y2005D01*
X93232Y2011D01*
X93230Y2013D01*
X93217Y2026D01*
X93202Y2037D01*
X93189Y2044D01*
X93174Y2048D01*
X93161Y2052D01*
X93152Y2053D01*
D02*
G37*
G36*
X80161Y1853D02*
X80159D01*
Y1807D01*
Y1789D01*
X80163Y1772D01*
X80165Y1757D01*
X80168Y1746D01*
X80172Y1735D01*
X80174Y1727D01*
X80178Y1724D01*
Y1722D01*
X80185Y1711D01*
X80194Y1700D01*
X80213Y1683D01*
X80222Y1678D01*
X80228Y1672D01*
X80233Y1670D01*
X80235Y1668D01*
X80250Y1661D01*
X80266Y1655D01*
X80281Y1652D01*
X80294Y1650D01*
X80305Y1648D01*
X80315Y1646D01*
X80322D01*
X80337Y1648D01*
X80352Y1650D01*
X80363Y1653D01*
X80372Y1657D01*
X80381Y1661D01*
X80387Y1663D01*
X80389Y1666D01*
X80390D01*
X80398Y1674D01*
X80403Y1683D01*
X80409Y1702D01*
X80411Y1709D01*
X80413Y1715D01*
Y1718D01*
Y1720D01*
X80411Y1731D01*
X80409Y1740D01*
X80402Y1757D01*
X80394Y1768D01*
X80390Y1770D01*
Y1772D01*
X80379Y1781D01*
X80363Y1789D01*
X80346Y1796D01*
X80328Y1803D01*
X80309Y1809D01*
X80294Y1813D01*
X80285Y1815D01*
X80281Y1816D01*
X80235Y1829D01*
X80215Y1835D01*
X80196Y1840D01*
X80181Y1846D01*
X80168Y1850D01*
X80161Y1853D01*
D02*
G37*
G36*
X77315Y2361D02*
X77306D01*
X77283Y2359D01*
X77265Y2353D01*
X77248Y2346D01*
X77233Y2337D01*
X77222Y2327D01*
X77213Y2320D01*
X77207Y2314D01*
X77206Y2313D01*
X77191Y2294D01*
X77182Y2274D01*
X77174Y2252D01*
X77169Y2231D01*
X77165Y2213D01*
X77163Y2198D01*
Y2189D01*
Y2187D01*
Y2185D01*
X77165Y2157D01*
X77169Y2131D01*
X77176Y2109D01*
X77182Y2092D01*
X77189Y2079D01*
X77196Y2068D01*
X77200Y2063D01*
X77202Y2061D01*
X77217Y2046D01*
X77233Y2037D01*
X77250Y2029D01*
X77265Y2024D01*
X77280Y2020D01*
X77291Y2018D01*
X77300D01*
X77320Y2020D01*
X77339Y2026D01*
X77356Y2033D01*
X77370Y2040D01*
X77382Y2048D01*
X77389Y2055D01*
X77395Y2061D01*
X77396Y2063D01*
X77409Y2081D01*
X77419Y2102D01*
X77424Y2124D01*
X77428Y2144D01*
X77432Y2163D01*
X77433Y2177D01*
Y2189D01*
Y2192D01*
X77432Y2222D01*
X77428Y2248D01*
X77422Y2268D01*
X77415Y2287D01*
X77409Y2300D01*
X77404Y2311D01*
X77400Y2316D01*
X77398Y2318D01*
X77383Y2333D01*
X77369Y2342D01*
X77352Y2350D01*
X77337Y2355D01*
X77326Y2359D01*
X77315Y2361D01*
D02*
G37*
G36*
X86823Y2063D02*
X86814D01*
X86794Y2061D01*
X86773Y2055D01*
X86757Y2048D01*
X86742Y2039D01*
X86731Y2029D01*
X86723Y2022D01*
X86718Y2016D01*
X86716Y2014D01*
X86703Y1996D01*
X86692Y1974D01*
X86684Y1950D01*
X86681Y1927D01*
X86677Y1905D01*
X86675Y1889D01*
Y1877D01*
Y1876D01*
Y1874D01*
X86677Y1837D01*
X86681Y1807D01*
X86688Y1781D01*
X86695Y1761D01*
X86703Y1744D01*
X86710Y1733D01*
X86714Y1726D01*
X86716Y1724D01*
X86731Y1709D01*
X86747Y1698D01*
X86764Y1690D01*
X86781Y1685D01*
X86794Y1681D01*
X86805Y1679D01*
X86816D01*
X86836Y1681D01*
X86856Y1687D01*
X86873Y1694D01*
X86888Y1703D01*
X86899Y1711D01*
X86908Y1718D01*
X86914Y1724D01*
X86916Y1726D01*
X86929Y1746D01*
X86938Y1768D01*
X86945Y1792D01*
X86949Y1815D01*
X86953Y1837D01*
X86955Y1853D01*
Y1861D01*
Y1866D01*
Y1868D01*
Y1870D01*
X86953Y1903D01*
X86949Y1933D01*
X86942Y1959D01*
X86934Y1979D01*
X86929Y1994D01*
X86921Y2005D01*
X86918Y2013D01*
X86916Y2014D01*
X86899Y2031D01*
X86882Y2042D01*
X86866Y2052D01*
X86849Y2057D01*
X86836Y2061D01*
X86823Y2063D01*
D02*
G37*
G36*
X83512Y2063D02*
X83503D01*
X83483Y2061D01*
X83462Y2055D01*
X83446Y2048D01*
X83431Y2039D01*
X83420Y2029D01*
X83412Y2022D01*
X83407Y2016D01*
X83405Y2014D01*
X83392Y1996D01*
X83381Y1974D01*
X83374Y1950D01*
X83370Y1927D01*
X83366Y1905D01*
X83364Y1889D01*
Y1877D01*
Y1876D01*
Y1874D01*
X83366Y1837D01*
X83370Y1807D01*
X83377Y1781D01*
X83385Y1761D01*
X83392Y1744D01*
X83399Y1733D01*
X83403Y1726D01*
X83405Y1724D01*
X83420Y1709D01*
X83436Y1698D01*
X83453Y1690D01*
X83470Y1685D01*
X83483Y1681D01*
X83494Y1679D01*
X83505D01*
X83525Y1681D01*
X83546Y1687D01*
X83562Y1694D01*
X83577Y1703D01*
X83588Y1711D01*
X83598Y1718D01*
X83603Y1724D01*
X83605Y1726D01*
X83618Y1746D01*
X83627Y1768D01*
X83635Y1792D01*
X83638Y1815D01*
X83642Y1837D01*
X83644Y1853D01*
Y1861D01*
Y1866D01*
Y1868D01*
Y1870D01*
X83642Y1903D01*
X83638Y1933D01*
X83631Y1959D01*
X83623Y1979D01*
X83618Y1994D01*
X83611Y2005D01*
X83607Y2013D01*
X83605Y2014D01*
X83588Y2031D01*
X83572Y2042D01*
X83555Y2052D01*
X83538Y2057D01*
X83525Y2061D01*
X83512Y2063D01*
D02*
G37*
G36*
X82120Y2046D02*
X82113D01*
X82092Y2044D01*
X82074Y2039D01*
X82059Y2033D01*
X82046Y2026D01*
X82035Y2016D01*
X82027Y2011D01*
X82022Y2005D01*
X82020Y2003D01*
X82007Y1985D01*
X81998Y1965D01*
X81992Y1944D01*
X81987Y1922D01*
X81985Y1903D01*
X81983Y1889D01*
Y1877D01*
Y1876D01*
Y1874D01*
X81985Y1840D01*
X81988Y1811D01*
X81994Y1787D01*
X82001Y1768D01*
X82009Y1753D01*
X82014Y1742D01*
X82018Y1737D01*
X82020Y1735D01*
X82033Y1722D01*
X82048Y1711D01*
X82064Y1703D01*
X82077Y1700D01*
X82090Y1696D01*
X82100Y1694D01*
X82109D01*
X82127Y1696D01*
X82144Y1700D01*
X82159Y1707D01*
X82170Y1715D01*
X82181Y1722D01*
X82188Y1729D01*
X82192Y1733D01*
X82194Y1735D01*
X82205Y1753D01*
X82213Y1774D01*
X82220Y1796D01*
X82224Y1816D01*
X82225Y1837D01*
X82227Y1852D01*
Y1863D01*
Y1865D01*
Y1866D01*
X82225Y1900D01*
X82222Y1929D01*
X82218Y1952D01*
X82211Y1972D01*
X82205Y1985D01*
X82201Y1996D01*
X82198Y2002D01*
X82196Y2003D01*
X82183Y2018D01*
X82168Y2027D01*
X82155Y2035D01*
X82142Y2040D01*
X82129Y2044D01*
X82120Y2046D01*
D02*
G37*
G36*
X78259D02*
X78252D01*
X78231Y2044D01*
X78213Y2039D01*
X78198Y2033D01*
X78185Y2026D01*
X78174Y2016D01*
X78167Y2011D01*
X78161Y2005D01*
X78159Y2003D01*
X78146Y1985D01*
X78137Y1965D01*
X78131Y1944D01*
X78126Y1922D01*
X78124Y1903D01*
X78122Y1889D01*
Y1877D01*
Y1876D01*
Y1874D01*
X78124Y1840D01*
X78128Y1811D01*
X78133Y1787D01*
X78141Y1768D01*
X78148Y1753D01*
X78154Y1742D01*
X78157Y1737D01*
X78159Y1735D01*
X78172Y1722D01*
X78187Y1711D01*
X78204Y1703D01*
X78217Y1700D01*
X78230Y1696D01*
X78239Y1694D01*
X78248D01*
X78267Y1696D01*
X78283Y1700D01*
X78298Y1707D01*
X78309Y1715D01*
X78320Y1722D01*
X78328Y1729D01*
X78331Y1733D01*
X78333Y1735D01*
X78344Y1753D01*
X78352Y1774D01*
X78359Y1796D01*
X78363Y1816D01*
X78365Y1837D01*
X78367Y1852D01*
Y1863D01*
Y1865D01*
Y1866D01*
X78365Y1900D01*
X78361Y1929D01*
X78357Y1952D01*
X78350Y1972D01*
X78344Y1985D01*
X78341Y1996D01*
X78337Y2002D01*
X78335Y2003D01*
X78322Y2018D01*
X78307Y2027D01*
X78294Y2035D01*
X78281Y2040D01*
X78268Y2044D01*
X78259Y2046D01*
D02*
G37*
%LPD*%
D42*
X21080Y37045D02*
G03*
X21080Y37045I-125J0D01*
G01*
D43*
X67100Y29330D02*
G03*
X67100Y29330I-100J0D01*
G01*
D44*
X65310Y10525D02*
G03*
X65310Y2525I0J-4000D01*
G01*
D45*
X66786Y25642D02*
X67536D01*
X66786Y24142D02*
X67536D01*
X74536Y23392D02*
Y26392D01*
X67536Y23392D02*
X74536D01*
X67536D02*
Y26392D01*
X74536D01*
X66750Y30330D02*
Y39080D01*
X66000Y29580D02*
X66750Y30330D01*
X57250Y29580D02*
X66000D01*
X57250Y39080D02*
X66750D01*
X57250Y29580D02*
Y39080D01*
D46*
X17655Y27995D02*
X19455D01*
Y36790D01*
X17655Y27995D02*
Y36790D01*
X19455D01*
X17815Y39624D02*
X19015D01*
X9779Y41310D02*
Y42510D01*
X53375Y27940D02*
X54575D01*
X56550Y25146D02*
X57750D01*
X74330Y31369D02*
X75530D01*
X21971Y40040D02*
Y41240D01*
X51470Y38989D02*
X52670D01*
X74422Y22671D02*
X73955Y21971D01*
Y22671D02*
X74422Y21971D01*
X73722D02*
X73489D01*
X73606D01*
Y22671D01*
X73722Y22554D01*
X68453Y28386D02*
Y27803D01*
X68336Y27686D01*
X68103D01*
X67986Y27803D01*
Y28386D01*
X67753Y28269D02*
X67637Y28386D01*
X67403D01*
X67287Y28269D01*
Y28153D01*
X67403Y28036D01*
X67520D01*
X67403D01*
X67287Y27919D01*
Y27803D01*
X67403Y27686D01*
X67637D01*
X67753Y27803D01*
X11300Y40100D02*
Y40800D01*
X10950D01*
X10833Y40683D01*
Y40450D01*
X10950Y40333D01*
X11300D01*
X11067D02*
X10833Y40100D01*
X10600Y40683D02*
X10484Y40800D01*
X10250D01*
X10134Y40683D01*
Y40567D01*
X10250Y40450D01*
X10134Y40333D01*
Y40217D01*
X10250Y40100D01*
X10484D01*
X10600Y40217D01*
Y40333D01*
X10484Y40450D01*
X10600Y40567D01*
Y40683D01*
X10484Y40450D02*
X10250D01*
X16510Y38100D02*
X17210D01*
Y38450D01*
X17093Y38567D01*
X16860D01*
X16743Y38450D01*
Y38100D01*
Y38333D02*
X16510Y38567D01*
X17210Y38800D02*
Y39266D01*
X17093D01*
X16627Y38800D01*
X16510D01*
X18975Y27625D02*
Y27042D01*
X18858Y26925D01*
X18625D01*
X18508Y27042D01*
Y27625D01*
X18275Y26925D02*
X18042D01*
X18159D01*
Y27625D01*
X18275Y27508D01*
X56180Y21807D02*
X56880D01*
Y22157D01*
X56763Y22274D01*
X56530D01*
X56413Y22157D01*
Y21807D01*
Y22040D02*
X56180Y22274D01*
X56880Y22973D02*
X56763Y22740D01*
X56530Y22507D01*
X56297D01*
X56180Y22623D01*
Y22857D01*
X56297Y22973D01*
X56413D01*
X56530Y22857D01*
Y22507D01*
X53325Y24725D02*
X54025D01*
Y25075D01*
X53908Y25192D01*
X53675D01*
X53558Y25075D01*
Y24725D01*
Y24958D02*
X53325Y25192D01*
Y25775D02*
X54025D01*
X53675Y25425D01*
Y25891D01*
X52333Y35842D02*
X52450Y35725D01*
Y35492D01*
X52333Y35375D01*
X51867D01*
X51750Y35492D01*
Y35725D01*
X51867Y35842D01*
X51750Y36075D02*
Y36308D01*
Y36191D01*
X52450D01*
X52333Y36075D01*
X51750Y36658D02*
Y36891D01*
Y36775D01*
X52450D01*
X52333Y36658D01*
X74549Y33147D02*
X75249D01*
Y33497D01*
X75132Y33614D01*
X74899D01*
X74782Y33497D01*
Y33147D01*
Y33380D02*
X74549Y33614D01*
Y33847D02*
Y34080D01*
Y33963D01*
X75249D01*
X75132Y33847D01*
X74549Y34430D02*
Y34663D01*
Y34547D01*
X75249D01*
X75132Y34430D01*
X22958Y39483D02*
X23075Y39600D01*
X23308D01*
X23425Y39483D01*
Y39017D01*
X23308Y38900D01*
X23075D01*
X22958Y39017D01*
X22259Y39600D02*
X22492Y39483D01*
X22725Y39250D01*
Y39017D01*
X22609Y38900D01*
X22375D01*
X22259Y39017D01*
Y39133D01*
X22375Y39250D01*
X22725D01*
D47*
X70310Y6525D02*
D03*
D48*
X68810Y10525D02*
D03*
D49*
X68532Y6390D02*
D03*
D50*
X65810Y10525D02*
D03*
D51*
X66810Y2525D02*
D03*
%TF.MD5,cdc53048173a00fb74ccc877d11aba13*%
M02*
