%TF.GenerationSoftware,Altium Limited,Altium Designer,19.1.5 (86)*%
G04 Layer_Color=8388736*
%FSLAX43Y43*%
%MOMM*%
%TF.FileFunction,Soldermask,Top*%
%TF.Part,Single*%
G01*
G75*
%TA.AperFunction,SMDPad,CuDef*%
%ADD54R,1.603X1.403*%
%ADD55R,1.403X1.603*%
%ADD58R,1.503X1.203*%
%ADD59R,1.203X1.503*%
%TA.AperFunction,ComponentPad*%
%ADD60C,1.203*%
%ADD61C,2.403*%
%ADD62C,2.203*%
%ADD63C,3.003*%
%ADD64C,1.903*%
%ADD65O,4.203X3.703*%
%ADD66C,1.103*%
%TA.AperFunction,WasherPad*%
%ADD67C,3.203*%
%TA.AperFunction,ViaPad*%
%ADD68C,1.303*%
%TA.AperFunction,SMDPad,CuDef*%
%ADD72R,1.803X4.003*%
%ADD73R,1.803X1.303*%
%ADD74R,1.403X1.403*%
%ADD75R,2.453X0.703*%
%ADD76R,2.703X2.203*%
%ADD77R,0.803X1.303*%
%ADD78R,1.203X2.503*%
%ADD79R,4.203X3.203*%
G36*
X92329Y35433D02*
X89662D01*
Y39497D01*
X89652Y39507D01*
X89701Y39624D01*
X92329D01*
Y35433D01*
D02*
G37*
D54*
X8001Y19431D02*
D03*
Y21463D02*
D03*
X88265Y8255D02*
D03*
Y6223D02*
D03*
X10160Y23495D02*
D03*
Y25527D02*
D03*
X5080Y34798D02*
D03*
Y36830D02*
D03*
D55*
X84963Y33655D02*
D03*
X86995D02*
D03*
X84963Y35560D02*
D03*
X86995D02*
D03*
X84963Y37465D02*
D03*
X86995D02*
D03*
X84963Y39370D02*
D03*
X86995D02*
D03*
D58*
X40640D02*
D03*
Y41402D02*
D03*
X55880Y3175D02*
D03*
Y5207D02*
D03*
X27940Y3175D02*
D03*
Y5207D02*
D03*
D59*
X59944Y20955D02*
D03*
X61976D02*
D03*
Y25908D02*
D03*
X64008D02*
D03*
X61976Y23876D02*
D03*
X64008D02*
D03*
X49149Y39370D02*
D03*
X51181D02*
D03*
X49149Y41910D02*
D03*
X51181D02*
D03*
X69342Y27432D02*
D03*
X67310D02*
D03*
X53984Y35330D02*
D03*
X56016D02*
D03*
X68961Y34290D02*
D03*
X66929D02*
D03*
D60*
X65786Y25642D02*
D03*
Y24142D02*
D03*
D61*
X81280Y11430D02*
D03*
X78740D02*
D03*
X76200D02*
D03*
X73660D02*
D03*
X5080Y20320D02*
D03*
Y22860D02*
D03*
Y25400D02*
D03*
Y27940D02*
D03*
Y30480D02*
D03*
X85090Y11430D02*
D03*
Y13970D02*
D03*
X88265D02*
D03*
Y11430D02*
D03*
X5080Y41910D02*
D03*
Y39370D02*
D03*
X18415Y23180D02*
D03*
Y43180D02*
D03*
D62*
X41910Y46355D02*
D03*
X44450D02*
D03*
X46990D02*
D03*
X49530D02*
D03*
X52070D02*
D03*
X54610D02*
D03*
X57150D02*
D03*
X59690D02*
D03*
X62230D02*
D03*
X64770D02*
D03*
X67310D02*
D03*
X69850D02*
D03*
X72390D02*
D03*
X74930D02*
D03*
X77470D02*
D03*
Y18415D02*
D03*
X74930D02*
D03*
X72390D02*
D03*
X69850D02*
D03*
X67310D02*
D03*
X64770D02*
D03*
X62230D02*
D03*
X59690D02*
D03*
X57150D02*
D03*
X54610D02*
D03*
X52070D02*
D03*
X49530D02*
D03*
X46990D02*
D03*
X44450D02*
D03*
X41910D02*
D03*
X33440Y19635D02*
D03*
Y45135D02*
D03*
X85940D02*
D03*
Y19635D02*
D03*
D63*
X12700Y22860D02*
D03*
Y5080D02*
D03*
D64*
X95885Y21590D02*
D03*
Y19050D02*
D03*
Y16510D02*
D03*
Y13970D02*
D03*
Y11430D02*
D03*
X93345D02*
D03*
Y13970D02*
D03*
Y16510D02*
D03*
Y19050D02*
D03*
Y21590D02*
D03*
D65*
X5000Y14080D02*
D03*
Y9000D02*
D03*
D66*
X93650Y39665D02*
D03*
Y35265D02*
D03*
D67*
X97000Y47000D02*
D03*
X3000D02*
D03*
Y3000D02*
D03*
X97000Y3000D02*
D03*
D68*
X52705Y23495D02*
D03*
X60325D02*
D03*
X48768Y24765D02*
D03*
X70104Y27432D02*
D03*
X64135Y20320D02*
D03*
X66675Y22860D02*
D03*
X66040Y32385D02*
D03*
X69215Y29210D02*
D03*
X59055Y26670D02*
D03*
Y24765D02*
D03*
X24765Y40640D02*
D03*
X83185Y22860D02*
D03*
X59750Y31580D02*
D03*
X74930Y28575D02*
D03*
X24130D02*
D03*
X53340Y33020D02*
D03*
X57785Y37580D02*
D03*
X26035Y36195D02*
D03*
X54610Y40005D02*
D03*
X71120Y29210D02*
D03*
X72390Y30480D02*
D03*
X46990Y39370D02*
D03*
Y41910D02*
D03*
X81915Y35560D02*
D03*
Y37465D02*
D03*
Y39370D02*
D03*
X68104Y40640D02*
D03*
X72390Y37465D02*
D03*
X69850D02*
D03*
X52330Y31080D02*
D03*
X65750Y38580D02*
D03*
D72*
X39370Y4055D02*
D03*
Y12455D02*
D03*
X22225Y17535D02*
D03*
Y9135D02*
D03*
D73*
X8001Y26670D02*
D03*
Y23622D02*
D03*
X31115Y6223D02*
D03*
Y3175D02*
D03*
X58420Y6223D02*
D03*
Y3175D02*
D03*
D74*
X22405D02*
D03*
X19505D02*
D03*
D75*
X91000Y37465D02*
D03*
Y39065D02*
D03*
Y36665D02*
D03*
Y38265D02*
D03*
Y35865D02*
D03*
D76*
X96575Y41915D02*
D03*
Y33015D02*
D03*
X91125Y41915D02*
D03*
Y33015D02*
D03*
D77*
X44765Y41940D02*
D03*
X43815D02*
D03*
X42865D02*
D03*
Y39340D02*
D03*
X43815D02*
D03*
X44765D02*
D03*
D78*
X48260Y3175D02*
D03*
X50560D02*
D03*
X52860D02*
D03*
D79*
X50560Y8975D02*
D03*
%TF.MD5,b0d0a4c35a8cddbfa349140ed6bc7f4f*%
M02*
