%TF.GenerationSoftware,Altium Limited,Altium Designer,19.1.5 (86)*%
G04 Layer_Physical_Order=1*
G04 Layer_Color=255*
%FSLAX43Y43*%
%MOMM*%
%TF.FileFunction,Copper,L1,Top,Signal*%
%TF.Part,Single*%
G01*
G75*
%TA.AperFunction,SMDPad,CuDef*%
%ADD10R,1.400X1.200*%
%ADD11R,1.000X1.300*%
%ADD12R,1.200X1.400*%
%ADD13R,1.600X3.800*%
%ADD14R,1.600X1.100*%
%ADD15R,1.200X1.200*%
%ADD16R,1.300X1.000*%
%ADD17R,2.250X0.500*%
%ADD18R,2.500X2.000*%
%ADD19R,0.600X1.100*%
%ADD20R,1.000X2.300*%
%ADD21R,4.000X3.000*%
%TA.AperFunction,Conductor*%
%ADD22C,0.300*%
%ADD23C,0.600*%
%ADD24C,1.000*%
%ADD25C,0.400*%
%ADD26C,0.500*%
%ADD27R,9.500X9.500*%
%TA.AperFunction,ComponentPad*%
%ADD28C,1.000*%
%ADD29C,2.200*%
%ADD30C,2.000*%
%ADD31C,2.800*%
%ADD32C,1.700*%
%ADD33O,4.000X3.500*%
%ADD34C,0.900*%
%TA.AperFunction,WasherPad*%
%ADD35C,3.000*%
%TA.AperFunction,ViaPad*%
%ADD36C,1.100*%
G36*
X93543Y47085D02*
X93536Y47000D01*
X93579Y46458D01*
X93706Y45930D01*
X93914Y45427D01*
X94198Y44964D01*
X94551Y44551D01*
X94964Y44198D01*
X95427Y43914D01*
X95930Y43706D01*
X96458Y43579D01*
X97000Y43536D01*
X97085Y43543D01*
X98793D01*
Y6457D01*
X97085D01*
X97000Y6464D01*
X96458Y6421D01*
X95930Y6294D01*
X95427Y6086D01*
X94964Y5802D01*
X94551Y5449D01*
X94198Y5036D01*
X93914Y4573D01*
X93706Y4070D01*
X93579Y3542D01*
X93536Y3000D01*
X93543Y2915D01*
Y1207D01*
X6457D01*
Y2915D01*
X6464Y3000D01*
X6421Y3542D01*
X6294Y4070D01*
X6086Y4573D01*
X5802Y5036D01*
X5449Y5449D01*
X5036Y5802D01*
X4573Y6086D01*
X4070Y6294D01*
X3542Y6421D01*
X3000Y6464D01*
X2915Y6457D01*
X1207D01*
Y43543D01*
X2915D01*
X3000Y43536D01*
X3542Y43579D01*
X4070Y43706D01*
X4573Y43914D01*
X5036Y44198D01*
X5449Y44551D01*
X5802Y44964D01*
X6086Y45427D01*
X6294Y45930D01*
X6421Y46458D01*
X6464Y47000D01*
X6457Y47085D01*
Y48793D01*
X93543D01*
Y47085D01*
D02*
G37*
%LPC*%
G36*
X75184Y47633D02*
Y46355D01*
Y45077D01*
X75269Y45088D01*
X75586Y45219D01*
X75857Y45428D01*
X76066Y45699D01*
X76184Y45985D01*
X76285Y45998D01*
X76318Y45992D01*
X76419Y45748D01*
X76612Y45497D01*
X76863Y45304D01*
X77059Y45223D01*
Y40175D01*
X72855Y35971D01*
X66957D01*
Y39080D01*
X66941Y39159D01*
X66896Y39226D01*
X66829Y39271D01*
X66750Y39287D01*
X66011D01*
X65947Y39314D01*
X65750Y39340D01*
X65553Y39314D01*
X65489Y39287D01*
X58196D01*
Y43180D01*
X58165Y43337D01*
X58076Y43471D01*
X56432Y45115D01*
X56494Y45219D01*
X56811Y45088D01*
X56896Y45077D01*
Y46355D01*
Y47633D01*
X56811Y47622D01*
X56494Y47491D01*
X56223Y47282D01*
X56014Y47011D01*
X55896Y46725D01*
X55795Y46712D01*
X55762Y46718D01*
X55661Y46962D01*
X55468Y47213D01*
X55217Y47406D01*
X54924Y47527D01*
X54610Y47569D01*
X54296Y47527D01*
X54003Y47406D01*
X53752Y47213D01*
X53559Y46962D01*
X53438Y46669D01*
X53405Y46423D01*
X53404Y46413D01*
X53276D01*
X53275Y46423D01*
X53242Y46669D01*
X53121Y46962D01*
X52928Y47213D01*
X52677Y47406D01*
X52384Y47527D01*
X52070Y47569D01*
X51756Y47527D01*
X51463Y47406D01*
X51212Y47213D01*
X51019Y46962D01*
X50898Y46669D01*
X50865Y46423D01*
X50864Y46413D01*
X50736D01*
X50735Y46423D01*
X50702Y46669D01*
X50581Y46962D01*
X50388Y47213D01*
X50137Y47406D01*
X49844Y47527D01*
X49530Y47569D01*
X49216Y47527D01*
X48923Y47406D01*
X48672Y47213D01*
X48479Y46962D01*
X48358Y46669D01*
X48325Y46423D01*
X48324Y46413D01*
X48196D01*
X48195Y46423D01*
X48162Y46669D01*
X48041Y46962D01*
X47848Y47213D01*
X47597Y47406D01*
X47304Y47527D01*
X46990Y47569D01*
X46676Y47527D01*
X46383Y47406D01*
X46132Y47213D01*
X45939Y46962D01*
X45818Y46669D01*
X45785Y46423D01*
X45784Y46413D01*
X45656D01*
X45655Y46423D01*
X45622Y46669D01*
X45501Y46962D01*
X45308Y47213D01*
X45057Y47406D01*
X44764Y47527D01*
X44450Y47569D01*
X44136Y47527D01*
X43843Y47406D01*
X43592Y47213D01*
X43399Y46962D01*
X43278Y46669D01*
X43245Y46423D01*
X43244Y46413D01*
X43116D01*
X43115Y46423D01*
X43082Y46669D01*
X42961Y46962D01*
X42768Y47213D01*
X42517Y47406D01*
X42224Y47527D01*
X41910Y47569D01*
X41596Y47527D01*
X41303Y47406D01*
X41052Y47213D01*
X40859Y46962D01*
X40738Y46669D01*
X40696Y46355D01*
X40738Y46041D01*
X40859Y45748D01*
X41052Y45497D01*
X41303Y45304D01*
X41596Y45183D01*
X41910Y45141D01*
X42224Y45183D01*
X42517Y45304D01*
X42768Y45497D01*
X42961Y45748D01*
X43082Y46041D01*
X43115Y46287D01*
X43116Y46297D01*
X43244D01*
X43245Y46287D01*
X43278Y46041D01*
X43399Y45748D01*
X43592Y45497D01*
X43843Y45304D01*
X44136Y45183D01*
X44450Y45141D01*
X44764Y45183D01*
X45057Y45304D01*
X45308Y45497D01*
X45501Y45748D01*
X45622Y46041D01*
X45655Y46287D01*
X45656Y46297D01*
X45784D01*
X45785Y46287D01*
X45818Y46041D01*
X45939Y45748D01*
X46132Y45497D01*
X46383Y45304D01*
X46676Y45183D01*
X46990Y45141D01*
X47304Y45183D01*
X47597Y45304D01*
X47848Y45497D01*
X48041Y45748D01*
X48162Y46041D01*
X48195Y46287D01*
X48196Y46297D01*
X48324D01*
X48325Y46287D01*
X48358Y46041D01*
X48479Y45748D01*
X48672Y45497D01*
X48923Y45304D01*
X49216Y45183D01*
X49530Y45141D01*
X49844Y45183D01*
X50137Y45304D01*
X50388Y45497D01*
X50581Y45748D01*
X50702Y46041D01*
X50735Y46287D01*
X50736Y46297D01*
X50864D01*
X50865Y46287D01*
X50898Y46041D01*
X51019Y45748D01*
X51212Y45497D01*
X51463Y45304D01*
X51756Y45183D01*
X52070Y45141D01*
X52384Y45183D01*
X52677Y45304D01*
X52928Y45497D01*
X53121Y45748D01*
X53242Y46041D01*
X53275Y46287D01*
X53276Y46297D01*
X53404D01*
X53405Y46287D01*
X53438Y46041D01*
X53559Y45748D01*
X53752Y45497D01*
X54003Y45304D01*
X54296Y45183D01*
X54610Y45141D01*
X54924Y45183D01*
X55120Y45264D01*
X57374Y43010D01*
Y39287D01*
X57250D01*
X57171Y39271D01*
X57104Y39226D01*
X57059Y39159D01*
X57043Y39080D01*
Y37991D01*
X51592D01*
Y38517D01*
X51884D01*
Y40223D01*
X51592D01*
Y41057D01*
X51884D01*
Y42763D01*
X50478D01*
Y41057D01*
X50770D01*
Y40223D01*
X50478D01*
Y38517D01*
X50770D01*
Y37991D01*
X43276D01*
Y38490D01*
X43561D01*
Y39340D01*
Y40190D01*
X43215D01*
Y40093D01*
X42362D01*
Y39781D01*
X41493D01*
Y40073D01*
X39787D01*
Y38667D01*
X41493D01*
Y38959D01*
X42362D01*
Y38587D01*
X42454D01*
Y37991D01*
X27420D01*
X27263Y37960D01*
X27129Y37871D01*
X26193Y36934D01*
X26035Y36955D01*
X25838Y36929D01*
X25655Y36853D01*
X25498Y36732D01*
X25377Y36575D01*
X25301Y36392D01*
X25275Y36195D01*
X25301Y35998D01*
X25377Y35815D01*
X25498Y35658D01*
X25655Y35537D01*
X25838Y35461D01*
X26035Y35435D01*
X26232Y35461D01*
X26415Y35537D01*
X26572Y35658D01*
X26693Y35815D01*
X26769Y35998D01*
X26795Y36195D01*
X26774Y36353D01*
X27590Y37169D01*
X57043D01*
Y35741D01*
X56719D01*
Y36183D01*
X55313D01*
Y34477D01*
X56719D01*
Y34919D01*
X57043D01*
Y29580D01*
X57059Y29501D01*
X57104Y29433D01*
X57171Y29389D01*
X57250Y29373D01*
X66232D01*
X66797Y28807D01*
Y28285D01*
X66607D01*
Y26579D01*
X66797D01*
Y25400D01*
X66836Y25204D01*
X66947Y25037D01*
X68067Y23917D01*
Y22311D01*
X66947Y21191D01*
X66836Y21024D01*
X66797Y20828D01*
Y19505D01*
X66703Y19466D01*
X66452Y19273D01*
X66259Y19022D01*
X66158Y18778D01*
X66125Y18772D01*
X66024Y18785D01*
X65906Y19071D01*
X65697Y19342D01*
X65426Y19551D01*
X65109Y19682D01*
X64787Y19724D01*
X64752Y19773D01*
X64722Y19848D01*
X64793Y19940D01*
X64869Y20123D01*
X64895Y20320D01*
X64869Y20517D01*
X64861Y20536D01*
X66459Y22134D01*
X66478Y22126D01*
X66675Y22100D01*
X66872Y22126D01*
X67055Y22202D01*
X67212Y22323D01*
X67333Y22480D01*
X67409Y22663D01*
X67435Y22860D01*
X67409Y23057D01*
X67333Y23240D01*
X67212Y23397D01*
X67055Y23518D01*
X66872Y23594D01*
X66675Y23620D01*
X66478Y23594D01*
X66440Y23578D01*
X66411Y23593D01*
X66375Y23755D01*
X66400Y23787D01*
X66471Y23958D01*
X66495Y24142D01*
X66471Y24326D01*
X66400Y24497D01*
X66288Y24644D01*
X66141Y24756D01*
X65970Y24827D01*
X65963Y24828D01*
Y24956D01*
X65970Y24957D01*
X66141Y25028D01*
X66288Y25140D01*
X66400Y25287D01*
X66471Y25458D01*
X66495Y25642D01*
X66471Y25826D01*
X66400Y25997D01*
X66288Y26144D01*
X66141Y26256D01*
X65970Y26327D01*
X65786Y26351D01*
X65602Y26327D01*
X65431Y26256D01*
X65423Y26250D01*
X65331Y26268D01*
X64711D01*
Y26761D01*
X63305D01*
Y25055D01*
X64711D01*
Y25548D01*
X65089D01*
X65101Y25458D01*
X65172Y25287D01*
X65284Y25140D01*
X65431Y25028D01*
X65602Y24957D01*
X65609Y24956D01*
Y24828D01*
X65602Y24827D01*
X65431Y24756D01*
X65284Y24644D01*
X65172Y24497D01*
X65101Y24326D01*
X65089Y24236D01*
X64711D01*
Y24729D01*
X63305D01*
Y23023D01*
X64711D01*
Y23516D01*
X65331D01*
X65423Y23534D01*
X65431Y23528D01*
X65602Y23457D01*
X65786Y23433D01*
X65970Y23457D01*
X66013Y23475D01*
X66029Y23463D01*
X66056Y23291D01*
X66017Y23240D01*
X65941Y23057D01*
X65915Y22860D01*
X65941Y22663D01*
X65949Y22644D01*
X64351Y21046D01*
X64332Y21054D01*
X64135Y21080D01*
X63938Y21054D01*
X63755Y20978D01*
X63698Y20934D01*
X62679D01*
Y21808D01*
X61273D01*
Y20102D01*
X62679D01*
Y20214D01*
X63389D01*
X63401Y20123D01*
X63477Y19940D01*
X63598Y19783D01*
X63755Y19662D01*
X63938Y19586D01*
X63950Y19585D01*
X63986Y19452D01*
X63843Y19342D01*
X63634Y19071D01*
X63516Y18785D01*
X63415Y18772D01*
X63382Y18778D01*
X63281Y19022D01*
X63088Y19273D01*
X62837Y19466D01*
X62544Y19587D01*
X62230Y19629D01*
X61916Y19587D01*
X61623Y19466D01*
X61372Y19273D01*
X61179Y19022D01*
X61058Y18729D01*
X61025Y18483D01*
X61024Y18473D01*
X60896D01*
X60895Y18483D01*
X60862Y18729D01*
X60741Y19022D01*
X60548Y19273D01*
X60297Y19466D01*
X60004Y19587D01*
X59690Y19629D01*
X59376Y19587D01*
X59083Y19466D01*
X58832Y19273D01*
X58639Y19022D01*
X58518Y18729D01*
X58485Y18483D01*
X58484Y18473D01*
X58356D01*
X58355Y18483D01*
X58322Y18729D01*
X58201Y19022D01*
X58008Y19273D01*
X57757Y19466D01*
X57464Y19587D01*
X57150Y19629D01*
X56836Y19587D01*
X56543Y19466D01*
X56292Y19273D01*
X56099Y19022D01*
X55978Y18729D01*
X55945Y18483D01*
X55944Y18473D01*
X55816D01*
X55815Y18483D01*
X55782Y18729D01*
X55661Y19022D01*
X55468Y19273D01*
X55217Y19466D01*
X54924Y19587D01*
X54610Y19629D01*
X54296Y19587D01*
X54003Y19466D01*
X53752Y19273D01*
X53559Y19022D01*
X53438Y18729D01*
X53405Y18483D01*
X53404Y18473D01*
X53276D01*
X53275Y18483D01*
X53242Y18729D01*
X53121Y19022D01*
X52928Y19273D01*
X52677Y19466D01*
X52384Y19587D01*
X52070Y19629D01*
X51756Y19587D01*
X51463Y19466D01*
X51212Y19273D01*
X51019Y19022D01*
X50898Y18729D01*
X50865Y18483D01*
X50864Y18473D01*
X50736D01*
X50735Y18483D01*
X50702Y18729D01*
X50581Y19022D01*
X50388Y19273D01*
X50137Y19466D01*
X49844Y19587D01*
X49530Y19629D01*
X49216Y19587D01*
X48923Y19466D01*
X48672Y19273D01*
X48479Y19022D01*
X48358Y18729D01*
X48325Y18483D01*
X48324Y18473D01*
X48196D01*
X48195Y18483D01*
X48162Y18729D01*
X48041Y19022D01*
X47848Y19273D01*
X47597Y19466D01*
X47304Y19587D01*
X46990Y19629D01*
X46676Y19587D01*
X46383Y19466D01*
X46132Y19273D01*
X45939Y19022D01*
X45838Y18778D01*
X45805Y18772D01*
X45704Y18785D01*
X45586Y19071D01*
X45377Y19342D01*
X45106Y19551D01*
X44789Y19682D01*
X44704Y19693D01*
Y18415D01*
Y17137D01*
X44789Y17148D01*
X45106Y17279D01*
X45377Y17488D01*
X45586Y17759D01*
X45704Y18045D01*
X45805Y18058D01*
X45838Y18052D01*
X45939Y17808D01*
X46132Y17557D01*
X46383Y17364D01*
X46676Y17243D01*
X46990Y17201D01*
X47304Y17243D01*
X47597Y17364D01*
X47848Y17557D01*
X48041Y17808D01*
X48162Y18101D01*
X48195Y18347D01*
X48196Y18357D01*
X48324D01*
X48325Y18347D01*
X48358Y18101D01*
X48479Y17808D01*
X48672Y17557D01*
X48923Y17364D01*
X49216Y17243D01*
X49530Y17201D01*
X49844Y17243D01*
X50137Y17364D01*
X50388Y17557D01*
X50581Y17808D01*
X50702Y18101D01*
X50735Y18347D01*
X50736Y18357D01*
X50864D01*
X50865Y18347D01*
X50898Y18101D01*
X51019Y17808D01*
X51212Y17557D01*
X51463Y17364D01*
X51756Y17243D01*
X52070Y17201D01*
X52384Y17243D01*
X52677Y17364D01*
X52928Y17557D01*
X53121Y17808D01*
X53242Y18101D01*
X53275Y18347D01*
X53276Y18357D01*
X53404D01*
X53405Y18347D01*
X53438Y18101D01*
X53559Y17808D01*
X53752Y17557D01*
X54003Y17364D01*
X54296Y17243D01*
X54610Y17201D01*
X54924Y17243D01*
X55217Y17364D01*
X55468Y17557D01*
X55661Y17808D01*
X55782Y18101D01*
X55815Y18347D01*
X55816Y18357D01*
X55944D01*
X55945Y18347D01*
X55978Y18101D01*
X56099Y17808D01*
X56292Y17557D01*
X56543Y17364D01*
X56836Y17243D01*
X57150Y17201D01*
X57464Y17243D01*
X57757Y17364D01*
X58008Y17557D01*
X58201Y17808D01*
X58322Y18101D01*
X58355Y18347D01*
X58356Y18357D01*
X58484D01*
X58485Y18347D01*
X58518Y18101D01*
X58639Y17808D01*
X58832Y17557D01*
X59083Y17364D01*
X59376Y17243D01*
X59690Y17201D01*
X60004Y17243D01*
X60297Y17364D01*
X60548Y17557D01*
X60741Y17808D01*
X60862Y18101D01*
X60895Y18347D01*
X60896Y18357D01*
X61024D01*
X61025Y18347D01*
X61058Y18101D01*
X61179Y17808D01*
X61372Y17557D01*
X61623Y17364D01*
X61916Y17243D01*
X62230Y17201D01*
X62544Y17243D01*
X62837Y17364D01*
X63088Y17557D01*
X63281Y17808D01*
X63382Y18052D01*
X63415Y18058D01*
X63516Y18045D01*
X63634Y17759D01*
X63843Y17488D01*
X64114Y17279D01*
X64431Y17148D01*
X64516Y17137D01*
Y18415D01*
X65024D01*
Y17137D01*
X65109Y17148D01*
X65426Y17279D01*
X65697Y17488D01*
X65906Y17759D01*
X66024Y18045D01*
X66125Y18058D01*
X66158Y18052D01*
X66259Y17808D01*
X66452Y17557D01*
X66703Y17364D01*
X66797Y17325D01*
Y8468D01*
X62017Y3688D01*
X59423D01*
Y3928D01*
X57417D01*
Y3688D01*
X56733D01*
Y3878D01*
X55027D01*
Y3688D01*
X53563D01*
Y4528D01*
X52157D01*
Y1822D01*
X53563D01*
Y2662D01*
X55027D01*
Y2472D01*
X56733D01*
Y2662D01*
X57417D01*
Y2422D01*
X59423D01*
Y2662D01*
X62230D01*
X62426Y2701D01*
X62593Y2812D01*
X67624Y7844D01*
X87362D01*
Y7452D01*
X89168D01*
Y9058D01*
X88676D01*
Y10190D01*
X88922Y10292D01*
X89194Y10501D01*
X89403Y10773D01*
X89535Y11090D01*
X89579Y11430D01*
X89535Y11770D01*
X89403Y12087D01*
X89194Y12359D01*
X88922Y12568D01*
X88770Y12631D01*
Y12769D01*
X88922Y12832D01*
X89194Y13041D01*
X89403Y13313D01*
X89535Y13630D01*
X89579Y13970D01*
X89535Y14310D01*
X89403Y14627D01*
X89194Y14899D01*
X88922Y15108D01*
X88605Y15240D01*
X88265Y15284D01*
X87925Y15240D01*
X87608Y15108D01*
X87336Y14899D01*
X87127Y14627D01*
X86995Y14310D01*
X86951Y13970D01*
X86995Y13630D01*
X87127Y13313D01*
X87336Y13041D01*
X87608Y12832D01*
X87760Y12769D01*
Y12631D01*
X87608Y12568D01*
X87336Y12359D01*
X87127Y12087D01*
X86995Y11770D01*
X86951Y11430D01*
X86995Y11090D01*
X87127Y10773D01*
X87336Y10501D01*
X87608Y10292D01*
X87854Y10190D01*
Y9058D01*
X87362D01*
Y8666D01*
X67823D01*
Y17325D01*
X67917Y17364D01*
X68168Y17557D01*
X68361Y17808D01*
X68482Y18101D01*
X68515Y18347D01*
X68516Y18357D01*
X68644D01*
X68645Y18347D01*
X68678Y18101D01*
X68799Y17808D01*
X68992Y17557D01*
X69243Y17364D01*
X69536Y17243D01*
X69850Y17201D01*
X70164Y17243D01*
X70457Y17364D01*
X70708Y17557D01*
X70901Y17808D01*
X71022Y18101D01*
X71055Y18347D01*
X71056Y18357D01*
X71184D01*
X71185Y18347D01*
X71218Y18101D01*
X71339Y17808D01*
X71532Y17557D01*
X71783Y17364D01*
X72076Y17243D01*
X72390Y17201D01*
X72704Y17243D01*
X72997Y17364D01*
X73248Y17557D01*
X73441Y17808D01*
X73542Y18052D01*
X73575Y18058D01*
X73676Y18045D01*
X73794Y17759D01*
X74003Y17488D01*
X74274Y17279D01*
X74591Y17148D01*
X74676Y17137D01*
Y18415D01*
Y19693D01*
X74591Y19682D01*
X74274Y19551D01*
X74003Y19342D01*
X73794Y19071D01*
X73676Y18785D01*
X73575Y18772D01*
X73542Y18778D01*
X73441Y19022D01*
X73248Y19273D01*
X72997Y19466D01*
X72750Y19568D01*
Y29814D01*
X72770Y29822D01*
X72927Y29943D01*
X73048Y30100D01*
X73124Y30283D01*
X73150Y30480D01*
X73124Y30677D01*
X73048Y30860D01*
X72927Y31017D01*
X72770Y31138D01*
X72587Y31214D01*
X72390Y31240D01*
X72193Y31214D01*
X72010Y31138D01*
X71853Y31017D01*
X71732Y30860D01*
X71656Y30677D01*
X71630Y30480D01*
X71656Y30283D01*
X71732Y30100D01*
X71853Y29943D01*
X72010Y29822D01*
X72030Y29814D01*
Y19568D01*
X71783Y19466D01*
X71532Y19273D01*
X71339Y19022D01*
X71218Y18729D01*
X71185Y18483D01*
X71184Y18473D01*
X71056D01*
X71055Y18483D01*
X71022Y18729D01*
X70920Y18976D01*
X71375Y19430D01*
X71453Y19547D01*
X71480Y19685D01*
Y28544D01*
X71500Y28552D01*
X71657Y28673D01*
X71778Y28830D01*
X71854Y29013D01*
X71880Y29210D01*
X71854Y29407D01*
X71778Y29590D01*
X71657Y29747D01*
X71500Y29868D01*
X71317Y29944D01*
X71120Y29970D01*
X70923Y29944D01*
X70740Y29868D01*
X70583Y29747D01*
X70462Y29590D01*
X70386Y29407D01*
X70360Y29210D01*
X70386Y29013D01*
X70462Y28830D01*
X70583Y28673D01*
X70740Y28552D01*
X70760Y28544D01*
Y28009D01*
X70690Y27986D01*
X70633Y27976D01*
X70484Y28090D01*
X70301Y28166D01*
X70104Y28192D01*
X70045Y28243D01*
Y28285D01*
X69535D01*
X69510Y28412D01*
X69644Y28468D01*
X69821Y28604D01*
X69957Y28781D01*
X70030Y28956D01*
X68400D01*
X68473Y28781D01*
X68609Y28604D01*
X68786Y28468D01*
X68920Y28412D01*
X68895Y28285D01*
X68639D01*
Y26579D01*
X70045D01*
Y26621D01*
X70104Y26672D01*
X70301Y26698D01*
X70484Y26774D01*
X70633Y26888D01*
X70690Y26878D01*
X70760Y26855D01*
Y19834D01*
X70411Y19485D01*
X70164Y19587D01*
X69850Y19629D01*
X69536Y19587D01*
X69243Y19466D01*
X68992Y19273D01*
X68799Y19022D01*
X68678Y18729D01*
X68645Y18483D01*
X68644Y18473D01*
X68516D01*
X68515Y18483D01*
X68482Y18729D01*
X68361Y19022D01*
X68168Y19273D01*
X67917Y19466D01*
X67823Y19505D01*
Y20615D01*
X68943Y21735D01*
X69054Y21902D01*
X69093Y22098D01*
Y24130D01*
X69054Y24326D01*
X68943Y24493D01*
X67823Y25613D01*
Y26579D01*
X68013D01*
Y28285D01*
X67823D01*
Y29020D01*
X67784Y29216D01*
X67673Y29383D01*
X66957Y30098D01*
Y33437D01*
X67632D01*
Y35143D01*
X67757Y35149D01*
X68161D01*
Y34544D01*
X68961D01*
X69761D01*
Y35149D01*
X73025D01*
X73182Y35180D01*
X73316Y35269D01*
X77761Y39714D01*
X77850Y39848D01*
X77881Y40005D01*
Y45223D01*
X78077Y45304D01*
X78328Y45497D01*
X78521Y45748D01*
X78642Y46041D01*
X78684Y46355D01*
X78642Y46669D01*
X78521Y46962D01*
X78328Y47213D01*
X78077Y47406D01*
X77784Y47527D01*
X77470Y47569D01*
X77156Y47527D01*
X76863Y47406D01*
X76612Y47213D01*
X76419Y46962D01*
X76318Y46718D01*
X76285Y46712D01*
X76184Y46725D01*
X76066Y47011D01*
X75857Y47282D01*
X75586Y47491D01*
X75269Y47622D01*
X75184Y47633D01*
D02*
G37*
G36*
X57404D02*
Y46355D01*
Y45077D01*
X57489Y45088D01*
X57806Y45219D01*
X58077Y45428D01*
X58286Y45699D01*
X58404Y45985D01*
X58505Y45998D01*
X58538Y45992D01*
X58639Y45748D01*
X58832Y45497D01*
X59083Y45304D01*
X59376Y45183D01*
X59690Y45141D01*
X60004Y45183D01*
X60297Y45304D01*
X60548Y45497D01*
X60741Y45748D01*
X60862Y46041D01*
X60895Y46287D01*
X60896Y46297D01*
X61024D01*
X61025Y46287D01*
X61058Y46041D01*
X61179Y45748D01*
X61372Y45497D01*
X61623Y45304D01*
X61916Y45183D01*
X62230Y45141D01*
X62544Y45183D01*
X62837Y45304D01*
X63088Y45497D01*
X63281Y45748D01*
X63402Y46041D01*
X63435Y46287D01*
X63436Y46297D01*
X63564D01*
X63565Y46287D01*
X63598Y46041D01*
X63719Y45748D01*
X63912Y45497D01*
X64163Y45304D01*
X64456Y45183D01*
X64770Y45141D01*
X65084Y45183D01*
X65377Y45304D01*
X65628Y45497D01*
X65821Y45748D01*
X65942Y46041D01*
X65975Y46287D01*
X65976Y46297D01*
X66104D01*
X66105Y46287D01*
X66138Y46041D01*
X66259Y45748D01*
X66452Y45497D01*
X66703Y45304D01*
X66996Y45183D01*
X67310Y45141D01*
X67624Y45183D01*
X67917Y45304D01*
X68168Y45497D01*
X68361Y45748D01*
X68482Y46041D01*
X68515Y46287D01*
X68516Y46297D01*
X68644D01*
X68645Y46287D01*
X68678Y46041D01*
X68799Y45748D01*
X68992Y45497D01*
X69243Y45304D01*
X69490Y45202D01*
Y38131D01*
X69470Y38123D01*
X69313Y38002D01*
X69192Y37845D01*
X69116Y37662D01*
X69090Y37465D01*
X69116Y37268D01*
X69192Y37085D01*
X69313Y36928D01*
X69470Y36807D01*
X69653Y36731D01*
X69850Y36705D01*
X70047Y36731D01*
X70230Y36807D01*
X70387Y36928D01*
X70508Y37085D01*
X70584Y37268D01*
X70610Y37465D01*
X70584Y37662D01*
X70508Y37845D01*
X70387Y38002D01*
X70230Y38123D01*
X70210Y38131D01*
Y45202D01*
X70457Y45304D01*
X70708Y45497D01*
X70901Y45748D01*
X71022Y46041D01*
X71055Y46287D01*
X71056Y46297D01*
X71184D01*
X71185Y46287D01*
X71218Y46041D01*
X71339Y45748D01*
X71532Y45497D01*
X71783Y45304D01*
X72030Y45202D01*
Y38131D01*
X72010Y38123D01*
X71853Y38002D01*
X71732Y37845D01*
X71656Y37662D01*
X71630Y37465D01*
X71656Y37268D01*
X71732Y37085D01*
X71853Y36928D01*
X72010Y36807D01*
X72193Y36731D01*
X72390Y36705D01*
X72587Y36731D01*
X72770Y36807D01*
X72927Y36928D01*
X73048Y37085D01*
X73124Y37268D01*
X73150Y37465D01*
X73124Y37662D01*
X73048Y37845D01*
X72927Y38002D01*
X72770Y38123D01*
X72750Y38131D01*
Y45202D01*
X72997Y45304D01*
X73248Y45497D01*
X73441Y45748D01*
X73542Y45992D01*
X73575Y45998D01*
X73676Y45985D01*
X73794Y45699D01*
X74003Y45428D01*
X74274Y45219D01*
X74591Y45088D01*
X74676Y45077D01*
Y46355D01*
Y47633D01*
X74591Y47622D01*
X74274Y47491D01*
X74003Y47282D01*
X73794Y47011D01*
X73676Y46725D01*
X73575Y46712D01*
X73542Y46718D01*
X73441Y46962D01*
X73248Y47213D01*
X72997Y47406D01*
X72704Y47527D01*
X72390Y47569D01*
X72076Y47527D01*
X71783Y47406D01*
X71532Y47213D01*
X71339Y46962D01*
X71218Y46669D01*
X71185Y46423D01*
X71184Y46413D01*
X71056D01*
X71055Y46423D01*
X71022Y46669D01*
X70901Y46962D01*
X70708Y47213D01*
X70457Y47406D01*
X70164Y47527D01*
X69850Y47569D01*
X69536Y47527D01*
X69243Y47406D01*
X68992Y47213D01*
X68799Y46962D01*
X68678Y46669D01*
X68645Y46423D01*
X68644Y46413D01*
X68516D01*
X68515Y46423D01*
X68482Y46669D01*
X68361Y46962D01*
X68168Y47213D01*
X67917Y47406D01*
X67624Y47527D01*
X67310Y47569D01*
X66996Y47527D01*
X66703Y47406D01*
X66452Y47213D01*
X66259Y46962D01*
X66138Y46669D01*
X66105Y46423D01*
X66104Y46413D01*
X65976D01*
X65975Y46423D01*
X65942Y46669D01*
X65821Y46962D01*
X65628Y47213D01*
X65377Y47406D01*
X65084Y47527D01*
X64770Y47569D01*
X64456Y47527D01*
X64163Y47406D01*
X63912Y47213D01*
X63719Y46962D01*
X63598Y46669D01*
X63565Y46423D01*
X63564Y46413D01*
X63436D01*
X63435Y46423D01*
X63402Y46669D01*
X63281Y46962D01*
X63088Y47213D01*
X62837Y47406D01*
X62544Y47527D01*
X62230Y47569D01*
X61916Y47527D01*
X61623Y47406D01*
X61372Y47213D01*
X61179Y46962D01*
X61058Y46669D01*
X61025Y46423D01*
X61024Y46413D01*
X60896D01*
X60895Y46423D01*
X60862Y46669D01*
X60741Y46962D01*
X60548Y47213D01*
X60297Y47406D01*
X60004Y47527D01*
X59690Y47569D01*
X59376Y47527D01*
X59083Y47406D01*
X58832Y47213D01*
X58639Y46962D01*
X58538Y46718D01*
X58505Y46712D01*
X58404Y46725D01*
X58286Y47011D01*
X58077Y47282D01*
X57806Y47491D01*
X57489Y47622D01*
X57404Y47633D01*
D02*
G37*
G36*
X18669Y44559D02*
Y43434D01*
X19794D01*
X19779Y43545D01*
X19638Y43886D01*
X19413Y44178D01*
X19121Y44403D01*
X18780Y44544D01*
X18669Y44559D01*
D02*
G37*
G36*
X18161D02*
X18050Y44544D01*
X17709Y44403D01*
X17417Y44178D01*
X17192Y43886D01*
X17051Y43545D01*
X17036Y43434D01*
X18161D01*
Y44559D01*
D02*
G37*
G36*
X85940Y46846D02*
X85606Y46814D01*
X85285Y46716D01*
X84989Y46558D01*
X84730Y46345D01*
X84517Y46086D01*
X84359Y45790D01*
X84261Y45469D01*
X84229Y45135D01*
X84261Y44801D01*
X84359Y44480D01*
X84517Y44184D01*
X84730Y43925D01*
X84989Y43712D01*
X85285Y43554D01*
X85606Y43456D01*
X85940Y43424D01*
X86274Y43456D01*
X86595Y43554D01*
X86891Y43712D01*
X87150Y43925D01*
X87363Y44184D01*
X87521Y44480D01*
X87619Y44801D01*
X87651Y45135D01*
X87619Y45469D01*
X87521Y45790D01*
X87363Y46086D01*
X87150Y46345D01*
X86891Y46558D01*
X86595Y46716D01*
X86274Y46814D01*
X85940Y46846D01*
D02*
G37*
G36*
X33440D02*
X33106Y46814D01*
X32785Y46716D01*
X32489Y46558D01*
X32230Y46345D01*
X32017Y46086D01*
X31859Y45790D01*
X31761Y45469D01*
X31729Y45135D01*
X31761Y44801D01*
X31859Y44480D01*
X32017Y44184D01*
X32230Y43925D01*
X32489Y43712D01*
X32785Y43554D01*
X33106Y43456D01*
X33440Y43424D01*
X33774Y43456D01*
X34095Y43554D01*
X34391Y43712D01*
X34650Y43925D01*
X34863Y44184D01*
X35021Y44480D01*
X35119Y44801D01*
X35151Y45135D01*
X35119Y45469D01*
X35021Y45790D01*
X34863Y46086D01*
X34650Y46345D01*
X34391Y46558D01*
X34095Y46716D01*
X33774Y46814D01*
X33440Y46846D01*
D02*
G37*
G36*
X42611Y42790D02*
X42265D01*
Y42194D01*
X42611D01*
Y42790D01*
D02*
G37*
G36*
X92675Y43215D02*
X91379D01*
Y42169D01*
X92675D01*
Y43215D01*
D02*
G37*
G36*
X90871D02*
X89575D01*
Y42169D01*
X90871D01*
Y43215D01*
D02*
G37*
G36*
X98125D02*
X96829D01*
Y42169D01*
X98125D01*
Y43215D01*
D02*
G37*
G36*
X96321D02*
X95025D01*
Y42169D01*
X96321D01*
Y43215D01*
D02*
G37*
G36*
X18161Y42926D02*
X17036D01*
X17051Y42815D01*
X17192Y42474D01*
X17417Y42182D01*
X17709Y41957D01*
X18050Y41816D01*
X18161Y41801D01*
Y42926D01*
D02*
G37*
G36*
X19794D02*
X18669D01*
Y41801D01*
X18780Y41816D01*
X19121Y41957D01*
X19413Y42182D01*
X19638Y42474D01*
X19779Y42815D01*
X19794Y42926D01*
D02*
G37*
G36*
X41590Y42202D02*
X40894D01*
Y41656D01*
X41590D01*
Y42202D01*
D02*
G37*
G36*
X40386D02*
X39690D01*
Y41656D01*
X40386D01*
Y42202D01*
D02*
G37*
G36*
X43561Y42790D02*
X43119D01*
Y41940D01*
Y41090D01*
X43561D01*
Y41940D01*
Y42790D01*
D02*
G37*
G36*
X42611Y41686D02*
X42265D01*
Y41090D01*
X42611D01*
Y41686D01*
D02*
G37*
G36*
X44415Y42790D02*
X44069D01*
Y41940D01*
Y41090D01*
X44415D01*
Y41187D01*
X45268D01*
Y41550D01*
X46324D01*
X46332Y41530D01*
X46453Y41373D01*
X46610Y41252D01*
X46793Y41176D01*
X46990Y41150D01*
X47187Y41176D01*
X47370Y41252D01*
X47527Y41373D01*
X47648Y41530D01*
X47656Y41550D01*
X48446D01*
Y41057D01*
X49852D01*
Y42763D01*
X48446D01*
Y42270D01*
X47656D01*
X47648Y42290D01*
X47527Y42447D01*
X47370Y42568D01*
X47187Y42644D01*
X46990Y42670D01*
X46793Y42644D01*
X46610Y42568D01*
X46453Y42447D01*
X46332Y42290D01*
X46324Y42270D01*
X45268D01*
Y42693D01*
X44415D01*
Y42790D01*
D02*
G37*
G36*
X68358Y41455D02*
Y40894D01*
X68919D01*
X68846Y41069D01*
X68710Y41246D01*
X68532Y41382D01*
X68358Y41455D01*
D02*
G37*
G36*
X67850D02*
X67675Y41382D01*
X67498Y41246D01*
X67361Y41069D01*
X67289Y40894D01*
X67850D01*
Y41455D01*
D02*
G37*
G36*
X25019D02*
Y40894D01*
X25580D01*
X25507Y41069D01*
X25371Y41246D01*
X25194Y41382D01*
X25019Y41455D01*
D02*
G37*
G36*
X24511D02*
X24336Y41382D01*
X24159Y41246D01*
X24023Y41069D01*
X23950Y40894D01*
X24511D01*
Y41455D01*
D02*
G37*
G36*
X98125Y41661D02*
X96829D01*
Y40615D01*
X98125D01*
Y41661D01*
D02*
G37*
G36*
X96321D02*
X95025D01*
Y40615D01*
X96321D01*
Y41661D01*
D02*
G37*
G36*
X92675Y41661D02*
X91379D01*
Y40615D01*
X92675D01*
Y41661D01*
D02*
G37*
G36*
X90871D02*
X89575D01*
Y40615D01*
X90871D01*
Y41661D01*
D02*
G37*
G36*
X41590Y41148D02*
X40894D01*
Y40602D01*
X41590D01*
Y41148D01*
D02*
G37*
G36*
X40386D02*
X39690D01*
Y40602D01*
X40386D01*
Y41148D01*
D02*
G37*
G36*
X54864Y40820D02*
Y40259D01*
X55425D01*
X55352Y40434D01*
X55216Y40611D01*
X55039Y40747D01*
X54864Y40820D01*
D02*
G37*
G36*
X54356D02*
X54181Y40747D01*
X54004Y40611D01*
X53868Y40434D01*
X53795Y40259D01*
X54356D01*
Y40820D01*
D02*
G37*
G36*
X68919Y40386D02*
X68358D01*
Y39825D01*
X68532Y39898D01*
X68710Y40034D01*
X68846Y40211D01*
X68919Y40386D01*
D02*
G37*
G36*
X67850D02*
X67289D01*
X67361Y40211D01*
X67498Y40034D01*
X67675Y39898D01*
X67850Y39825D01*
Y40386D01*
D02*
G37*
G36*
X24511D02*
X23950D01*
X24023Y40211D01*
X24159Y40034D01*
X24336Y39898D01*
X24511Y39825D01*
Y40386D01*
D02*
G37*
G36*
X25580D02*
X25019D01*
Y39825D01*
X25194Y39898D01*
X25371Y40034D01*
X25507Y40211D01*
X25580Y40386D01*
D02*
G37*
G36*
X85766Y40273D02*
X84160D01*
Y39730D01*
X82581D01*
X82573Y39750D01*
X82452Y39907D01*
X82295Y40028D01*
X82112Y40104D01*
X81915Y40130D01*
X81718Y40104D01*
X81535Y40028D01*
X81378Y39907D01*
X81257Y39750D01*
X81181Y39567D01*
X81155Y39370D01*
X81181Y39173D01*
X81257Y38990D01*
X81378Y38833D01*
X81535Y38712D01*
X81718Y38636D01*
X81915Y38610D01*
X82112Y38636D01*
X82295Y38712D01*
X82452Y38833D01*
X82573Y38990D01*
X82581Y39010D01*
X84160D01*
Y38495D01*
X84160Y38467D01*
Y38368D01*
X84160Y38340D01*
Y37825D01*
X82581D01*
X82573Y37845D01*
X82452Y38002D01*
X82295Y38123D01*
X82112Y38199D01*
X81915Y38225D01*
X81718Y38199D01*
X81535Y38123D01*
X81378Y38002D01*
X81257Y37845D01*
X81181Y37662D01*
X81155Y37465D01*
X81181Y37268D01*
X81257Y37085D01*
X81378Y36928D01*
X81535Y36807D01*
X81718Y36731D01*
X81915Y36705D01*
X82112Y36731D01*
X82295Y36807D01*
X82452Y36928D01*
X82573Y37085D01*
X82581Y37105D01*
X84160D01*
Y36590D01*
X84160Y36562D01*
Y36463D01*
X84160Y36435D01*
Y35920D01*
X82581D01*
X82573Y35940D01*
X82452Y36097D01*
X82295Y36218D01*
X82112Y36294D01*
X81915Y36320D01*
X81718Y36294D01*
X81535Y36218D01*
X81378Y36097D01*
X81257Y35940D01*
X81181Y35757D01*
X81155Y35560D01*
X81181Y35363D01*
X81257Y35180D01*
X81378Y35023D01*
X81535Y34902D01*
X81718Y34826D01*
X81915Y34800D01*
X82112Y34826D01*
X82295Y34902D01*
X82452Y35023D01*
X82573Y35180D01*
X82581Y35200D01*
X84160D01*
Y34657D01*
X84160D01*
Y34558D01*
X84160D01*
Y32752D01*
X85766D01*
Y34558D01*
X85766D01*
Y34657D01*
X85766D01*
Y36435D01*
X85766Y36463D01*
Y36562D01*
X85766Y36590D01*
Y38340D01*
X85766Y38368D01*
Y38467D01*
X85766Y38495D01*
Y40273D01*
D02*
G37*
G36*
X49852Y40223D02*
X48446D01*
Y39730D01*
X47656D01*
X47648Y39750D01*
X47527Y39907D01*
X47370Y40028D01*
X47187Y40104D01*
X46990Y40130D01*
X46793Y40104D01*
X46610Y40028D01*
X46453Y39907D01*
X46332Y39750D01*
X46324Y39730D01*
X45268D01*
Y40093D01*
X44415D01*
Y40190D01*
X44069D01*
Y39340D01*
Y38490D01*
X44415D01*
Y38587D01*
X45268D01*
Y39010D01*
X46324D01*
X46332Y38990D01*
X46453Y38833D01*
X46610Y38712D01*
X46793Y38636D01*
X46990Y38610D01*
X47187Y38636D01*
X47370Y38712D01*
X47527Y38833D01*
X47648Y38990D01*
X47656Y39010D01*
X48446D01*
Y38517D01*
X49852D01*
Y40223D01*
D02*
G37*
G36*
X92425Y39615D02*
X91254D01*
Y39319D01*
X92425D01*
Y39615D01*
D02*
G37*
G36*
X90746D02*
X89575D01*
Y39319D01*
X90746D01*
Y39615D01*
D02*
G37*
G36*
X55425Y39751D02*
X54864D01*
Y39190D01*
X55039Y39263D01*
X55216Y39399D01*
X55352Y39576D01*
X55425Y39751D01*
D02*
G37*
G36*
X54356D02*
X53795D01*
X53868Y39576D01*
X54004Y39399D01*
X54181Y39263D01*
X54356Y39190D01*
Y39751D01*
D02*
G37*
G36*
X93650Y40324D02*
X93479Y40301D01*
X93321Y40236D01*
X93184Y40131D01*
X93079Y39994D01*
X93014Y39836D01*
X92991Y39665D01*
X93014Y39494D01*
X93079Y39336D01*
X93184Y39199D01*
X93321Y39094D01*
X93479Y39029D01*
X93650Y39006D01*
X93821Y39029D01*
X93979Y39094D01*
X94116Y39199D01*
X94221Y39336D01*
X94286Y39494D01*
X94309Y39665D01*
X94286Y39836D01*
X94221Y39994D01*
X94116Y40131D01*
X93979Y40236D01*
X93821Y40301D01*
X93650Y40324D01*
D02*
G37*
G36*
X54784Y36280D02*
X54238D01*
Y35584D01*
X54784D01*
Y36280D01*
D02*
G37*
G36*
X53730D02*
X53184D01*
Y35584D01*
X53730D01*
Y36280D01*
D02*
G37*
G36*
X87798Y40273D02*
X86192D01*
Y38495D01*
X86192Y38467D01*
X86192D01*
Y38368D01*
X86192D01*
Y36562D01*
X86192D01*
Y36463D01*
X86192D01*
X86192Y34728D01*
X86095Y34655D01*
X86095Y34584D01*
Y33909D01*
X86995D01*
X87895D01*
Y34655D01*
X87798Y34728D01*
X87798Y34782D01*
Y35505D01*
X89672D01*
Y35412D01*
X92328D01*
Y36212D01*
Y37012D01*
Y37812D01*
Y38515D01*
X92425D01*
Y38811D01*
X91000D01*
X89575D01*
Y38515D01*
X89672D01*
Y38017D01*
X89545Y37964D01*
X88435Y39075D01*
X88318Y39153D01*
X88180Y39180D01*
X87798D01*
Y40273D01*
D02*
G37*
G36*
X6080Y35698D02*
X5334D01*
Y35052D01*
X6080D01*
Y35698D01*
D02*
G37*
G36*
X4826D02*
X4080D01*
Y35052D01*
X4826D01*
Y35698D01*
D02*
G37*
G36*
X93650Y35924D02*
X93479Y35901D01*
X93321Y35836D01*
X93184Y35731D01*
X93079Y35594D01*
X93014Y35436D01*
X92991Y35265D01*
X93014Y35094D01*
X93079Y34936D01*
X93184Y34799D01*
X93321Y34694D01*
X93479Y34629D01*
X93650Y34606D01*
X93821Y34629D01*
X93979Y34694D01*
X94116Y34799D01*
X94221Y34936D01*
X94286Y35094D01*
X94309Y35265D01*
X94286Y35436D01*
X94221Y35594D01*
X94116Y35731D01*
X93979Y35836D01*
X93821Y35901D01*
X93650Y35924D01*
D02*
G37*
G36*
X54784Y35076D02*
X54238D01*
Y34380D01*
X54784D01*
Y35076D01*
D02*
G37*
G36*
X53730D02*
X53184D01*
Y34380D01*
X53730D01*
Y35076D01*
D02*
G37*
G36*
X6080Y34544D02*
X5334D01*
Y33898D01*
X6080D01*
Y34544D01*
D02*
G37*
G36*
X4826D02*
X4080D01*
Y33898D01*
X4826D01*
Y34544D01*
D02*
G37*
G36*
X69761Y34036D02*
X69215D01*
Y33340D01*
X69761D01*
Y34036D01*
D02*
G37*
G36*
X68707D02*
X68161D01*
Y33340D01*
X68707D01*
Y34036D01*
D02*
G37*
G36*
X92675Y34315D02*
X91379D01*
Y33269D01*
X92675D01*
Y34315D01*
D02*
G37*
G36*
X90871D02*
X89575D01*
Y33269D01*
X90871D01*
Y34315D01*
D02*
G37*
G36*
X98125D02*
X96829D01*
Y33269D01*
X98125D01*
Y34315D01*
D02*
G37*
G36*
X96321D02*
X95025D01*
Y33269D01*
X96321D01*
Y34315D01*
D02*
G37*
G36*
X87895Y33401D02*
X87249D01*
Y32655D01*
X87895D01*
Y33401D01*
D02*
G37*
G36*
X86741D02*
X86095D01*
Y32655D01*
X86741D01*
Y33401D01*
D02*
G37*
G36*
X5080Y43224D02*
X4740Y43180D01*
X4423Y43048D01*
X4151Y42839D01*
X3942Y42567D01*
X3810Y42250D01*
X3766Y41910D01*
X3810Y41570D01*
X3942Y41253D01*
X4151Y40981D01*
X4423Y40772D01*
X4575Y40709D01*
Y40571D01*
X4423Y40508D01*
X4151Y40299D01*
X3942Y40027D01*
X3810Y39710D01*
X3766Y39370D01*
X3810Y39030D01*
X3942Y38713D01*
X4151Y38441D01*
X4423Y38232D01*
X4669Y38130D01*
Y37633D01*
X4177D01*
Y36027D01*
X5983D01*
Y36470D01*
X16996D01*
X20700Y32765D01*
X20817Y32687D01*
X20955Y32660D01*
X52674D01*
X52682Y32640D01*
X52803Y32483D01*
X52960Y32362D01*
X53143Y32286D01*
X53340Y32260D01*
X53537Y32286D01*
X53720Y32362D01*
X53877Y32483D01*
X53998Y32640D01*
X54074Y32823D01*
X54100Y33020D01*
X54074Y33217D01*
X53998Y33400D01*
X53877Y33557D01*
X53720Y33678D01*
X53537Y33754D01*
X53340Y33780D01*
X53143Y33754D01*
X52960Y33678D01*
X52803Y33557D01*
X52682Y33400D01*
X52674Y33380D01*
X21104D01*
X17400Y37085D01*
X17283Y37163D01*
X17145Y37190D01*
X5983D01*
Y37633D01*
X5491D01*
Y38130D01*
X5737Y38232D01*
X6009Y38441D01*
X6218Y38713D01*
X6350Y39030D01*
X6394Y39370D01*
X6350Y39710D01*
X6218Y40027D01*
X6009Y40299D01*
X5737Y40508D01*
X5585Y40571D01*
Y40709D01*
X5737Y40772D01*
X6009Y40981D01*
X6218Y41253D01*
X6350Y41570D01*
X6394Y41910D01*
X6350Y42250D01*
X6218Y42567D01*
X6009Y42839D01*
X5737Y43048D01*
X5420Y43180D01*
X5080Y43224D01*
D02*
G37*
G36*
X98125Y32761D02*
X96829D01*
Y31715D01*
X98125D01*
Y32761D01*
D02*
G37*
G36*
X96321D02*
X95025D01*
Y31715D01*
X96321D01*
Y32761D01*
D02*
G37*
G36*
X92675Y32761D02*
X91379D01*
Y31715D01*
X92675D01*
Y32761D01*
D02*
G37*
G36*
X90871D02*
X89575D01*
Y31715D01*
X90871D01*
Y32761D01*
D02*
G37*
G36*
X52584Y31895D02*
Y31334D01*
X53145D01*
X53072Y31509D01*
X52936Y31686D01*
X52759Y31822D01*
X52584Y31895D01*
D02*
G37*
G36*
X52076D02*
X51901Y31822D01*
X51724Y31686D01*
X51588Y31509D01*
X51515Y31334D01*
X52076D01*
Y31895D01*
D02*
G37*
G36*
X53145Y30826D02*
X52584D01*
Y30265D01*
X52759Y30338D01*
X52936Y30474D01*
X53072Y30651D01*
X53145Y30826D01*
D02*
G37*
G36*
X52076D02*
X51515D01*
X51588Y30651D01*
X51724Y30474D01*
X51901Y30338D01*
X52076Y30265D01*
Y30826D01*
D02*
G37*
G36*
X69469Y30025D02*
Y29464D01*
X70030D01*
X69957Y29639D01*
X69821Y29816D01*
X69644Y29952D01*
X69469Y30025D01*
D02*
G37*
G36*
X68961D02*
X68786Y29952D01*
X68609Y29816D01*
X68473Y29639D01*
X68400Y29464D01*
X68961D01*
Y30025D01*
D02*
G37*
G36*
X75184Y29390D02*
Y28829D01*
X75745D01*
X75672Y29004D01*
X75536Y29181D01*
X75359Y29317D01*
X75184Y29390D01*
D02*
G37*
G36*
X74676D02*
X74501Y29317D01*
X74324Y29181D01*
X74188Y29004D01*
X74115Y28829D01*
X74676D01*
Y29390D01*
D02*
G37*
G36*
X24384D02*
Y28829D01*
X24945D01*
X24872Y29004D01*
X24736Y29181D01*
X24559Y29317D01*
X24384Y29390D01*
D02*
G37*
G36*
X23876D02*
X23701Y29317D01*
X23524Y29181D01*
X23388Y29004D01*
X23315Y28829D01*
X23876D01*
Y29390D01*
D02*
G37*
G36*
X75745Y28321D02*
X75184D01*
Y27760D01*
X75359Y27833D01*
X75536Y27969D01*
X75672Y28146D01*
X75745Y28321D01*
D02*
G37*
G36*
X74676D02*
X74115D01*
X74188Y28146D01*
X74324Y27969D01*
X74501Y27833D01*
X74676Y27760D01*
Y28321D01*
D02*
G37*
G36*
X24945D02*
X24384D01*
Y27760D01*
X24559Y27833D01*
X24736Y27969D01*
X24872Y28146D01*
X24945Y28321D01*
D02*
G37*
G36*
X23876D02*
X23315D01*
X23388Y28146D01*
X23524Y27969D01*
X23701Y27833D01*
X23876Y27760D01*
Y28321D01*
D02*
G37*
G36*
X7747Y27520D02*
X6901D01*
Y26924D01*
X7747D01*
Y27520D01*
D02*
G37*
G36*
X59309Y27485D02*
Y26924D01*
X59870D01*
X59797Y27099D01*
X59661Y27276D01*
X59484Y27412D01*
X59309Y27485D01*
D02*
G37*
G36*
X58801D02*
X58626Y27412D01*
X58449Y27276D01*
X58313Y27099D01*
X58240Y26924D01*
X58801D01*
Y27485D01*
D02*
G37*
G36*
X62776Y26858D02*
X62230D01*
Y26162D01*
X62776D01*
Y26858D01*
D02*
G37*
G36*
X61722D02*
X61176D01*
Y26162D01*
X61722D01*
Y26858D01*
D02*
G37*
G36*
X59870Y26416D02*
X59309D01*
Y25855D01*
X59484Y25928D01*
X59661Y26064D01*
X59797Y26241D01*
X59870Y26416D01*
D02*
G37*
G36*
X58801D02*
X58240D01*
X58313Y26241D01*
X58449Y26064D01*
X58626Y25928D01*
X58801Y25855D01*
Y26416D01*
D02*
G37*
G36*
X7747Y26416D02*
X6901D01*
Y25820D01*
X7747D01*
Y26416D01*
D02*
G37*
G36*
X10414Y26427D02*
Y25781D01*
X11160D01*
Y26427D01*
X10414D01*
D02*
G37*
G36*
X9101Y27520D02*
X8255D01*
Y26670D01*
Y25820D01*
X9033D01*
X9101Y25820D01*
X9123Y25781D01*
X9906D01*
Y26427D01*
X9228D01*
X9160Y26427D01*
X9101Y26530D01*
Y27520D01*
D02*
G37*
G36*
X59055Y25525D02*
X58858Y25499D01*
X58675Y25423D01*
X58518Y25302D01*
X58397Y25145D01*
X58389Y25125D01*
X49434D01*
X49426Y25145D01*
X49305Y25302D01*
X49148Y25423D01*
X48965Y25499D01*
X48768Y25525D01*
X48571Y25499D01*
X48388Y25423D01*
X48231Y25302D01*
X48110Y25145D01*
X48034Y24962D01*
X48008Y24765D01*
X48034Y24568D01*
X48110Y24385D01*
X48231Y24228D01*
X48388Y24107D01*
X48571Y24031D01*
X48768Y24005D01*
X48965Y24031D01*
X49148Y24107D01*
X49305Y24228D01*
X49426Y24385D01*
X49434Y24405D01*
X58389D01*
X58397Y24385D01*
X58518Y24228D01*
X58675Y24107D01*
X58858Y24031D01*
X59055Y24005D01*
X59252Y24031D01*
X59435Y24107D01*
X59592Y24228D01*
X59713Y24385D01*
X59789Y24568D01*
X59815Y24765D01*
X59789Y24962D01*
X59713Y25145D01*
X59592Y25302D01*
X59435Y25423D01*
X59252Y25499D01*
X59055Y25525D01*
D02*
G37*
G36*
X62776Y25654D02*
X62230D01*
Y24958D01*
X62776D01*
Y25654D01*
D02*
G37*
G36*
X61722D02*
X61176D01*
Y24958D01*
X61722D01*
Y25654D01*
D02*
G37*
G36*
X11160Y25273D02*
X10414D01*
Y24627D01*
X11160D01*
Y25273D01*
D02*
G37*
G36*
X9906D02*
X9160D01*
Y24627D01*
X9906D01*
Y25273D01*
D02*
G37*
G36*
X62776Y24826D02*
X62230D01*
Y24130D01*
X62776D01*
Y24826D01*
D02*
G37*
G36*
X61722D02*
X61176D01*
Y23741D01*
X61049Y23715D01*
X60983Y23875D01*
X60862Y24032D01*
X60705Y24153D01*
X60522Y24229D01*
X60325Y24255D01*
X60128Y24229D01*
X59945Y24153D01*
X59788Y24032D01*
X59667Y23875D01*
X59659Y23855D01*
X53371D01*
X53363Y23875D01*
X53242Y24032D01*
X53085Y24153D01*
X52902Y24229D01*
X52705Y24255D01*
X52508Y24229D01*
X52325Y24153D01*
X52168Y24032D01*
X52047Y23875D01*
X51971Y23692D01*
X51945Y23495D01*
X51971Y23298D01*
X52047Y23115D01*
X52168Y22958D01*
X52325Y22837D01*
X52508Y22761D01*
X52705Y22735D01*
X52902Y22761D01*
X53085Y22837D01*
X53242Y22958D01*
X53363Y23115D01*
X53371Y23135D01*
X59659D01*
X59667Y23115D01*
X59788Y22958D01*
X59945Y22837D01*
X60128Y22761D01*
X60325Y22735D01*
X60522Y22761D01*
X60705Y22837D01*
X60862Y22958D01*
X60983Y23115D01*
X61049Y23275D01*
X61176Y23249D01*
Y22926D01*
X61722D01*
Y23876D01*
Y24826D01*
D02*
G37*
G36*
X62776Y23622D02*
X62230D01*
Y22926D01*
X62776D01*
Y23622D01*
D02*
G37*
G36*
X18415Y24494D02*
X18075Y24450D01*
X17758Y24318D01*
X17486Y24109D01*
X17277Y23837D01*
X17145Y23520D01*
X17101Y23180D01*
X17145Y22840D01*
X17277Y22523D01*
X17486Y22251D01*
X17758Y22042D01*
X18075Y21910D01*
X18415Y21866D01*
X18755Y21910D01*
X19072Y22042D01*
X19344Y22251D01*
X19553Y22523D01*
X19685Y22840D01*
X19729Y23180D01*
X19685Y23520D01*
X19553Y23837D01*
X19344Y24109D01*
X19072Y24318D01*
X18755Y24450D01*
X18415Y24494D01*
D02*
G37*
G36*
X60744Y21905D02*
X60198D01*
Y21209D01*
X60744D01*
Y21905D01*
D02*
G37*
G36*
X59690D02*
X59144D01*
Y21209D01*
X59690D01*
Y21905D01*
D02*
G37*
G36*
X95885Y22652D02*
X95610Y22616D01*
X95354Y22510D01*
X95134Y22341D01*
X94965Y22121D01*
X94859Y21865D01*
X94823Y21590D01*
X94859Y21315D01*
X94965Y21059D01*
X95134Y20839D01*
X95354Y20670D01*
X95610Y20564D01*
X95885Y20528D01*
X96160Y20564D01*
X96416Y20670D01*
X96636Y20839D01*
X96805Y21059D01*
X96911Y21315D01*
X96947Y21590D01*
X96911Y21865D01*
X96805Y22121D01*
X96636Y22341D01*
X96416Y22510D01*
X96160Y22616D01*
X95885Y22652D01*
D02*
G37*
G36*
X83185Y23620D02*
X82988Y23594D01*
X82805Y23518D01*
X82648Y23397D01*
X82527Y23240D01*
X82451Y23057D01*
X82425Y22860D01*
X82451Y22663D01*
X82527Y22480D01*
X82648Y22323D01*
X82805Y22202D01*
X82988Y22126D01*
X83185Y22100D01*
X83382Y22126D01*
X83565Y22202D01*
X83722Y22323D01*
X83843Y22480D01*
X83851Y22500D01*
X91926D01*
X92390Y22036D01*
X92319Y21865D01*
X92283Y21590D01*
X92319Y21315D01*
X92425Y21059D01*
X92594Y20839D01*
X92814Y20670D01*
X93070Y20564D01*
X93345Y20528D01*
X93620Y20564D01*
X93876Y20670D01*
X94096Y20839D01*
X94265Y21059D01*
X94371Y21315D01*
X94407Y21590D01*
X94371Y21865D01*
X94265Y22121D01*
X94096Y22341D01*
X93876Y22510D01*
X93620Y22616D01*
X93345Y22652D01*
X93070Y22616D01*
X92899Y22545D01*
X92330Y23115D01*
X92213Y23193D01*
X92075Y23220D01*
X83851D01*
X83843Y23240D01*
X83722Y23397D01*
X83565Y23518D01*
X83382Y23594D01*
X83185Y23620D01*
D02*
G37*
G36*
X60744Y20701D02*
X60198D01*
Y20005D01*
X60744D01*
Y20701D01*
D02*
G37*
G36*
X59690D02*
X59144D01*
Y20005D01*
X59690D01*
Y20701D01*
D02*
G37*
G36*
X9001Y20331D02*
X8255D01*
Y19685D01*
X9001D01*
Y20331D01*
D02*
G37*
G36*
X7747D02*
X7001D01*
Y19685D01*
X7747D01*
Y20331D01*
D02*
G37*
G36*
X4826Y20066D02*
X3701D01*
X3716Y19955D01*
X3857Y19614D01*
X4082Y19322D01*
X4374Y19097D01*
X4715Y18956D01*
X4826Y18941D01*
Y20066D01*
D02*
G37*
G36*
X6459D02*
X5334D01*
Y18941D01*
X5445Y18956D01*
X5786Y19097D01*
X6078Y19322D01*
X6303Y19614D01*
X6444Y19955D01*
X6459Y20066D01*
D02*
G37*
G36*
X44196Y19693D02*
X44111Y19682D01*
X43794Y19551D01*
X43523Y19342D01*
X43314Y19071D01*
X43196Y18785D01*
X43095Y18772D01*
X43062Y18778D01*
X42961Y19022D01*
X42768Y19273D01*
X42517Y19466D01*
X42224Y19587D01*
X41910Y19629D01*
X41596Y19587D01*
X41303Y19466D01*
X41052Y19273D01*
X40859Y19022D01*
X40738Y18729D01*
X40696Y18415D01*
X40738Y18101D01*
X40859Y17808D01*
X41052Y17557D01*
X41303Y17364D01*
X41596Y17243D01*
X41910Y17201D01*
X42224Y17243D01*
X42517Y17364D01*
X42768Y17557D01*
X42961Y17808D01*
X43062Y18052D01*
X43095Y18058D01*
X43196Y18045D01*
X43314Y17759D01*
X43523Y17488D01*
X43794Y17279D01*
X44111Y17148D01*
X44196Y17137D01*
Y18415D01*
Y19693D01*
D02*
G37*
G36*
X9001Y19177D02*
X8255D01*
Y18531D01*
X9001D01*
Y19177D01*
D02*
G37*
G36*
X7747D02*
X7001D01*
Y18531D01*
X7747D01*
Y19177D01*
D02*
G37*
G36*
X95885Y20112D02*
X95610Y20076D01*
X95354Y19970D01*
X95134Y19801D01*
X94965Y19581D01*
X94859Y19325D01*
X94823Y19050D01*
X94859Y18775D01*
X94965Y18519D01*
X95134Y18299D01*
X95354Y18130D01*
X95610Y18024D01*
X95885Y17988D01*
X96160Y18024D01*
X96416Y18130D01*
X96636Y18299D01*
X96805Y18519D01*
X96911Y18775D01*
X96947Y19050D01*
X96911Y19325D01*
X96805Y19581D01*
X96636Y19801D01*
X96416Y19970D01*
X96160Y20076D01*
X95885Y20112D01*
D02*
G37*
G36*
X93345D02*
X93070Y20076D01*
X92814Y19970D01*
X92594Y19801D01*
X92425Y19581D01*
X92319Y19325D01*
X92283Y19050D01*
X92319Y18775D01*
X92425Y18519D01*
X92594Y18299D01*
X92814Y18130D01*
X93070Y18024D01*
X93345Y17988D01*
X93620Y18024D01*
X93876Y18130D01*
X94096Y18299D01*
X94265Y18519D01*
X94371Y18775D01*
X94407Y19050D01*
X94371Y19325D01*
X94265Y19581D01*
X94096Y19801D01*
X93876Y19970D01*
X93620Y20076D01*
X93345Y20112D01*
D02*
G37*
G36*
X85940Y21346D02*
X85606Y21314D01*
X85285Y21216D01*
X84989Y21058D01*
X84730Y20845D01*
X84517Y20586D01*
X84359Y20290D01*
X84261Y19969D01*
X84229Y19635D01*
X84261Y19301D01*
X84359Y18980D01*
X84517Y18684D01*
X84730Y18425D01*
X84989Y18212D01*
X85285Y18054D01*
X85606Y17956D01*
X85940Y17924D01*
X86274Y17956D01*
X86595Y18054D01*
X86891Y18212D01*
X87150Y18425D01*
X87363Y18684D01*
X87521Y18980D01*
X87619Y19301D01*
X87651Y19635D01*
X87619Y19969D01*
X87521Y20290D01*
X87363Y20586D01*
X87150Y20845D01*
X86891Y21058D01*
X86595Y21216D01*
X86274Y21314D01*
X85940Y21346D01*
D02*
G37*
G36*
X33440D02*
X33106Y21314D01*
X32785Y21216D01*
X32489Y21058D01*
X32230Y20845D01*
X32017Y20586D01*
X31859Y20290D01*
X31761Y19969D01*
X31729Y19635D01*
X31761Y19301D01*
X31859Y18980D01*
X32017Y18684D01*
X32230Y18425D01*
X32489Y18212D01*
X32785Y18054D01*
X33106Y17956D01*
X33440Y17924D01*
X33774Y17956D01*
X34095Y18054D01*
X34391Y18212D01*
X34650Y18425D01*
X34863Y18684D01*
X35021Y18980D01*
X35119Y19301D01*
X35151Y19635D01*
X35119Y19969D01*
X35021Y20290D01*
X34863Y20586D01*
X34650Y20845D01*
X34391Y21058D01*
X34095Y21216D01*
X33774Y21314D01*
X33440Y21346D01*
D02*
G37*
G36*
X75184Y19693D02*
Y18415D01*
Y17137D01*
X75269Y17148D01*
X75586Y17279D01*
X75857Y17488D01*
X76066Y17759D01*
X76184Y18045D01*
X76285Y18058D01*
X76318Y18052D01*
X76419Y17808D01*
X76612Y17557D01*
X76863Y17364D01*
X77156Y17243D01*
X77470Y17201D01*
X77784Y17243D01*
X78077Y17364D01*
X78328Y17557D01*
X78521Y17808D01*
X78642Y18101D01*
X78684Y18415D01*
X78642Y18729D01*
X78521Y19022D01*
X78328Y19273D01*
X78077Y19466D01*
X77784Y19587D01*
X77470Y19629D01*
X77156Y19587D01*
X76863Y19466D01*
X76612Y19273D01*
X76419Y19022D01*
X76318Y18778D01*
X76285Y18772D01*
X76184Y18785D01*
X76066Y19071D01*
X75857Y19342D01*
X75586Y19551D01*
X75269Y19682D01*
X75184Y19693D01*
D02*
G37*
G36*
X96139Y17636D02*
Y16764D01*
X97011D01*
X97005Y16810D01*
X96890Y17090D01*
X96705Y17330D01*
X96465Y17515D01*
X96185Y17630D01*
X96139Y17636D01*
D02*
G37*
G36*
X93599D02*
Y16764D01*
X94471D01*
X94465Y16810D01*
X94350Y17090D01*
X94165Y17330D01*
X93925Y17515D01*
X93645Y17630D01*
X93599Y17636D01*
D02*
G37*
G36*
X93091D02*
X93045Y17630D01*
X92765Y17515D01*
X92525Y17330D01*
X92340Y17090D01*
X92225Y16810D01*
X92219Y16764D01*
X93091D01*
Y17636D01*
D02*
G37*
G36*
X95631D02*
X95585Y17630D01*
X95305Y17515D01*
X95065Y17330D01*
X94880Y17090D01*
X94765Y16810D01*
X94759Y16764D01*
X95631D01*
Y17636D01*
D02*
G37*
G36*
X5080Y31794D02*
X4740Y31750D01*
X4423Y31618D01*
X4151Y31409D01*
X3942Y31137D01*
X3810Y30820D01*
X3766Y30480D01*
X3810Y30140D01*
X3942Y29823D01*
X4151Y29551D01*
X4423Y29342D01*
X4575Y29279D01*
Y29141D01*
X4423Y29078D01*
X4151Y28869D01*
X3942Y28597D01*
X3810Y28280D01*
X3766Y27940D01*
X3810Y27600D01*
X3942Y27283D01*
X4151Y27011D01*
X4423Y26802D01*
X4575Y26739D01*
Y26601D01*
X4423Y26538D01*
X4151Y26329D01*
X3942Y26057D01*
X3810Y25740D01*
X3766Y25400D01*
X3810Y25060D01*
X3942Y24743D01*
X4151Y24471D01*
X4423Y24262D01*
X4575Y24199D01*
Y24061D01*
X4423Y23998D01*
X4151Y23789D01*
X3942Y23517D01*
X3810Y23200D01*
X3766Y22860D01*
X3810Y22520D01*
X3942Y22203D01*
X4151Y21931D01*
X4423Y21722D01*
X4461Y21706D01*
Y21579D01*
X4374Y21543D01*
X4082Y21318D01*
X3857Y21026D01*
X3716Y20685D01*
X3701Y20574D01*
X5080D01*
X6459D01*
X6444Y20685D01*
X6303Y21026D01*
X6078Y21318D01*
X5786Y21543D01*
X5699Y21579D01*
Y21706D01*
X5737Y21722D01*
X6009Y21931D01*
X6178Y22151D01*
X7098D01*
Y20660D01*
X8904D01*
Y22151D01*
X11261D01*
X11361Y21965D01*
X11561Y21721D01*
X11805Y21521D01*
X12084Y21372D01*
X12386Y21280D01*
X12700Y21249D01*
X13014Y21280D01*
X13216Y21341D01*
X17913Y16643D01*
X17913Y16643D01*
X18060Y16531D01*
X18231Y16460D01*
X18415Y16436D01*
X18415Y16436D01*
X21222D01*
Y15432D01*
X23228D01*
Y19638D01*
X21222D01*
Y17854D01*
X18709D01*
X14219Y22344D01*
X14280Y22546D01*
X14311Y22860D01*
X14280Y23174D01*
X14188Y23476D01*
X14039Y23755D01*
X13839Y23999D01*
X13595Y24199D01*
X13316Y24348D01*
X13014Y24440D01*
X12700Y24471D01*
X12386Y24440D01*
X12084Y24348D01*
X11805Y24199D01*
X11561Y23999D01*
X11361Y23755D01*
X11261Y23569D01*
X11063D01*
Y24298D01*
X9257D01*
Y23569D01*
X9004D01*
Y24375D01*
X6998D01*
Y23569D01*
X6178D01*
X6009Y23789D01*
X5737Y23998D01*
X5585Y24061D01*
Y24199D01*
X5737Y24262D01*
X6009Y24471D01*
X6218Y24743D01*
X6350Y25060D01*
X6394Y25400D01*
X6350Y25740D01*
X6218Y26057D01*
X6009Y26329D01*
X5737Y26538D01*
X5585Y26601D01*
Y26739D01*
X5737Y26802D01*
X6009Y27011D01*
X6218Y27283D01*
X6350Y27600D01*
X6394Y27940D01*
X6350Y28280D01*
X6218Y28597D01*
X6009Y28869D01*
X5737Y29078D01*
X5585Y29141D01*
Y29279D01*
X5737Y29342D01*
X6009Y29551D01*
X6218Y29823D01*
X6350Y30140D01*
X6394Y30480D01*
X6350Y30820D01*
X6218Y31137D01*
X6009Y31409D01*
X5737Y31618D01*
X5420Y31750D01*
X5080Y31794D01*
D02*
G37*
G36*
X95631Y16256D02*
X94759D01*
X94765Y16210D01*
X94880Y15930D01*
X95065Y15690D01*
X95305Y15505D01*
X95585Y15390D01*
X95631Y15384D01*
Y16256D01*
D02*
G37*
G36*
X93091D02*
X92219D01*
X92225Y16210D01*
X92340Y15930D01*
X92525Y15690D01*
X92765Y15505D01*
X93045Y15390D01*
X93091Y15384D01*
Y16256D01*
D02*
G37*
G36*
X94471D02*
X93599D01*
Y15384D01*
X93645Y15390D01*
X93925Y15505D01*
X94165Y15690D01*
X94350Y15930D01*
X94465Y16210D01*
X94471Y16256D01*
D02*
G37*
G36*
X97011D02*
X96139D01*
Y15384D01*
X96185Y15390D01*
X96465Y15505D01*
X96705Y15690D01*
X96890Y15930D01*
X97005Y16210D01*
X97011Y16256D01*
D02*
G37*
G36*
X5254Y16140D02*
Y14334D01*
X7285D01*
X7270Y14482D01*
X7153Y14868D01*
X6963Y15224D01*
X6707Y15537D01*
X6394Y15793D01*
X6038Y15983D01*
X5652Y16100D01*
X5254Y16140D01*
D02*
G37*
G36*
X4746D02*
X4348Y16100D01*
X3962Y15983D01*
X3606Y15793D01*
X3293Y15537D01*
X3037Y15224D01*
X2847Y14868D01*
X2730Y14482D01*
X2715Y14334D01*
X4746D01*
Y16140D01*
D02*
G37*
G36*
X95885Y15032D02*
X95610Y14996D01*
X95354Y14890D01*
X95134Y14721D01*
X94965Y14501D01*
X94859Y14245D01*
X94823Y13970D01*
X94859Y13695D01*
X94965Y13439D01*
X95134Y13219D01*
X95354Y13050D01*
X95610Y12944D01*
X95885Y12908D01*
X96160Y12944D01*
X96416Y13050D01*
X96636Y13219D01*
X96805Y13439D01*
X96911Y13695D01*
X96947Y13970D01*
X96911Y14245D01*
X96805Y14501D01*
X96636Y14721D01*
X96416Y14890D01*
X96160Y14996D01*
X95885Y15032D01*
D02*
G37*
G36*
X93345D02*
X93070Y14996D01*
X92814Y14890D01*
X92594Y14721D01*
X92425Y14501D01*
X92319Y14245D01*
X92283Y13970D01*
X92319Y13695D01*
X92425Y13439D01*
X92594Y13219D01*
X92814Y13050D01*
X93070Y12944D01*
X93345Y12908D01*
X93620Y12944D01*
X93876Y13050D01*
X94096Y13219D01*
X94265Y13439D01*
X94371Y13695D01*
X94407Y13970D01*
X94371Y14245D01*
X94265Y14501D01*
X94096Y14721D01*
X93876Y14890D01*
X93620Y14996D01*
X93345Y15032D01*
D02*
G37*
G36*
X40470Y14655D02*
X39624D01*
Y12709D01*
X40470D01*
Y14655D01*
D02*
G37*
G36*
X39116D02*
X38270D01*
Y12709D01*
X39116D01*
Y14655D01*
D02*
G37*
G36*
X81026Y12809D02*
X80915Y12794D01*
X80574Y12653D01*
X80282Y12428D01*
X80057Y12136D01*
X80021Y12049D01*
X79894D01*
X79878Y12087D01*
X79669Y12359D01*
X79397Y12568D01*
X79080Y12700D01*
X78740Y12744D01*
X78400Y12700D01*
X78083Y12568D01*
X77811Y12359D01*
X77602Y12087D01*
X77539Y11935D01*
X77401D01*
X77338Y12087D01*
X77129Y12359D01*
X76857Y12568D01*
X76540Y12700D01*
X76200Y12744D01*
X75860Y12700D01*
X75543Y12568D01*
X75271Y12359D01*
X75062Y12087D01*
X74999Y11935D01*
X74861D01*
X74798Y12087D01*
X74589Y12359D01*
X74317Y12568D01*
X74000Y12700D01*
X73660Y12744D01*
X73320Y12700D01*
X73003Y12568D01*
X72731Y12359D01*
X72522Y12087D01*
X72390Y11770D01*
X72346Y11430D01*
X72390Y11090D01*
X72522Y10773D01*
X72731Y10501D01*
X73003Y10292D01*
X73320Y10160D01*
X73660Y10116D01*
X74000Y10160D01*
X74317Y10292D01*
X74589Y10501D01*
X74798Y10773D01*
X74861Y10925D01*
X74999D01*
X75062Y10773D01*
X75271Y10501D01*
X75543Y10292D01*
X75860Y10160D01*
X76200Y10116D01*
X76540Y10160D01*
X76857Y10292D01*
X77129Y10501D01*
X77338Y10773D01*
X77401Y10925D01*
X77539D01*
X77602Y10773D01*
X77811Y10501D01*
X78083Y10292D01*
X78400Y10160D01*
X78740Y10116D01*
X79080Y10160D01*
X79397Y10292D01*
X79669Y10501D01*
X79878Y10773D01*
X79894Y10811D01*
X80021D01*
X80057Y10724D01*
X80282Y10432D01*
X80574Y10207D01*
X80915Y10066D01*
X81026Y10051D01*
Y11430D01*
Y12809D01*
D02*
G37*
G36*
X4746Y13826D02*
X2715D01*
X2730Y13678D01*
X2847Y13292D01*
X3037Y12936D01*
X3293Y12623D01*
X3606Y12367D01*
X3962Y12177D01*
X4348Y12060D01*
X4746Y12020D01*
Y13826D01*
D02*
G37*
G36*
X7285D02*
X5254D01*
Y12020D01*
X5652Y12060D01*
X6038Y12177D01*
X6394Y12367D01*
X6707Y12623D01*
X6963Y12936D01*
X7153Y13292D01*
X7270Y13678D01*
X7285Y13826D01*
D02*
G37*
G36*
X85090Y15284D02*
X84750Y15240D01*
X84433Y15108D01*
X84161Y14899D01*
X83952Y14627D01*
X83820Y14310D01*
X83776Y13970D01*
X83820Y13630D01*
X83952Y13313D01*
X84161Y13041D01*
X84433Y12832D01*
X84471Y12816D01*
Y12689D01*
X84384Y12653D01*
X84092Y12428D01*
X83867Y12136D01*
X83726Y11795D01*
X83711Y11684D01*
X85090D01*
X86469D01*
X86454Y11795D01*
X86313Y12136D01*
X86088Y12428D01*
X85796Y12653D01*
X85709Y12689D01*
Y12816D01*
X85747Y12832D01*
X86019Y13041D01*
X86228Y13313D01*
X86360Y13630D01*
X86404Y13970D01*
X86360Y14310D01*
X86228Y14627D01*
X86019Y14899D01*
X85747Y15108D01*
X85430Y15240D01*
X85090Y15284D01*
D02*
G37*
G36*
X81534Y12809D02*
Y11684D01*
X82659D01*
X82644Y11795D01*
X82503Y12136D01*
X82278Y12428D01*
X81986Y12653D01*
X81645Y12794D01*
X81534Y12809D01*
D02*
G37*
G36*
X95885Y12492D02*
X95610Y12456D01*
X95354Y12350D01*
X95134Y12181D01*
X94965Y11961D01*
X94859Y11705D01*
X94823Y11430D01*
X94859Y11155D01*
X94965Y10899D01*
X95134Y10679D01*
X95354Y10510D01*
X95610Y10404D01*
X95885Y10368D01*
X96160Y10404D01*
X96416Y10510D01*
X96636Y10679D01*
X96805Y10899D01*
X96911Y11155D01*
X96947Y11430D01*
X96911Y11705D01*
X96805Y11961D01*
X96636Y12181D01*
X96416Y12350D01*
X96160Y12456D01*
X95885Y12492D01*
D02*
G37*
G36*
X93345D02*
X93070Y12456D01*
X92814Y12350D01*
X92594Y12181D01*
X92425Y11961D01*
X92319Y11705D01*
X92283Y11430D01*
X92319Y11155D01*
X92425Y10899D01*
X92594Y10679D01*
X92814Y10510D01*
X93070Y10404D01*
X93345Y10368D01*
X93620Y10404D01*
X93876Y10510D01*
X94096Y10679D01*
X94265Y10899D01*
X94371Y11155D01*
X94407Y11430D01*
X94371Y11705D01*
X94265Y11961D01*
X94096Y12181D01*
X93876Y12350D01*
X93620Y12456D01*
X93345Y12492D01*
D02*
G37*
G36*
X40470Y12201D02*
X39624D01*
Y10255D01*
X40470D01*
Y12201D01*
D02*
G37*
G36*
X39116D02*
X38270D01*
Y10255D01*
X39116D01*
Y12201D01*
D02*
G37*
G36*
X86469Y11176D02*
X85344D01*
Y10051D01*
X85455Y10066D01*
X85796Y10207D01*
X86088Y10432D01*
X86313Y10724D01*
X86454Y11065D01*
X86469Y11176D01*
D02*
G37*
G36*
X82659Y11176D02*
X81534D01*
Y10051D01*
X81645Y10066D01*
X81986Y10207D01*
X82278Y10432D01*
X82503Y10724D01*
X82644Y11065D01*
X82659Y11176D01*
D02*
G37*
G36*
X84836Y11176D02*
X83711D01*
X83726Y11065D01*
X83867Y10724D01*
X84092Y10432D01*
X84384Y10207D01*
X84725Y10066D01*
X84836Y10051D01*
Y11176D01*
D02*
G37*
G36*
X23325Y11335D02*
X22479D01*
Y9389D01*
X23325D01*
Y11335D01*
D02*
G37*
G36*
X21971D02*
X21125D01*
Y9389D01*
X21971D01*
Y11335D01*
D02*
G37*
G36*
X52860Y10775D02*
X50814D01*
Y9229D01*
X52860D01*
Y10775D01*
D02*
G37*
G36*
X50306D02*
X48260D01*
Y9229D01*
X50306D01*
Y10775D01*
D02*
G37*
G36*
X52860Y8721D02*
X50814D01*
Y7175D01*
X52860D01*
Y8721D01*
D02*
G37*
G36*
X50306D02*
X48260D01*
Y7175D01*
X50306D01*
Y8721D01*
D02*
G37*
G36*
X23325Y8881D02*
X22479D01*
Y6935D01*
X23325D01*
Y8881D01*
D02*
G37*
G36*
X21971D02*
X21125D01*
Y6935D01*
X21971D01*
Y8881D01*
D02*
G37*
G36*
X89265Y7123D02*
X88519D01*
Y6477D01*
X89265D01*
Y7123D01*
D02*
G37*
G36*
X88011D02*
X87265D01*
Y6477D01*
X88011D01*
Y7123D01*
D02*
G37*
G36*
X59520Y7073D02*
X58674D01*
Y6477D01*
X59520D01*
Y7073D01*
D02*
G37*
G36*
X58166D02*
X57320D01*
Y6477D01*
X58166D01*
Y7073D01*
D02*
G37*
G36*
X32215D02*
X31369D01*
Y6477D01*
X32215D01*
Y7073D01*
D02*
G37*
G36*
X30861D02*
X30015D01*
Y6477D01*
X30861D01*
Y7073D01*
D02*
G37*
G36*
X28890Y6007D02*
X28194D01*
Y5461D01*
X28890D01*
Y6007D01*
D02*
G37*
G36*
X27686D02*
X26990D01*
Y5461D01*
X27686D01*
Y6007D01*
D02*
G37*
G36*
X56830D02*
X56134D01*
Y5461D01*
X56830D01*
Y6007D01*
D02*
G37*
G36*
X55626D02*
X54930D01*
Y5461D01*
X55626D01*
Y6007D01*
D02*
G37*
G36*
X59520Y5969D02*
X58674D01*
Y5373D01*
X59520D01*
Y5969D01*
D02*
G37*
G36*
X58166D02*
X57320D01*
Y5373D01*
X58166D01*
Y5969D01*
D02*
G37*
G36*
X32215D02*
X31369D01*
Y5373D01*
X32215D01*
Y5969D01*
D02*
G37*
G36*
X30861D02*
X30015D01*
Y5373D01*
X30861D01*
Y5969D01*
D02*
G37*
G36*
X89265Y5969D02*
X88519D01*
Y5323D01*
X89265D01*
Y5969D01*
D02*
G37*
G36*
X88011D02*
X87265D01*
Y5323D01*
X88011D01*
Y5969D01*
D02*
G37*
G36*
X56830Y4953D02*
X56134D01*
Y4407D01*
X56830D01*
Y4953D01*
D02*
G37*
G36*
X55626D02*
X54930D01*
Y4407D01*
X55626D01*
Y4953D01*
D02*
G37*
G36*
X28890Y4953D02*
X28194D01*
Y4407D01*
X28890D01*
Y4953D01*
D02*
G37*
G36*
X27686D02*
X26990D01*
Y4407D01*
X27686D01*
Y4953D01*
D02*
G37*
G36*
X40373Y6158D02*
X38367D01*
Y3688D01*
X32118D01*
Y3928D01*
X30112D01*
Y3688D01*
X28793D01*
Y3878D01*
X27087D01*
Y3688D01*
X23208D01*
Y3978D01*
X21602D01*
Y2372D01*
X23208D01*
Y2662D01*
X27087D01*
Y2472D01*
X28793D01*
Y2662D01*
X30112D01*
Y2422D01*
X32118D01*
Y2662D01*
X38367D01*
Y1952D01*
X40373D01*
Y2662D01*
X47557D01*
Y1822D01*
X48963D01*
Y4528D01*
X47557D01*
Y3688D01*
X40373D01*
Y6158D01*
D02*
G37*
G36*
X51360Y4625D02*
X50814D01*
Y3429D01*
X51360D01*
Y4625D01*
D02*
G37*
G36*
X50306D02*
X49760D01*
Y3429D01*
X50306D01*
Y4625D01*
D02*
G37*
G36*
X5250Y10963D02*
X4750D01*
X4367Y10925D01*
X3999Y10813D01*
X3660Y10632D01*
X3362Y10388D01*
X3118Y10090D01*
X2937Y9751D01*
X2825Y9383D01*
X2787Y9000D01*
X2825Y8617D01*
X2937Y8249D01*
X3118Y7910D01*
X3362Y7612D01*
X3660Y7368D01*
X3999Y7187D01*
X4367Y7075D01*
X4750Y7037D01*
X5250D01*
X5633Y7075D01*
X6001Y7187D01*
X6340Y7368D01*
X6638Y7612D01*
X6882Y7910D01*
X7063Y8249D01*
X7076Y8291D01*
X8486D01*
X11181Y5596D01*
X11120Y5394D01*
X11089Y5080D01*
X11120Y4766D01*
X11212Y4464D01*
X11361Y4185D01*
X11561Y3941D01*
X11805Y3741D01*
X12084Y3592D01*
X12386Y3500D01*
X12700Y3469D01*
X13014Y3500D01*
X13316Y3592D01*
X13412Y3643D01*
X14242Y2812D01*
X14409Y2701D01*
X14605Y2662D01*
X18702D01*
Y2372D01*
X20308D01*
Y3978D01*
X18702D01*
Y3688D01*
X14818D01*
X14137Y4368D01*
X14188Y4464D01*
X14280Y4766D01*
X14311Y5080D01*
X14280Y5394D01*
X14188Y5696D01*
X14039Y5975D01*
X13839Y6219D01*
X13595Y6419D01*
X13316Y6568D01*
X13014Y6660D01*
X12700Y6691D01*
X12386Y6660D01*
X12184Y6599D01*
X9282Y9502D01*
X9135Y9614D01*
X8964Y9685D01*
X8780Y9709D01*
X7076D01*
X7063Y9751D01*
X6882Y10090D01*
X6638Y10388D01*
X6340Y10632D01*
X6001Y10813D01*
X5633Y10925D01*
X5250Y10963D01*
D02*
G37*
G36*
X51360Y2921D02*
X50814D01*
Y1725D01*
X51360D01*
Y2921D01*
D02*
G37*
G36*
X50306D02*
X49760D01*
Y1725D01*
X50306D01*
Y2921D01*
D02*
G37*
%LPD*%
D10*
X8001Y19431D02*
D03*
Y21463D02*
D03*
X88265Y8255D02*
D03*
Y6223D02*
D03*
X10160Y23495D02*
D03*
Y25527D02*
D03*
X5080Y34798D02*
D03*
Y36830D02*
D03*
D11*
X59944Y20955D02*
D03*
X61976D02*
D03*
Y25908D02*
D03*
X64008D02*
D03*
X61976Y23876D02*
D03*
X64008D02*
D03*
X49149Y39370D02*
D03*
X51181D02*
D03*
X49149Y41910D02*
D03*
X51181D02*
D03*
X69342Y27432D02*
D03*
X67310D02*
D03*
X53984Y35330D02*
D03*
X56016D02*
D03*
X68961Y34290D02*
D03*
X66929D02*
D03*
D12*
X84963Y33655D02*
D03*
X86995D02*
D03*
X84963Y35560D02*
D03*
X86995D02*
D03*
X84963Y37465D02*
D03*
X86995D02*
D03*
X84963Y39370D02*
D03*
X86995D02*
D03*
D13*
X39370Y4055D02*
D03*
Y12455D02*
D03*
X22225Y17535D02*
D03*
Y9135D02*
D03*
D14*
X8001Y26670D02*
D03*
Y23622D02*
D03*
X31115Y6223D02*
D03*
Y3175D02*
D03*
X58420Y6223D02*
D03*
Y3175D02*
D03*
D15*
X22405D02*
D03*
X19505D02*
D03*
D16*
X40640Y39370D02*
D03*
Y41402D02*
D03*
X55880Y3175D02*
D03*
Y5207D02*
D03*
X27940Y3175D02*
D03*
Y5207D02*
D03*
D17*
X91000Y37465D02*
D03*
Y39065D02*
D03*
Y36665D02*
D03*
Y38265D02*
D03*
Y35865D02*
D03*
D18*
X96575Y41915D02*
D03*
Y33015D02*
D03*
X91125Y41915D02*
D03*
Y33015D02*
D03*
D19*
X44765Y41940D02*
D03*
X43815D02*
D03*
X42865D02*
D03*
Y39340D02*
D03*
X43815D02*
D03*
X44765D02*
D03*
D20*
X48260Y3175D02*
D03*
X50560D02*
D03*
X52860D02*
D03*
D21*
X50560Y8975D02*
D03*
D22*
X52705Y23495D02*
X60325D01*
X48768Y24765D02*
X59055D01*
X65597Y24142D02*
X65786D01*
X65331Y23876D02*
X65597Y24142D01*
X64008Y23876D02*
X65331D01*
X62326Y20574D02*
X64262D01*
X61976Y20924D02*
X62326Y20574D01*
X61976Y20924D02*
Y20955D01*
X65597Y25642D02*
X65786D01*
X65331Y25908D02*
X65597Y25642D01*
X64008Y25908D02*
X65331D01*
X64135Y20320D02*
X66675Y22860D01*
X92075D02*
X93345Y21590D01*
X87210Y35875D02*
X87445Y36110D01*
X89535Y37465D02*
X91440D01*
X88180Y38820D02*
X89535Y37465D01*
X89065Y36665D02*
X91440D01*
X88265Y37465D02*
X89065Y36665D01*
X87220Y35865D02*
X91440D01*
X86995Y35660D02*
X87210Y35875D01*
X83185Y22860D02*
X92075D01*
X20955Y33020D02*
X53340D01*
X17145Y36830D02*
X20955Y33020D01*
X5080Y36830D02*
X17145D01*
X44765Y41910D02*
X46990D01*
X44765Y39370D02*
X46990D01*
Y41910D02*
X49149D01*
X46990Y39370D02*
X48895D01*
X71120Y19685D02*
Y29210D01*
X69850Y18415D02*
X71120Y19685D01*
X72390Y18415D02*
Y30480D01*
Y18415D02*
X72390Y18415D01*
X87445Y38820D02*
X88180D01*
X84963Y33655D02*
Y35560D01*
X81915D02*
X84963D01*
X81915Y37465D02*
X84963D01*
X81915Y39370D02*
X84963D01*
X86995Y35560D02*
Y35660D01*
Y39270D02*
X87445Y38820D01*
X86995Y39270D02*
Y39370D01*
Y37465D02*
X88265D01*
X72390D02*
Y46355D01*
X69850Y37465D02*
Y46355D01*
X7366Y23622D02*
X7611Y23377D01*
D23*
X68580Y22098D02*
Y24130D01*
X67310Y20828D02*
X68580Y22098D01*
X67310Y18415D02*
Y20828D01*
X31115Y3175D02*
X32385D01*
X67310Y25400D02*
X68580Y24130D01*
X67310Y25400D02*
Y27432D01*
Y29020D01*
X66040Y30290D02*
Y32385D01*
Y30290D02*
X67310Y29020D01*
X27940Y3175D02*
X29845D01*
X39370D02*
X48260D01*
X8001Y21463D02*
Y22733D01*
X67310Y8255D02*
Y18415D01*
X58420Y3175D02*
X62230D01*
X55880D02*
X58420D01*
X52860D02*
X55880D01*
X62230D02*
X67310Y8255D01*
X32385Y3175D02*
X39370D01*
X14605D02*
X19505D01*
X12700Y5080D02*
X14605Y3175D01*
X29845D02*
X31115D01*
X22405D02*
X27940D01*
D24*
X8255Y22860D02*
X12700D01*
X18415Y17145D02*
X22225D01*
X5080Y22860D02*
X8255D01*
X12700D02*
X18415Y17145D01*
X8780Y9000D02*
X12700Y5080D01*
X5000Y9000D02*
X8780D01*
D25*
X66040Y35560D02*
X73025D01*
X77470Y40005D01*
Y46355D01*
X88265Y8255D02*
Y11430D01*
X51181Y37580D02*
X57785D01*
Y43180D01*
X54610Y46355D02*
X57785Y43180D01*
X42865Y37580D02*
X51181D01*
Y39370D02*
Y41910D01*
Y37580D02*
Y39370D01*
X42835D02*
X42865Y39340D01*
X40640Y39370D02*
X42835D01*
X27420Y37580D02*
X42865D01*
Y39340D01*
X5080Y36830D02*
Y39370D01*
X26035Y36195D02*
X27420Y37580D01*
X51054Y42037D02*
X51181Y41910D01*
X67310Y8255D02*
X88265D01*
X66929Y34290D02*
X66934Y34295D01*
X66484Y34330D02*
X66500Y34314D01*
X56016Y35330D02*
X57750D01*
D26*
X39370Y3725D02*
Y4055D01*
X6115Y14000D02*
X6195Y14080D01*
D27*
X62000Y34330D02*
D03*
D28*
X65786Y25642D02*
D03*
Y24142D02*
D03*
D29*
X81280Y11430D02*
D03*
X78740D02*
D03*
X76200D02*
D03*
X73660D02*
D03*
X5080Y20320D02*
D03*
Y22860D02*
D03*
Y25400D02*
D03*
Y27940D02*
D03*
Y30480D02*
D03*
X85090Y11430D02*
D03*
Y13970D02*
D03*
X88265D02*
D03*
Y11430D02*
D03*
X5080Y41910D02*
D03*
Y39370D02*
D03*
X18415Y23180D02*
D03*
Y43180D02*
D03*
D30*
X41910Y46355D02*
D03*
X44450D02*
D03*
X46990D02*
D03*
X49530D02*
D03*
X52070D02*
D03*
X54610D02*
D03*
X57150D02*
D03*
X59690D02*
D03*
X62230D02*
D03*
X64770D02*
D03*
X67310D02*
D03*
X69850D02*
D03*
X72390D02*
D03*
X74930D02*
D03*
X77470D02*
D03*
Y18415D02*
D03*
X74930D02*
D03*
X72390D02*
D03*
X69850D02*
D03*
X67310D02*
D03*
X64770D02*
D03*
X62230D02*
D03*
X59690D02*
D03*
X57150D02*
D03*
X54610D02*
D03*
X52070D02*
D03*
X49530D02*
D03*
X46990D02*
D03*
X44450D02*
D03*
X41910D02*
D03*
X33440Y19635D02*
D03*
Y45135D02*
D03*
X85940D02*
D03*
Y19635D02*
D03*
D31*
X12700Y22860D02*
D03*
Y5080D02*
D03*
D32*
X95885Y21590D02*
D03*
Y19050D02*
D03*
Y16510D02*
D03*
Y13970D02*
D03*
Y11430D02*
D03*
X93345D02*
D03*
Y13970D02*
D03*
Y16510D02*
D03*
Y19050D02*
D03*
Y21590D02*
D03*
D33*
X5000Y14080D02*
D03*
Y9000D02*
D03*
D34*
X93650Y39665D02*
D03*
Y35265D02*
D03*
D35*
X97000Y47000D02*
D03*
X3000D02*
D03*
Y3000D02*
D03*
X97000Y3000D02*
D03*
D36*
X52705Y23495D02*
D03*
X60325D02*
D03*
X48768Y24765D02*
D03*
X70104Y27432D02*
D03*
X64135Y20320D02*
D03*
X66675Y22860D02*
D03*
X66040Y32385D02*
D03*
X69215Y29210D02*
D03*
X59055Y26670D02*
D03*
Y24765D02*
D03*
X24765Y40640D02*
D03*
X83185Y22860D02*
D03*
X59750Y31580D02*
D03*
X74930Y28575D02*
D03*
X24130D02*
D03*
X53340Y33020D02*
D03*
X57785Y37580D02*
D03*
X26035Y36195D02*
D03*
X54610Y40005D02*
D03*
X71120Y29210D02*
D03*
X72390Y30480D02*
D03*
X46990Y39370D02*
D03*
Y41910D02*
D03*
X81915Y35560D02*
D03*
Y37465D02*
D03*
Y39370D02*
D03*
X68104Y40640D02*
D03*
X72390Y37465D02*
D03*
X69850D02*
D03*
X52330Y31080D02*
D03*
X65750Y38580D02*
D03*
%TF.MD5,09dc12db249f70eb6a2aaaa6a8e12c23*%
M02*
