M48
;Layer_Color=9474304
;FILE_FORMAT=4:3
METRIC,LZ
;TYPE=PLATED
T1F00S00C0.500
T2F00S00C0.900
T3F00S00C1.000
T4F00S00C1.200
T5F00S00C1.400
%
T01
X0060325Y0023495
X0059055Y0024765
Y002667
X005975Y003158
X006604Y0032385
X0069215Y002921
X007112
X007239Y003048
X007493Y0028575
X0070104Y0027432
X0065786Y0025642
Y0024142
X0066675Y002286
X0064135Y002032
X0083185Y002286
X0052705Y0023495
X0048768Y0024765
X005233Y003108
X005334Y003302
X002413Y0028575
X0026035Y0036195
X0024765Y004064
X004699Y003937
Y004191
X005461Y0040005
X0057785Y003758
X006575Y003858
X0068104Y004064
X006985Y0037465
X007239
X0081915
Y003556
Y003937
T02
X005969Y0018415
X006223
X006477
X006731
X006985
X007239
X007493
X007747
X0093345Y001905
X0095885
Y002159
X0093345
Y001651
X0095885
Y001397
Y001143
X0093345
Y001397
X005715Y0018415
X005461
X005207
X004953
X004699
X004445
X004191
Y0046355
X004445
X004699
X004953
X005207
X005461
X005715
X005969
X006223
X006477
X006731
X006985
X007239
X007493
X007747
T03
X007366Y001143
X00762
X007874
X008128
X008509
Y001397
X0088265
Y001143
X000508Y002032
Y002286
Y00254
Y002794
Y003048
Y003937
Y004191
T04
X0005Y0009
Y001408
X0018415Y002318
Y004318
T05
X00127Y000508
Y002286
M30
