G04 Layer_Color=32896*
%FSLAX43Y43*%
%MOMM*%
G71*
G01*
G75*
%ADD17C,0.250*%
%ADD18C,0.200*%
%ADD19C,0.254*%
%ADD20C,0.300*%
D17*
X30205Y33470D02*
G03*
X30205Y33470I-125J0D01*
G01*
D18*
X15275Y13589D02*
X16475D01*
X28680Y17865D02*
Y33405D01*
X22080Y17865D02*
Y33405D01*
X28680D01*
X22080Y17865D02*
X28680D01*
X15510Y26016D02*
X16710D01*
X34706Y13462D02*
X35906D01*
X7741Y13889D02*
X7908Y14055D01*
X8241D01*
X8407Y13889D01*
Y13222D01*
X8241Y13056D01*
X7908D01*
X7741Y13222D01*
Y13555D01*
X8074D01*
X7408Y13056D02*
Y14055D01*
X6741Y13056D01*
Y14055D01*
X6408D02*
Y13056D01*
X5908D01*
X5742Y13222D01*
Y13889D01*
X5908Y14055D01*
X6408D01*
X43174Y13914D02*
X43341Y14081D01*
X43674D01*
X43840Y13914D01*
Y13248D01*
X43674Y13081D01*
X43341D01*
X43174Y13248D01*
Y13581D01*
X43507D01*
X42841Y13081D02*
Y14081D01*
X42174Y13081D01*
Y14081D01*
X41841D02*
Y13081D01*
X41341D01*
X41175Y13248D01*
Y13914D01*
X41341Y14081D01*
X41841D01*
X8407Y16121D02*
X7741D01*
X8074Y16454D02*
Y15788D01*
X6741Y16621D02*
X7408D01*
Y16121D01*
X7075Y16287D01*
X6908D01*
X6741Y16121D01*
Y15788D01*
X6908Y15621D01*
X7241D01*
X7408Y15788D01*
X6408Y16621D02*
Y15954D01*
X6075Y15621D01*
X5742Y15954D01*
Y16621D01*
X44145Y16121D02*
X43479D01*
X43812Y16454D02*
Y15788D01*
X42479Y16621D02*
X43146D01*
Y16121D01*
X42812Y16287D01*
X42646D01*
X42479Y16121D01*
Y15788D01*
X42646Y15621D01*
X42979D01*
X43146Y15788D01*
X42146Y16621D02*
Y15954D01*
X41813Y15621D01*
X41479Y15954D01*
Y16621D01*
X9500Y19211D02*
Y18212D01*
X8833D01*
X8000Y19211D02*
X8333D01*
X8500Y19045D01*
Y18378D01*
X8333Y18212D01*
X8000D01*
X7833Y18378D01*
Y19045D01*
X8000Y19211D01*
X7500Y18212D02*
Y18878D01*
X7167Y19211D01*
X6834Y18878D01*
Y18212D01*
Y18712D01*
X7500D01*
X6501Y19211D02*
Y18212D01*
X6001D01*
X5834Y18378D01*
Y19045D01*
X6001Y19211D01*
X6501D01*
X43917D02*
Y18212D01*
X43250D01*
X42417Y19211D02*
X42750D01*
X42917Y19045D01*
Y18378D01*
X42750Y18212D01*
X42417D01*
X42250Y18378D01*
Y19045D01*
X42417Y19211D01*
X41917Y18212D02*
Y18878D01*
X41584Y19211D01*
X41251Y18878D01*
Y18212D01*
Y18712D01*
X41917D01*
X40918Y19211D02*
Y18212D01*
X40418D01*
X40251Y18378D01*
Y19045D01*
X40418Y19211D01*
X40918D01*
X7919Y21585D02*
X8085Y21751D01*
X8419D01*
X8585Y21585D01*
Y20918D01*
X8419Y20752D01*
X8085D01*
X7919Y20918D01*
X7586Y21751D02*
Y20752D01*
X6919D01*
X6586Y21751D02*
Y20752D01*
Y21085D01*
X5919Y21751D01*
X6419Y21252D01*
X5919Y20752D01*
X8357Y24444D02*
Y23444D01*
X7857D01*
X7690Y23611D01*
Y24277D01*
X7857Y24444D01*
X8357D01*
X7357D02*
X7024D01*
X7190D01*
Y23444D01*
X7357D01*
X7024D01*
X6524D02*
Y24444D01*
X5857Y23444D01*
Y24444D01*
X44018Y24291D02*
Y23292D01*
X43518D01*
X43352Y23458D01*
Y24125D01*
X43518Y24291D01*
X44018D01*
X42519D02*
X42852D01*
X43019Y24125D01*
Y23458D01*
X42852Y23292D01*
X42519D01*
X42352Y23458D01*
Y24125D01*
X42519Y24291D01*
X42019D02*
Y23458D01*
X41852Y23292D01*
X41519D01*
X41352Y23458D01*
Y24291D01*
X41019D02*
X40353D01*
X40686D01*
Y23292D01*
X43377Y21509D02*
X43544Y21675D01*
X43877D01*
X44044Y21509D01*
Y20842D01*
X43877Y20676D01*
X43544D01*
X43377Y20842D01*
X43044Y21675D02*
Y20676D01*
X42377D01*
X42044Y21675D02*
Y20676D01*
Y21009D01*
X41378Y21675D01*
X41878Y21175D01*
X41378Y20676D01*
X13335Y1905D02*
X13002D01*
X13168D01*
Y2905D01*
X13335Y2738D01*
X36830D02*
X36663Y2905D01*
X36330D01*
X36164Y2738D01*
Y2571D01*
X36330Y2405D01*
X36164Y2238D01*
Y2072D01*
X36330Y1905D01*
X36663D01*
X36830Y2072D01*
Y2238D01*
X36663Y2405D01*
X36830Y2571D01*
Y2738D01*
X36663Y2405D02*
X36330D01*
X36195Y47792D02*
X36028Y47625D01*
X35695D01*
X35529Y47792D01*
Y48458D01*
X35695Y48625D01*
X36028D01*
X36195Y48458D01*
Y48291D01*
X36028Y48125D01*
X35529D01*
X14605Y47625D02*
X14272D01*
X14438D01*
Y48625D01*
X14605Y48458D01*
X13105Y48625D02*
X13439Y48458D01*
X13772Y48125D01*
Y47792D01*
X13605Y47625D01*
X13272D01*
X13105Y47792D01*
Y47958D01*
X13272Y48125D01*
X13772D01*
D19*
X44920Y12300D02*
X50000D01*
X44920D02*
Y25000D01*
X50000D01*
X-0D02*
X5080D01*
Y12300D02*
Y25000D01*
X-0Y12300D02*
X5080D01*
X16129Y10795D02*
X16383Y11049D01*
X16891D01*
X17145Y10795D01*
Y9779D01*
X16891Y9525D01*
X16383D01*
X16129Y9779D01*
X15621Y9525D02*
X15114D01*
X15368D01*
Y11049D01*
X15621Y10795D01*
X13970Y27305D02*
Y28829D01*
X13208D01*
X12954Y28575D01*
Y28067D01*
X13208Y27813D01*
X13970D01*
X13462D02*
X12954Y27305D01*
X12446D02*
X11939D01*
X12193D01*
Y28829D01*
X12446Y28575D01*
X26035Y36449D02*
Y35179D01*
X25781Y34925D01*
X25273D01*
X25019Y35179D01*
Y36449D01*
X24511Y34925D02*
X24004D01*
X24258D01*
Y36449D01*
X24511Y36195D01*
X35560Y10922D02*
X35814Y11176D01*
X36322D01*
X36576Y10922D01*
Y9906D01*
X36322Y9652D01*
X35814D01*
X35560Y9906D01*
X34037Y9652D02*
X35052D01*
X34037Y10668D01*
Y10922D01*
X34291Y11176D01*
X34799D01*
X35052Y10922D01*
X47244Y27559D02*
X47752D01*
X47498D01*
Y26289D01*
X47752Y26035D01*
X48006D01*
X48260Y26289D01*
X45721Y26035D02*
X46736D01*
X45721Y27051D01*
Y27305D01*
X45975Y27559D01*
X46483D01*
X46736Y27305D01*
X3429Y27559D02*
X3937D01*
X3683D01*
Y26289D01*
X3937Y26035D01*
X4191D01*
X4445Y26289D01*
X2921Y26035D02*
X2414D01*
X2668D01*
Y27559D01*
X2921Y27305D01*
D20*
X36767Y43274D02*
X38100D01*
Y42275D01*
X37434D01*
X38100D01*
Y41275D01*
X35767D02*
X35101D01*
X34768Y41608D01*
Y42275D01*
X35101Y42608D01*
X35767D01*
X36101Y42275D01*
Y41608D01*
X35767Y41275D01*
X34101D02*
X33435D01*
X33768D01*
Y43274D01*
X34101D01*
X31102D02*
Y41275D01*
X32102D01*
X32435Y41608D01*
Y42275D01*
X32102Y42608D01*
X31102D01*
X30436D02*
X29769Y41275D01*
X29103Y42608D01*
X28103D02*
X27437D01*
X27104Y42275D01*
Y41275D01*
X28103D01*
X28436Y41608D01*
X28103Y41941D01*
X27104D01*
X26437Y42608D02*
Y41275D01*
Y41941D01*
X26104Y42275D01*
X25771Y42608D01*
X25437D01*
X24438Y41275D02*
X23771D01*
X24105D01*
Y42608D01*
X24438D01*
X20772Y43274D02*
Y41275D01*
X19773D01*
X19439Y41608D01*
Y42941D01*
X19773Y43274D01*
X20772D01*
X18440Y42608D02*
X17773D01*
X17440Y42275D01*
Y41275D01*
X18440D01*
X18773Y41608D01*
X18440Y41941D01*
X17440D01*
X16774Y42608D02*
X16107Y41275D01*
X15441Y42608D01*
X14774Y41275D02*
X14108D01*
X14441D01*
Y42608D01*
X14774D01*
X11775Y43274D02*
Y41275D01*
X12775D01*
X13108Y41608D01*
Y42275D01*
X12775Y42608D01*
X11775D01*
X36767Y38100D02*
X38100D01*
X36767Y39433D01*
Y39766D01*
X37100Y40099D01*
X37767D01*
X38100Y39766D01*
X36101D02*
X35767Y40099D01*
X35101D01*
X34768Y39766D01*
Y38433D01*
X35101Y38100D01*
X35767D01*
X36101Y38433D01*
Y39766D01*
X34101Y38100D02*
X33435D01*
X33768D01*
Y40099D01*
X34101Y39766D01*
X32435Y40099D02*
X31102D01*
Y39766D01*
X32435Y38433D01*
Y38100D01*
X30436D02*
Y38433D01*
X30103D01*
Y38100D01*
X30436D01*
X28770D02*
X28103D01*
X28436D01*
Y40099D01*
X28770Y39766D01*
X27104D02*
X26770Y40099D01*
X26104D01*
X25771Y39766D01*
Y38433D01*
X26104Y38100D01*
X26770D01*
X27104Y38433D01*
Y39766D01*
X25104Y38100D02*
Y38433D01*
X24771D01*
Y38100D01*
X25104D01*
X23438D02*
X22772D01*
X23105D01*
Y40099D01*
X23438Y39766D01*
X21772Y38100D02*
X21105D01*
X21439D01*
Y40099D01*
X21772Y39766D01*
X20106Y38100D02*
Y38433D01*
X19773D01*
Y38100D01*
X20106D01*
M02*
