M48
;Layer_Color=9474304
;FILE_FORMAT=4:3
METRIC,LZ
;TYPE=PLATED
T1F00S00C0.500
T2F00S00C1.000
%
T01
X0031475Y001234
X003302Y001611
Y001865
X0031475Y002246
X0027432Y0022606
X0027665Y002627
Y003008
X0031475Y002881
X0031496Y0034036
X0029972
X003429
X0038246Y002373
X0024892Y002246
X0023114Y0018796
X001865Y002119
X0016364Y001992
X0013824Y001484
Y002627
X001865Y002754
Y003008
X0015094Y003135
X0022585Y003262
X0023876Y0034036
X0023222Y002881
X0024384Y0009125
X0025908Y001016
T02
X002881Y000214
X003135
X003389
X002627
X002373
X002119
X001865
X001611
Y004786
X001865
X002119
X002373
X002627
X002881
X003135
X003389
M30
