G04 Layer_Physical_Order=2*
G04 Layer_Color=16711680*
%FSLAX43Y43*%
%MOMM*%
G71*
G01*
G75*
%ADD10C,0.600*%
%ADD11C,2.000*%
%ADD12C,1.200*%
%ADD13R,1.400X1.200*%
%ADD14O,2.000X0.600*%
%ADD15R,5.000X2.200*%
%ADD16C,1.000*%
D10*
X30080Y22460D02*
X31475D01*
X23730Y47860D02*
X27665Y43925D01*
X37954Y18650D02*
X47460D01*
X35414Y16110D02*
X37954Y18650D01*
Y21190D02*
X47460D01*
X34144Y17380D02*
X37954Y21190D01*
X20680Y17380D02*
X34144D01*
X11030Y18650D02*
X13570Y16110D01*
X2540Y18650D02*
X11030D01*
X14840Y17380D02*
X20680D01*
X11030Y21190D02*
X14840Y17380D01*
X2540Y21190D02*
X11030D01*
X15748Y34036D02*
X23876D01*
X5442Y23730D02*
X15748Y34036D01*
X2540Y23730D02*
X5442D01*
X16364Y19920D02*
X20680D01*
X15094Y31350D02*
X20680D01*
X18650Y21190D02*
X20680D01*
X18650Y27540D02*
X20680D01*
Y28810D02*
X23222D01*
X20680Y23730D02*
X26308D01*
X18650Y30080D02*
X20680D01*
Y22460D02*
X24892D01*
X34290Y23368D02*
Y34036D01*
X25908Y10122D02*
X33890Y2140D01*
X24365Y9125D02*
X24384D01*
X32112Y21190D02*
X34290Y23368D01*
X30080Y25000D02*
X31604D01*
X38246Y23730D02*
X47460D01*
X30080Y21190D02*
X32112D01*
X16110Y47860D02*
X25125Y38845D01*
X18650Y47860D02*
X26395Y40115D01*
X23114Y18796D02*
X24238Y19920D01*
X30080D01*
X26308Y23730D02*
X27432Y22606D01*
X28086Y23730D02*
X30080D01*
X25125Y26691D02*
X28086Y23730D01*
X27832Y27540D02*
X30080D01*
X21025Y2305D02*
X21190Y2140D01*
X16110Y25000D02*
X20680D01*
Y32620D02*
X22585D01*
X27665Y26270D02*
X30080D01*
X20680Y17380D02*
Y18650D01*
X30080D02*
X33020D01*
X31496Y34036D02*
Y45174D01*
X29972Y32728D02*
Y34036D01*
X28810Y47860D02*
X31496Y45174D01*
X27665Y30080D02*
X30080D01*
X25125Y26691D02*
Y38845D01*
X26395Y28977D02*
Y40115D01*
Y28977D02*
X27832Y27540D01*
X27665Y31350D02*
Y43925D01*
Y31350D02*
X30080D01*
X31350Y47860D02*
X32766Y46444D01*
X31604Y25000D02*
X32766Y26162D01*
Y46444D01*
X13570Y16110D02*
X33020D01*
X35414D01*
X24365Y9125D02*
X31350Y2140D01*
X13824Y26270D02*
X20680D01*
D11*
X16110Y47860D02*
D03*
X18650D02*
D03*
X21190D02*
D03*
X23730D02*
D03*
X26270D02*
D03*
X28810D02*
D03*
X31350D02*
D03*
X33890D02*
D03*
Y2140D02*
D03*
X31350D02*
D03*
X28810D02*
D03*
X26270D02*
D03*
X23730D02*
D03*
X21190D02*
D03*
X18650D02*
D03*
X16110D02*
D03*
D12*
X13824Y26270D02*
D03*
X16364Y19920D02*
D03*
X18650Y30080D02*
D03*
Y21190D02*
D03*
X24892Y22460D02*
D03*
X38246Y23730D02*
D03*
X34290Y34036D02*
D03*
X23876D02*
D03*
X15094Y31350D02*
D03*
X33020Y18650D02*
D03*
Y16110D02*
D03*
X23114Y18796D02*
D03*
X27432Y22606D02*
D03*
X18650Y27540D02*
D03*
X24384Y9125D02*
D03*
X23222Y28810D02*
D03*
X31475Y22460D02*
D03*
X22585Y32620D02*
D03*
X27665Y26270D02*
D03*
X13824Y14840D02*
D03*
X31496Y34036D02*
D03*
X29972D02*
D03*
X27665Y30080D02*
D03*
X31475Y28810D02*
D03*
X25908Y10160D02*
D03*
X31475Y12340D02*
D03*
D13*
X15875Y14605D02*
D03*
Y12573D02*
D03*
X16110Y25000D02*
D03*
Y27032D02*
D03*
X35306Y14478D02*
D03*
Y12446D02*
D03*
D14*
X30080Y32620D02*
D03*
Y31350D02*
D03*
Y30080D02*
D03*
Y28810D02*
D03*
Y27540D02*
D03*
Y26270D02*
D03*
Y25000D02*
D03*
Y23730D02*
D03*
Y22460D02*
D03*
Y21190D02*
D03*
X20680Y27540D02*
D03*
Y26270D02*
D03*
Y25000D02*
D03*
Y23730D02*
D03*
Y22460D02*
D03*
Y21190D02*
D03*
Y19920D02*
D03*
Y18650D02*
D03*
X30080D02*
D03*
Y19920D02*
D03*
X20680Y28810D02*
D03*
Y30080D02*
D03*
Y31350D02*
D03*
Y32620D02*
D03*
D15*
X47460Y23730D02*
D03*
Y18650D02*
D03*
Y16110D02*
D03*
Y13570D02*
D03*
Y21190D02*
D03*
X2540Y13570D02*
D03*
Y18650D02*
D03*
Y21190D02*
D03*
Y23730D02*
D03*
Y16110D02*
D03*
D16*
X36684Y14840D02*
X37954Y16110D01*
X10776D02*
X12046Y14840D01*
X2540Y16110D02*
X10776D01*
X2540Y13570D02*
X9290D01*
X10795Y12065D01*
X37465D02*
X38970Y13570D01*
X37954Y16110D02*
X47460D01*
X38970Y13570D02*
X47460D01*
X12046Y14840D02*
X35306D01*
X36684D01*
X10795Y12065D02*
X37465D01*
M02*
